<?xml version="1.0" standalone="no"?>
<!DOCTYPE svg PUBLIC "-//W3C//DTD SVG 1.1//EN" "http://www.w3.org/Graphics/SVG/1.1/DTD/svg11.dtd" >
<svg>
<metadata>
Created by FontForge 20090622 at Thu Mar 26 11:25:50 2020
 By deploy user
&#194;&#169; 2019 Typodermic Fonts Inc.
</metadata>
<defs>
<font id="GoodTimingRg-Bold" horiz-adv-x="744" >
  <font-face 
    font-family="Good Timing Rg"
    font-weight="700"
    font-stretch="normal"
    units-per-em="1000"
    panose-1="2 11 8 5 2 0 0 2 0 1"
    ascent="727"
    descent="-273"
    x-height="499"
    cap-height="650"
    bbox="-567 -277 1268 1170"
    underline-thickness="20"
    underline-position="-123"
    unicode-range="U+0020-U+E901"
  />
<missing-glyph horiz-adv-x="621" 
d="M176 -174q-134 0 -134 117v720q0 119 134 119h269q134 0 134 -119v-720q0 -117 -134 -117h-269zM507 663q0 56 -62 56h-269q-62 0 -62 -56v-720q0 -54 62 -54h269q62 0 62 54v720z" />
    <glyph glyph-name=".notdef" horiz-adv-x="621" 
d="M176 -174q-134 0 -134 117v720q0 119 134 119h269q134 0 134 -119v-720q0 -117 -134 -117h-269zM507 663q0 56 -62 56h-269q-62 0 -62 -56v-720q0 -54 62 -54h269q62 0 62 54v720z" />
    <glyph glyph-name="space" unicode=" " horiz-adv-x="269" 
 />
    <glyph glyph-name="exclam" unicode="!" horiz-adv-x="314" 
d="M71 221v452h174v-452h-174zM146 0q-36 0 -59 21t-23 56t23 55.5t59 20.5h22q36 0 59 -20.5t23 -55.5t-23 -56t-59 -21h-22z" />
    <glyph glyph-name="quotedbl" unicode="&#x22;" horiz-adv-x="422" 
d="M38 424zM38 424v294h134v-294h-134zM250 424v294h134v-294h-134z" />
    <glyph glyph-name="numbersign" unicode="#" horiz-adv-x="624" 
d="M105 0l26 166h-95v96h110l21 137h-94v97h110l24 154h102l-24 -154h123l24 154h102l-25 -154h80v-97h-95l-22 -137h79v-96h-94l-26 -166h-101l26 166h-123l-26 -166h-102zM248 262h123l21 137h-123z" />
    <glyph glyph-name="dollar" unicode="$" horiz-adv-x="709" 
d="M302 0v88h-251v131h251v79h-88q-33 0 -64 9.5t-54.5 28.5t-38 47.5t-14.5 66.5q0 36 13 65.5t35.5 50t54 31.5t68.5 11h88v93h103v-93h234v-130h-234v-78h89q37 0 68.5 -10t54 -29.5t35.5 -48t13 -65.5t-13 -66.5t-35.5 -50t-54 -31.5t-68.5 -11h-89v-88h-103zM405 298
v-79h78q19 0 30 9.5t11 30.5q0 20 -11 29.5t-30 9.5h-78zM184 439q0 -39 41 -39h77v78h-77q-41 0 -41 -39z" />
    <glyph glyph-name="percent" unicode="%" horiz-adv-x="942" 
d="M34 0zM410 469q0 -40 -14 -74t-39.5 -59t-60 -39t-75.5 -14t-75.5 14t-59 39t-38.5 59t-14 74t14 73.5t38.5 58t59 38.5t75.5 14t75.5 -14t60 -38.5t39.5 -58t14 -73.5zM304 469q0 36 -23 59t-59 23q-38 0 -60.5 -23t-22.5 -59t22.5 -59.5t60.5 -23.5q36 0 59 23.5
t23 59.5zM192 0l426 650h135l-424 -650h-137zM908 182q0 -40 -14 -74t-39.5 -59t-60 -39t-75.5 -14t-75.5 14t-59 39t-38.5 59t-14 74t14 73.5t38.5 58t59 38.5t75.5 14t75.5 -14t60 -38.5t39.5 -58t14 -73.5zM802 182q0 36 -23 59t-59 23q-38 0 -60.5 -23t-22.5 -59
t22.5 -59.5t60.5 -23.5q36 0 59 23.5t23 59.5z" />
    <glyph glyph-name="ampersand" unicode="&#x26;" horiz-adv-x="689" 
d="M245 0q-105 0 -160.5 51.5t-55.5 139.5q0 62 25.5 101t63.5 51q-34 14 -53 49.5t-19 86.5q0 36 11 67.5t34 54.5t60 36t90 13h172v-162h-149q-48 0 -48 -46q0 -47 48 -47h376v-134h-70v-98h78v-163h-403zM424 261h-171q-24 0 -37.5 -13.5t-13.5 -37.5q0 -23 14 -35
t38 -12h170v98z" />
    <glyph glyph-name="quotesingle" unicode="'" horiz-adv-x="210" 
d="M38 424v294h134v-294h-134z" />
    <glyph glyph-name="parenleft" unicode="(" horiz-adv-x="378" 
d="M222 -174q-33 51 -59 104t-43.5 113t-26.5 130t-9 156q0 85 9 154t26.5 127.5t43.5 110.5t59 104h139q-69 -104 -107.5 -228t-38.5 -268t38.5 -272t107.5 -231h-139z" />
    <glyph glyph-name="parenright" unicode=")" horiz-adv-x="378" 
d="M156 825q33 -51 58.5 -104t43.5 -113t27 -130.5t9 -155.5q0 -86 -9 -154.5t-27 -127t-43.5 -110.5t-58.5 -104h-139q69 104 107.5 228t38.5 268t-38.5 272t-107.5 231h139z" />
    <glyph glyph-name="asterisk" unicode="*" horiz-adv-x="506" 
d="M346 263l-94 124l-91 -125l-80 61l88 123l-148 51l33 95l147 -50v159h104v-159l148 51l31 -96l-147 -51l91 -125z" />
    <glyph glyph-name="plus" unicode="+" 
d="M309 69v198h-195v127h195v197h127v-197h194v-127h-194v-198h-127z" />
    <glyph glyph-name="comma" unicode="," horiz-adv-x="260" 
d="M53 -120l41 129q-29 3 -43 22t-14 45q0 36 23.5 56.5t59.5 20.5h23q35 0 58 -20.5t23 -52.5q0 -22 -15 -55l-60 -145h-96z" />
    <glyph glyph-name="hyphen" unicode="-" horiz-adv-x="303" 
d="M29 255v126h245v-126h-245z" />
    <glyph glyph-name="period" unicode="." horiz-adv-x="260" 
d="M119 0q-36 0 -59 21t-23 56t23 55.5t59 20.5h23q35 0 58.5 -20.5t23.5 -55.5t-23.5 -56t-58.5 -21h-23z" />
    <glyph glyph-name="slash" unicode="/" horiz-adv-x="399" 
d="M0 -85l264 821h135l-264 -821h-135z" />
    <glyph glyph-name="zero" unicode="0" 
d="M711 325q0 -72 -25.5 -133t-70.5 -105t-107.5 -69t-135.5 -25q-74 0 -136 25t-107 69t-70 105t-25 133t25 133t70 105t107 69t136 25q73 0 135.5 -25t107.5 -69t70.5 -105t25.5 -133zM536 325q0 35 -12 65.5t-33.5 52.5t-51.5 34.5t-66 12.5q-37 0 -67.5 -12.5t-52 -34.5
t-33.5 -52.5t-12 -65.5t12 -65t33.5 -52t52 -34.5t67.5 -12.5q36 0 66 12.5t51.5 34.5t33.5 52t12 65z" />
    <glyph glyph-name="one" unicode="1" horiz-adv-x="393" 
d="M169 0v412q0 32 -19.5 51t-51.5 19h-78v168h108q47 0 86.5 -14.5t68.5 -41.5t45 -64.5t16 -82.5v-447h-175z" />
    <glyph glyph-name="two" unicode="2" 
d="M49 0v203q0 43 15.5 78.5t43.5 61t66.5 39.5t83.5 14h221q18 0 29 12t11 32t-11 31.5t-29 11.5h-398v167h405q46 0 84 -14.5t66 -40.5t43.5 -62t15.5 -80t-15.5 -80.5t-43.5 -62t-66.5 -39.5t-83.5 -14h-222q-18 0 -29 -10t-11 -30v-49h461v-168h-636z" />
    <glyph glyph-name="three" unicode="3" 
d="M29 0v163h462q24 0 37.5 12t13.5 35q0 24 -13.5 37.5t-37.5 13.5h-455v134h445q47 0 47 47q0 46 -47 46h-452v162h475q52 0 89 -13t60 -36t34 -54.5t11 -67.5q0 -51 -18.5 -86.5t-53.5 -49.5q39 -12 64.5 -51t25.5 -101q0 -88 -56 -139.5t-161 -51.5h-470z" />
    <glyph glyph-name="three" unicode="&#x417;" 
d="M29 0v163h462q24 0 37.5 12t13.5 35q0 24 -13.5 37.5t-37.5 13.5h-455v134h445q47 0 47 47q0 46 -47 46h-452v162h475q52 0 89 -13t60 -36t34 -54.5t11 -67.5q0 -51 -18.5 -86.5t-53.5 -49.5q39 -12 64.5 -51t25.5 -101q0 -88 -56 -139.5t-161 -51.5h-470z" />
    <glyph glyph-name="four" unicode="4" 
d="M482 0v160h-224q-47 0 -87 14.5t-69 41.5t-45.5 64.5t-16.5 83.5v286h176v-259q0 -33 20 -52.5t51 -19.5h195v331h175v-331h68v-159h-68v-160h-175z" />
    <glyph glyph-name="five" unicode="5" 
d="M55 0v168h426q21 0 34 11.5t13 32.5t-12.5 33t-29.5 12h-431v393h621v-167h-454v-87h271q45 0 83.5 -14.5t67 -40.5t44.5 -62.5t16 -79.5q0 -45 -16 -81.5t-45 -63t-68.5 -40.5t-85.5 -14h-434z" />
    <glyph glyph-name="six" unicode="6" 
d="M355 0q-75 0 -134.5 22t-101 63t-63.5 99t-22 130q0 78 26 140.5t72 106t109 66.5t137 23h304v-167h-316q-122 0 -153 -89h304q100 0 146 -50t46 -134q0 -46 -13.5 -84.5t-41 -66.5t-70.5 -43.5t-103 -15.5h-126zM209 266q25 -98 154 -98h116q49 0 49 51q0 47 -45 47
h-274z" />
    <glyph glyph-name="seven" unicode="7" 
d="M123 0l358 483h-461v167h637q68 0 68 -57v-35q0 -23 -7.5 -40.5t-26.5 -42.5l-350 -475h-218z" />
    <glyph glyph-name="eight" unicode="8" 
d="M245 0q-105 0 -160.5 51.5t-55.5 139.5q0 62 25.5 100.5t63.5 51.5q-35 14 -53.5 49.5t-18.5 86.5q0 36 11 67.5t34 54.5t60 36t90 13h263q52 0 89 -13t60.5 -36t34 -54.5t10.5 -67.5q0 -51 -18 -86.5t-53 -49.5q38 -13 63.5 -51.5t25.5 -100.5q0 -88 -55.5 -139.5
t-161.5 -51.5h-254zM251 268q-24 0 -37.5 -13.5t-13.5 -38.5q0 -24 13.5 -37t37.5 -13h242q24 0 37.5 13t13.5 37q0 52 -50 52h-243zM261 491q-23 0 -35.5 -12.5t-12.5 -35.5t12.5 -36t35.5 -13h222q23 0 35.5 13t12.5 36t-12.5 35.5t-35.5 12.5h-222z" />
    <glyph glyph-name="nine" unicode="9" 
d="M379 167q124 0 153 94h-306q-99 0 -144.5 48t-45.5 132q0 46 13 84t40.5 66t70.5 43.5t103 15.5h125q76 0 136 -22t101.5 -63t63.5 -99t22 -130q0 -78 -26 -140.5t-72 -106t-109 -66.5t-137 -23h-305v167h317zM220 437q0 -46 43 -46h269q-27 94 -150 94h-112
q-26 0 -38 -12.5t-12 -35.5z" />
    <glyph glyph-name="colon" unicode=":" horiz-adv-x="285" 
d="M49 63zM131 63q-36 0 -59 21t-23 56t23 55.5t59 20.5h23q35 0 58.5 -20.5t23.5 -55.5t-23.5 -56t-58.5 -21h-23zM131 332q-36 0 -59 21t-23 56t23 55.5t59 20.5h23q35 0 58.5 -20.5t23.5 -55.5t-23.5 -56t-58.5 -21h-23z" />
    <glyph glyph-name="semicolon" unicode=";" horiz-adv-x="285" 
d="M49 0zM65 -57l41 129q-29 3 -43 22t-14 45q0 36 23.5 56.5t59.5 20.5h23q35 0 58 -20.5t23 -52.5q0 -22 -15 -55l-60 -145h-96zM131 332q-36 0 -59 21t-23 56t23 55.5t59 20.5h23q35 0 58.5 -20.5t23.5 -55.5t-23.5 -56t-58.5 -21h-23z" />
    <glyph glyph-name="less" unicode="&#x3c;" 
d="M153 254q-39 19 -39 54v36q0 35 39 54l476 228v-144l-335 -156l335 -156v-145z" />
    <glyph glyph-name="equal" unicode="=" 
d="M114 393v126h516v-126h-516zM114 141v127h516v-127h-516z" />
    <glyph glyph-name="greater" unicode="&#x3e;" 
d="M591 398q38 -18 38 -54v-36q0 -36 -38 -54l-477 -228v144l335 156l-335 156v145z" />
    <glyph glyph-name="question" unicode="?" horiz-adv-x="633" 
d="M324 278q-31 0 -31 -32v-25h-175v32q0 37 13 67.5t36.5 52t56 33.5t71.5 12h91q19 0 30.5 12t11.5 32q0 21 -11.5 32.5t-30.5 11.5h-366v167h373q46 0 84.5 -14.5t66.5 -40.5t43.5 -62t15.5 -80t-15.5 -80.5t-43.5 -62.5t-66.5 -40.5t-84.5 -14.5h-69zM193 0
q-35 0 -58 21t-23 56t23 55.5t58 20.5h23q36 0 59 -20.5t23 -55.5t-23 -56t-59 -21h-23z" />
    <glyph glyph-name="at" unicode="@" horiz-adv-x="836" 
d="M420 -174q-84 0 -154.5 26.5t-122 74t-80.5 114.5t-29 148q0 82 29 149.5t80.5 115.5t122 74.5t154.5 26.5h361v-534h-374q-38 0 -70.5 12t-56 34t-36.5 52.5t-13 67.5q0 38 13 69t36.5 53t56 34t70.5 12h191v-231h65v303h-253q-54 0 -99.5 -17.5t-79 -49t-52 -75.5
t-18.5 -98q0 -53 18.5 -96.5t52 -74.5t79 -48t99.5 -17h371v-125h-361zM493 264h-86q-32 0 -51.5 -18.5t-19.5 -51.5q0 -35 20 -52.5t51 -17.5h86v140z" />
    <glyph glyph-name="A" unicode="A" horiz-adv-x="881" 
d="M681 0l-54 100h-305l74 139h157l-111 209l-238 -448h-193l332 602q27 48 78 48h40q51 0 78 -48l332 -602h-190z" />
    <glyph glyph-name="A" unicode="&#x410;" horiz-adv-x="881" 
d="M681 0l-54 100h-305l74 139h157l-111 209l-238 -448h-193l332 602q27 48 78 48h40q51 0 78 -48l332 -602h-190z" />
    <glyph glyph-name="A" unicode="&#x391;" horiz-adv-x="881" 
d="M681 0l-54 100h-305l74 139h157l-111 209l-238 -448h-193l332 602q27 48 78 48h40q51 0 78 -48l332 -602h-190z" />
    <glyph glyph-name="B" unicode="B" horiz-adv-x="766" 
d="M55 0v650h470q52 0 89.5 -13t61 -36t34.5 -54.5t11 -67.5q0 -51 -19 -86.5t-54 -49.5q38 -12 63.5 -51t25.5 -101q0 -88 -55.5 -139.5t-160.5 -51.5h-466zM288 261v134h215q23 0 35.5 12t12.5 35t-12.5 34.5t-35.5 11.5h-273v-325h282q52 0 52 47q0 24 -13 37.5t-38 13.5
h-225z" />
    <glyph glyph-name="B" unicode="&#x412;" horiz-adv-x="766" 
d="M55 0v650h470q52 0 89.5 -13t61 -36t34.5 -54.5t11 -67.5q0 -51 -19 -86.5t-54 -49.5q38 -12 63.5 -51t25.5 -101q0 -88 -55.5 -139.5t-160.5 -51.5h-466zM288 261v134h215q23 0 35.5 12t12.5 35t-12.5 34.5t-35.5 11.5h-273v-325h282q52 0 52 47q0 24 -13 37.5t-38 13.5
h-225z" />
    <glyph glyph-name="B" unicode="&#x392;" horiz-adv-x="766" 
d="M55 0v650h470q52 0 89.5 -13t61 -36t34.5 -54.5t11 -67.5q0 -51 -19 -86.5t-54 -49.5q38 -12 63.5 -51t25.5 -101q0 -88 -55.5 -139.5t-160.5 -51.5h-466zM288 261v134h215q23 0 35.5 12t12.5 35t-12.5 34.5t-35.5 11.5h-273v-325h282q52 0 52 47q0 24 -13 37.5t-38 13.5
h-225z" />
    <glyph glyph-name="C" unicode="C" horiz-adv-x="739" 
d="M378 0q-75 0 -138 23.5t-108.5 66t-71.5 102.5t-26 133t26 132.5t71.5 102.5t108.5 66.5t138 23.5h318v-167h-330q-34 0 -63 -11.5t-50 -32.5t-33 -50t-12 -64t12 -64t33 -49.5t50 -32t63 -11.5h330v-168h-318z" />
    <glyph glyph-name="C" unicode="&#x421;" horiz-adv-x="739" 
d="M378 0q-75 0 -138 23.5t-108.5 66t-71.5 102.5t-26 133t26 132.5t71.5 102.5t108.5 66.5t138 23.5h318v-167h-330q-34 0 -63 -11.5t-50 -32.5t-33 -50t-12 -64t12 -64t33 -49.5t50 -32t63 -11.5h330v-168h-318z" />
    <glyph glyph-name="D" unicode="D" horiz-adv-x="807" 
d="M55 0v650h374q74 0 137 -23.5t108.5 -66.5t71.5 -102.5t26 -132.5t-26 -133t-71.5 -102.5t-108.5 -66t-137 -23.5h-374zM441 168q34 0 62.5 11.5t49.5 32t32.5 49.5t11.5 64t-11.5 64t-32.5 50t-49.5 32.5t-62.5 11.5h-211v-315h211z" />
    <glyph glyph-name="E" unicode="E" horiz-adv-x="727" 
d="M288 257v139h384v-139h-384zM55 0v650h624v-167h-449v-315h450v-168h-625z" />
    <glyph glyph-name="E" unicode="&#x415;" horiz-adv-x="727" 
d="M288 257v139h384v-139h-384zM55 0v650h624v-167h-449v-315h450v-168h-625z" />
    <glyph glyph-name="E" unicode="&#x395;" horiz-adv-x="727" 
d="M288 257v139h384v-139h-384zM55 0v650h624v-167h-449v-315h450v-168h-625z" />
    <glyph glyph-name="F" unicode="F" horiz-adv-x="701" 
d="M288 248v147h367v-147h-367zM55 0v650h606v-167h-431v-483h-175z" />
    <glyph glyph-name="G" unicode="G" horiz-adv-x="781" 
d="M378 0q-75 0 -138 23.5t-108.5 66t-71.5 102.5t-26 133t26 132.5t71.5 102.5t108.5 66.5t138 23.5h348v-167h-360q-34 0 -63 -11.5t-50 -32.5t-33 -50t-12 -64t12 -64t33 -49.5t50 -32t63 -11.5h194v89h-211v139h377v-396h-348z" />
    <glyph glyph-name="H" unicode="H" horiz-adv-x="772" 
d="M542 0v252h-254v159h254v239h175v-650h-175zM55 0v650h175v-650h-175z" />
    <glyph glyph-name="H" unicode="&#x41d;" horiz-adv-x="772" 
d="M542 0v252h-254v159h254v239h175v-650h-175zM55 0v650h175v-650h-175z" />
    <glyph glyph-name="H" unicode="&#x397;" horiz-adv-x="772" 
d="M542 0v252h-254v159h254v239h175v-650h-175zM55 0v650h175v-650h-175z" />
    <glyph glyph-name="I" unicode="I" horiz-adv-x="285" 
d="M55 0v650h175v-650h-175z" />
    <glyph glyph-name="I" unicode="&#x4cf;" horiz-adv-x="285" 
d="M55 0v650h175v-650h-175z" />
    <glyph glyph-name="I" unicode="&#x4c0;" horiz-adv-x="285" 
d="M55 0v650h175v-650h-175z" />
    <glyph glyph-name="I" unicode="&#x406;" horiz-adv-x="285" 
d="M55 0v650h175v-650h-175z" />
    <glyph glyph-name="I" unicode="&#x399;" horiz-adv-x="285" 
d="M55 0v650h175v-650h-175z" />
    <glyph glyph-name="J" unicode="J" horiz-adv-x="646" 
d="M20 0v168h224q95 0 136 34.5t41 110.5v337h176v-354q0 -152 -80.5 -224t-254.5 -72h-242z" />
    <glyph glyph-name="J" unicode="&#x408;" horiz-adv-x="646" 
d="M20 0v168h224q95 0 136 34.5t41 110.5v337h176v-354q0 -152 -80.5 -224t-254.5 -72h-242z" />
    <glyph glyph-name="K" unicode="K" horiz-adv-x="794" 
d="M559 0l-266 273q-12 14 -18 25.5t-6 27.5v16q0 28 23 53l257 255h224l-313 -314l329 -336h-230zM55 0v650h175v-650h-175z" />
    <glyph glyph-name="K" unicode="&#x41a;" horiz-adv-x="794" 
d="M559 0l-266 273q-12 14 -18 25.5t-6 27.5v16q0 28 23 53l257 255h224l-313 -314l329 -336h-230zM55 0v650h175v-650h-175z" />
    <glyph glyph-name="K" unicode="&#x39a;" horiz-adv-x="794" 
d="M559 0l-266 273q-12 14 -18 25.5t-6 27.5v16q0 28 23 53l257 255h224l-313 -314l329 -336h-230zM55 0v650h175v-650h-175z" />
    <glyph glyph-name="L" unicode="L" horiz-adv-x="647" 
d="M55 0v650h176v-482h396v-168h-572z" />
    <glyph glyph-name="M" unicode="M" horiz-adv-x="1007" 
d="M821 0l-96 418l-113 -356q-18 -62 -82 -62h-53q-64 0 -82 62l-113 363l-96 -425h-173l132 576q8 41 30 57.5t55 16.5h73q64 0 83 -63l118 -389l117 389q19 63 82 63h73q33 0 55 -16.5t31 -57.5l133 -576h-174z" />
    <glyph glyph-name="M" unicode="&#x41c;" horiz-adv-x="1007" 
d="M821 0l-96 418l-113 -356q-18 -62 -82 -62h-53q-64 0 -82 62l-113 363l-96 -425h-173l132 576q8 41 30 57.5t55 16.5h73q64 0 83 -63l118 -389l117 389q19 63 82 63h73q33 0 55 -16.5t31 -57.5l133 -576h-174z" />
    <glyph glyph-name="M" unicode="&#x39c;" horiz-adv-x="1007" 
d="M821 0l-96 418l-113 -356q-18 -62 -82 -62h-53q-64 0 -82 62l-113 363l-96 -425h-173l132 576q8 41 30 57.5t55 16.5h73q64 0 83 -63l118 -389l117 389q19 63 82 63h73q33 0 55 -16.5t31 -57.5l133 -576h-174z" />
    <glyph glyph-name="N" unicode="N" horiz-adv-x="814" 
d="M660 0q-35 0 -55 13t-45 42l-335 362v-417h-170v576q0 74 81 74h42q20 0 35 -3t27 -9t22.5 -15t21.5 -21l307 -331v379h169v-583q0 -67 -65 -67h-35z" />
    <glyph glyph-name="N" unicode="&#x39d;" horiz-adv-x="814" 
d="M660 0q-35 0 -55 13t-45 42l-335 362v-417h-170v576q0 74 81 74h42q20 0 35 -3t27 -9t22.5 -15t21.5 -21l307 -331v379h169v-583q0 -67 -65 -67h-35z" />
    <glyph glyph-name="O" unicode="O" horiz-adv-x="849" 
d="M484 168q34 0 63 11.5t50 32t32.5 49.5t11.5 64t-11.5 64t-32.5 50t-50 32.5t-63 11.5h-118q-34 0 -63 -11.5t-50 -32.5t-33 -50t-12 -64t11.5 -64t32.5 -49.5t50 -32t64 -11.5h118zM378 0q-75 0 -138 23.5t-108.5 66t-71.5 102.5t-26 133t26 132.5t71.5 102.5
t108.5 66.5t138 23.5h94q74 0 137 -23.5t108.5 -66.5t71.5 -102.5t26 -132.5t-26 -133t-71.5 -102.5t-108.5 -66t-137 -23.5h-94z" />
    <glyph glyph-name="O" unicode="&#x41e;" horiz-adv-x="849" 
d="M484 168q34 0 63 11.5t50 32t32.5 49.5t11.5 64t-11.5 64t-32.5 50t-50 32.5t-63 11.5h-118q-34 0 -63 -11.5t-50 -32.5t-33 -50t-12 -64t11.5 -64t32.5 -49.5t50 -32t64 -11.5h118zM378 0q-75 0 -138 23.5t-108.5 66t-71.5 102.5t-26 133t26 132.5t71.5 102.5
t108.5 66.5t138 23.5h94q74 0 137 -23.5t108.5 -66.5t71.5 -102.5t26 -132.5t-26 -133t-71.5 -102.5t-108.5 -66t-137 -23.5h-94z" />
    <glyph glyph-name="O" unicode="&#x39f;" horiz-adv-x="849" 
d="M484 168q34 0 63 11.5t50 32t32.5 49.5t11.5 64t-11.5 64t-32.5 50t-50 32.5t-63 11.5h-118q-34 0 -63 -11.5t-50 -32.5t-33 -50t-12 -64t11.5 -64t32.5 -49.5t50 -32t64 -11.5h118zM378 0q-75 0 -138 23.5t-108.5 66t-71.5 102.5t-26 133t26 132.5t71.5 102.5
t108.5 66.5t138 23.5h94q74 0 137 -23.5t108.5 -66.5t71.5 -102.5t26 -132.5t-26 -133t-71.5 -102.5t-108.5 -66t-137 -23.5h-94z" />
    <glyph glyph-name="P" unicode="P" horiz-adv-x="777" 
d="M279 161v155h211q35 0 58.5 23t23.5 60q0 38 -23.5 61t-58.5 23h-261v-483h-174v650h432q57 0 104.5 -18t82 -50t53.5 -77t19 -100q0 -54 -19 -99t-53.5 -77.5t-82 -50t-104.5 -17.5h-208z" />
    <glyph glyph-name="P" unicode="&#x420;" horiz-adv-x="777" 
d="M279 161v155h211q35 0 58.5 23t23.5 60q0 38 -23.5 61t-58.5 23h-261v-483h-174v650h432q57 0 104.5 -18t82 -50t53.5 -77t19 -100q0 -54 -19 -99t-53.5 -77.5t-82 -50t-104.5 -17.5h-208z" />
    <glyph glyph-name="P" unicode="&#x3a1;" horiz-adv-x="777" 
d="M279 161v155h211q35 0 58.5 23t23.5 60q0 38 -23.5 61t-58.5 23h-261v-483h-174v650h432q57 0 104.5 -18t82 -50t53.5 -77t19 -100q0 -54 -19 -99t-53.5 -77.5t-82 -50t-104.5 -17.5h-208z" />
    <glyph glyph-name="Q" unicode="Q" horiz-adv-x="856" 
d="M659 0l-35 41q-37 -20 -77 -30.5t-79 -10.5h-90q-75 0 -138 23.5t-108.5 66t-71.5 102.5t-26 133t26 132.5t71.5 102.5t108.5 66.5t138 23.5h90q75 0 138 -24.5t108.5 -66.5t71.5 -99t26 -122q0 -62 -22 -115.5t-60 -96.5l124 -126h-195zM487 158q15 0 32 3l-137 140h195
l49 -59q8 17 13 37t5 43q0 35 -11.5 64.5t-32.5 51t-50 33.5t-63 12h-121q-34 0 -63 -12t-50 -33.5t-33 -51.5t-12 -66t12 -66t33 -51.5t50 -33t63 -11.5h121z" />
    <glyph glyph-name="R" unicode="R" horiz-adv-x="797" 
d="M563 0l-130 165h-154v152h224q36 0 59 22.5t23 60.5t-23 60.5t-59 22.5h-274v-483h-174v650h448q56 0 103 -17.5t81.5 -49.5t53.5 -77t19 -99q0 -75 -36 -131t-97 -85l164 -191h-228z" />
    <glyph glyph-name="S" unicode="S" horiz-adv-x="773" 
d="M39 0v168h486q19 0 31 11.5t12 32.5t-12 33t-31 12h-286q-45 0 -83.5 14.5t-66 40t-43 61.5t-15.5 80t15.5 80.5t43 62.5t66 40t83.5 14h494v-167h-486q-19 0 -30.5 -11t-11.5 -32q0 -20 11.5 -32t30.5 -12h286q46 0 84 -14.5t66 -40.5t43.5 -62.5t15.5 -79.5
q0 -45 -15.5 -81.5t-43.5 -63t-66 -40.5t-84 -14h-494z" />
    <glyph glyph-name="S" unicode="&#x405;" horiz-adv-x="773" 
d="M39 0v168h486q19 0 31 11.5t12 32.5t-12 33t-31 12h-286q-45 0 -83.5 14.5t-66 40t-43 61.5t-15.5 80t15.5 80.5t43 62.5t66 40t83.5 14h494v-167h-486q-19 0 -30.5 -11t-11.5 -32q0 -20 11.5 -32t30.5 -12h286q46 0 84 -14.5t66 -40.5t43.5 -62.5t15.5 -79.5
q0 -45 -15.5 -81.5t-43.5 -63t-66 -40.5t-84 -14h-494z" />
    <glyph glyph-name="T" unicode="T" horiz-adv-x="693" 
d="M259 0v483h-239v167h653v-167h-239v-483h-175z" />
    <glyph glyph-name="T" unicode="&#x422;" horiz-adv-x="693" 
d="M259 0v483h-239v167h653v-167h-239v-483h-175z" />
    <glyph glyph-name="T" unicode="&#x3a4;" horiz-adv-x="693" 
d="M259 0v483h-239v167h653v-167h-239v-483h-175z" />
    <glyph glyph-name="U" unicode="U" horiz-adv-x="836" 
d="M346 0q-65 0 -119 20.5t-94 57.5t-62 88.5t-22 113.5v370h176v-357q0 -57 35 -91t89 -34h138q54 0 89 34t35 91v357h176v-370q0 -62 -22 -113.5t-62 -88.5t-94.5 -57.5t-118.5 -20.5h-144z" />
    <glyph glyph-name="V" unicode="V" horiz-adv-x="881" 
d="M421 0q-53 0 -78 48l-332 602h197l233 -440l233 440h197l-333 -602q-26 -48 -77 -48h-40z" />
    <glyph glyph-name="W" unicode="W" horiz-adv-x="1007" 
d="M703 0q-30 0 -51 15.5t-31 47.5l-117 389l-118 -389q-19 -63 -83 -63h-73q-32 0 -54.5 16.5t-30.5 57.5l-132 576h173l96 -418l113 356q19 62 82 62h53q64 0 82 -62l113 -363l96 425h174l-133 -576q-9 -41 -30.5 -57.5t-55.5 -16.5h-73z" />
    <glyph glyph-name="X" unicode="X" horiz-adv-x="820" 
d="M593 0l-192 224l-187 -224h-208l285 339l-262 311h221l165 -197l166 197h208l-263 -312l288 -338h-221z" />
    <glyph glyph-name="X" unicode="&#x425;" horiz-adv-x="820" 
d="M593 0l-192 224l-187 -224h-208l285 339l-262 311h221l165 -197l166 197h208l-263 -312l288 -338h-221z" />
    <glyph glyph-name="X" unicode="&#x3a7;" horiz-adv-x="820" 
d="M593 0l-192 224l-187 -224h-208l285 339l-262 311h221l165 -197l166 197h208l-263 -312l288 -338h-221z" />
    <glyph glyph-name="Y" unicode="Y" horiz-adv-x="774" 
d="M300 0v229l-298 421h205l184 -259l185 259h196l-297 -421v-229h-175z" />
    <glyph glyph-name="Y" unicode="&#x4ae;" horiz-adv-x="774" 
d="M300 0v229l-298 421h205l184 -259l185 259h196l-297 -421v-229h-175z" />
    <glyph glyph-name="Y" unicode="&#x3a5;" horiz-adv-x="774" 
d="M300 0v229l-298 421h205l184 -259l185 259h196l-297 -421v-229h-175z" />
    <glyph glyph-name="Z" unicode="Z" horiz-adv-x="731" 
d="M117 0q-75 0 -75 71v40q0 30 9.5 50t39.5 44l321 282h-370v163h579q67 0 67 -57v-33q0 -26 -11 -43t-34 -36l-363 -317h408v-164h-571z" />
    <glyph glyph-name="Z" unicode="&#x396;" horiz-adv-x="731" 
d="M117 0q-75 0 -75 71v40q0 30 9.5 50t39.5 44l321 282h-370v163h579q67 0 67 -57v-33q0 -26 -11 -43t-34 -36l-363 -317h408v-164h-571z" />
    <glyph glyph-name="bracketleft" unicode="[" horiz-adv-x="378" 
d="M77 -174v999h280v-127h-154v-745h154v-127h-280z" />
    <glyph glyph-name="backslash" unicode="\" horiz-adv-x="399" 
d="M264 -85l-264 821h135l264 -821h-135z" />
    <glyph glyph-name="bracketright" unicode="]" horiz-adv-x="378" 
d="M300 825v-999h-279v127h153v745h-153v127h279z" />
    <glyph glyph-name="asciicircum" unicode="^" 
d="M524 142l-152 328l-153 -328h-145l226 470q18 38 54 38h36q36 0 54 -38l225 -470h-145z" />
    <glyph glyph-name="underscore" unicode="_" horiz-adv-x="512" 
d="M0 -165v126h514v-126h-514z" />
    <glyph glyph-name="grave" unicode="`" horiz-adv-x="346" 
d="M158 539l-114 237h154l103 -237h-143z" />
    <glyph glyph-name="a" unicode="a" horiz-adv-x="642" 
d="M194 0q-79 0 -118 41t-39 106q0 66 39 107t118 41h186v-97h-148q-37 0 -37 -35t35 -35h199v144q0 85 -87 85h-278v142h280q125 0 187 -61.5t62 -176.5v-261h-399z" />
    <glyph glyph-name="a" unicode="&#x430;" horiz-adv-x="642" 
d="M194 0q-79 0 -118 41t-39 106q0 66 39 107t118 41h186v-97h-148q-37 0 -37 -35t35 -35h199v144q0 85 -87 85h-278v142h280q125 0 187 -61.5t62 -176.5v-261h-399z" />
    <glyph glyph-name="b" unicode="b" horiz-adv-x="679" 
d="M294 0q-125 0 -187.5 61.5t-62.5 176.5v463h167v-463q0 -86 87 -86h84q45 0 73.5 24.5t28.5 78.5q0 55 -31.5 76.5t-89.5 21.5q-23 0 -50 -4t-53 -10v151q26 7 57.5 10.5t63.5 3.5q134 0 202 -66t68 -178q0 -62 -20 -110.5t-56 -81.5t-85.5 -50.5t-107.5 -17.5h-88z" />
    <glyph glyph-name="c" unicode="c" horiz-adv-x="559" 
d="M297 0q-58 0 -107 18t-85 51t-56 79t-20 102q0 55 20 101t56 79t85 51t107 18h225v-152h-226q-45 0 -73 -26.5t-28 -70.5t28 -71t73 -27h226v-152h-225z" />
    <glyph glyph-name="c" unicode="&#x441;" horiz-adv-x="559" 
d="M297 0q-58 0 -107 18t-85 51t-56 79t-20 102q0 55 20 101t56 79t85 51t107 18h225v-152h-226q-45 0 -73 -26.5t-28 -70.5t28 -71t73 -27h226v-152h-225z" />
    <glyph glyph-name="d" unicode="d" horiz-adv-x="679" 
d="M297 0q-58 0 -107 17.5t-85 50.5t-56 81.5t-20 110.5q0 112 67.5 178t201.5 66q32 0 63.5 -3.5t57.5 -10.5v-151q-26 6 -53 10t-50 4q-57 0 -88.5 -21.5t-31.5 -76.5q0 -52 28 -77.5t73 -25.5h84q87 0 87 86v463h167v-463q0 -115 -62.5 -176.5t-187.5 -61.5h-88z" />
    <glyph glyph-name="e" unicode="e" horiz-adv-x="624" 
d="M297 0q-58 0 -107 18t-85 51t-56 79t-20 102q0 55 20 101t56 79t85 51t107 18h127q43 0 75 -12t53.5 -33t32 -50.5t10.5 -64.5q0 -66 -38 -99t-125 -33h-178v91h143q39 0 39 35q0 37 -38 37h-102q-45 0 -73 -31t-28 -88t28 -85.5t73 -28.5h272v-137h-271z" />
    <glyph glyph-name="e" unicode="&#x435;" horiz-adv-x="624" 
d="M297 0q-58 0 -107 18t-85 51t-56 79t-20 102q0 55 20 101t56 79t85 51t107 18h127q43 0 75 -12t53.5 -33t32 -50.5t10.5 -64.5q0 -66 -38 -99t-125 -33h-178v91h143q39 0 39 35q0 37 -38 37h-102q-45 0 -73 -31t-28 -88t28 -85.5t73 -28.5h272v-137h-271z" />
    <glyph glyph-name="f" unicode="f" horiz-adv-x="436" 
d="M49 0v517q0 88 46 135.5t136 47.5h188v-132h-144q-30 0 -45 -16t-15 -53h207v-138h-207v-361h-166z" />
    <glyph glyph-name="g" unicode="g" horiz-adv-x="679" 
d="M244 -174v152h126q55 0 76.5 23.5t21.5 71.5v202q0 71 -85 71h-85q-45 0 -73.5 -19.5t-28.5 -63.5q0 -45 31 -62t88 -17q23 0 50 2t54 7v-136q-28 -7 -60 -11t-65 -4q-130 0 -197.5 60.5t-67.5 162.5q0 56 20.5 99.5t57 73.5t88 45.5t114.5 15.5h91q112 0 173.5 -61.5
t61.5 -176.5v-189q0 -125 -63 -185.5t-203 -60.5h-125z" />
    <glyph glyph-name="h" unicode="h" horiz-adv-x="681" 
d="M471 0v262q0 85 -87 85h-167v-347h-168v701h168v-202h171q124 0 187 -62t63 -176v-261h-167z" />
    <glyph glyph-name="h" unicode="&#x4bb;" horiz-adv-x="681" 
d="M471 0v262q0 85 -87 85h-167v-347h-168v701h168v-202h171q124 0 187 -62t63 -176v-261h-167z" />
    <glyph glyph-name="i" unicode="i" horiz-adv-x="266" 
d="M46 0zM49 0v499h167v-499h-167zM122 548q-33 0 -54.5 19.5t-21.5 53.5q0 32 21.5 51.5t54.5 19.5h23q33 0 54 -19.5t21 -51.5q0 -34 -21 -53.5t-54 -19.5h-23z" />
    <glyph glyph-name="i" unicode="&#x456;" horiz-adv-x="266" 
d="M46 0zM49 0v499h167v-499h-167zM122 548q-33 0 -54.5 19.5t-21.5 53.5q0 32 21.5 51.5t54.5 19.5h23q33 0 54 -19.5t21 -51.5q0 -34 -21 -53.5t-54 -19.5h-23z" />
    <glyph glyph-name="j" unicode="j" horiz-adv-x="331" 
d="M0 0zM0 -174v144h54q60 0 60 60v469h167v-490q0 -87 -46 -135t-136 -48h-99zM187 548q-33 0 -54.5 19.5t-21.5 53.5q0 32 21.5 51.5t54.5 19.5h23q33 0 54 -19.5t21 -51.5q0 -34 -21 -53.5t-54 -19.5h-23z" />
    <glyph glyph-name="j" unicode="&#x458;" horiz-adv-x="331" 
d="M0 0zM0 -174v144h54q60 0 60 60v469h167v-490q0 -87 -46 -135t-136 -48h-99zM187 548q-33 0 -54.5 19.5t-21.5 53.5q0 32 21.5 51.5t54.5 19.5h23q33 0 54 -19.5t21 -51.5q0 -34 -21 -53.5t-54 -19.5h-23z" />
    <glyph glyph-name="k" unicode="k" horiz-adv-x="633" 
d="M435 0l-171 209q-8 11 -12 20.5t-4 20.5v12q0 22 15 42l166 195h188l-200 -242l210 -257h-192zM49 0v701h167v-701h-167z" />
    <glyph glyph-name="l" unicode="l" horiz-adv-x="266" 
d="M49 0v701h167v-701h-167z" />
    <glyph glyph-name="m" unicode="m" horiz-adv-x="924" 
d="M713 0v262q0 85 -86 85h-80v-347h-166v347h-164v-347h-168v499h582q124 0 186 -62t62 -176v-261h-166z" />
    <glyph glyph-name="n" unicode="n" horiz-adv-x="681" 
d="M471 0v262q0 85 -87 85h-167v-347h-168v499h339q124 0 187 -62t63 -176v-261h-167z" />
    <glyph glyph-name="o" unicode="o" horiz-adv-x="664" 
d="M367 152q44 0 72.5 27t28.5 71t-28.5 70.5t-72.5 26.5h-71q-45 0 -73 -26.5t-28 -70.5t28 -71t73 -27h71zM297 0q-58 0 -107 18t-85 51t-56 79t-20 102q0 55 20 101t56 79t85 51t107 18h70q58 0 107 -18t85 -51t56 -79t20 -101q0 -56 -20 -102t-56 -79t-85 -51t-107 -18
h-70z" />
    <glyph glyph-name="o" unicode="&#x43e;" horiz-adv-x="664" 
d="M367 152q44 0 72.5 27t28.5 71t-28.5 70.5t-72.5 26.5h-71q-45 0 -73 -26.5t-28 -70.5t28 -71t73 -27h71zM297 0q-58 0 -107 18t-85 51t-56 79t-20 102q0 55 20 101t56 79t85 51t107 18h70q58 0 107 -18t85 -51t56 -79t20 -101q0 -56 -20 -102t-56 -79t-85 -51t-107 -18
h-70z" />
    <glyph glyph-name="o" unicode="&#x3bf;" horiz-adv-x="664" 
d="M367 152q44 0 72.5 27t28.5 71t-28.5 70.5t-72.5 26.5h-71q-45 0 -73 -26.5t-28 -70.5t28 -71t73 -27h71zM297 0q-58 0 -107 18t-85 51t-56 79t-20 102q0 55 20 101t56 79t85 51t107 18h70q58 0 107 -18t85 -51t56 -79t20 -101q0 -56 -20 -102t-56 -79t-85 -51t-107 -18
h-70z" />
    <glyph glyph-name="p" unicode="p" horiz-adv-x="679" 
d="M44 -174v435q0 115 62.5 176.5t187.5 61.5h88q58 0 107.5 -17.5t85.5 -50.5t56 -81.5t20 -110.5q0 -112 -68 -178t-202 -66q-32 0 -63.5 3.5t-57.5 10.5v151q26 -7 53 -10.5t50 -3.5q58 0 89.5 21.5t31.5 76.5q0 54 -28.5 78t-73.5 24h-84q-87 0 -87 -85v-435h-167z" />
    <glyph glyph-name="p" unicode="&#x440;" horiz-adv-x="679" 
d="M44 -174v435q0 115 62.5 176.5t187.5 61.5h88q58 0 107.5 -17.5t85.5 -50.5t56 -81.5t20 -110.5q0 -112 -68 -178t-202 -66q-32 0 -63.5 3.5t-57.5 10.5v151q26 -7 53 -10.5t50 -3.5q58 0 89.5 21.5t31.5 76.5q0 54 -28.5 78t-73.5 24h-84q-87 0 -87 -85v-435h-167z" />
    <glyph glyph-name="p" unicode="&#x3c1;" horiz-adv-x="679" 
d="M44 -174v435q0 115 62.5 176.5t187.5 61.5h88q58 0 107.5 -17.5t85.5 -50.5t56 -81.5t20 -110.5q0 -112 -68 -178t-202 -66q-32 0 -63.5 3.5t-57.5 10.5v151q26 -7 53 -10.5t50 -3.5q58 0 89.5 21.5t31.5 76.5q0 54 -28.5 78t-73.5 24h-84q-87 0 -87 -85v-435h-167z" />
    <glyph glyph-name="q" unicode="q" horiz-adv-x="679" 
d="M468 -174v435q0 85 -87 85h-84q-45 0 -73 -24t-28 -78q0 -56 31.5 -77t88.5 -21q28 0 51.5 3.5t44.5 10.5v-151q-25 -7 -54.5 -10.5t-59.5 -3.5q-134 0 -201.5 66t-67.5 177q0 63 20 111.5t56 81.5t85 50.5t107 17.5h88q124 0 187 -62t63 -176v-435h-167z" />
    <glyph glyph-name="r" unicode="r" horiz-adv-x="448" 
d="M44 0v261q0 114 63 176t186 62h140v-152h-136q-86 0 -86 -85v-262h-167z" />
    <glyph glyph-name="s" unicode="s" horiz-adv-x="599" 
d="M29 0v137h352q35 0 35 32q0 31 -35 31h-196q-38 0 -68 11.5t-51 31.5t-32 47.5t-11 59.5q0 34 12 61.5t34 47t51 30t64 10.5h367v-137h-336q-34 0 -34 -31t34 -31h200q77 0 119 -42t42 -107q0 -35 -12 -62.5t-33.5 -47.5t-51 -30.5t-64.5 -10.5h-386z" />
    <glyph glyph-name="s" unicode="&#x455;" horiz-adv-x="599" 
d="M29 0v137h352q35 0 35 32q0 31 -35 31h-196q-38 0 -68 11.5t-51 31.5t-32 47.5t-11 59.5q0 34 12 61.5t34 47t51 30t64 10.5h367v-137h-336q-34 0 -34 -31t34 -31h200q77 0 119 -42t42 -107q0 -35 -12 -62.5t-33.5 -47.5t-51 -30.5t-64.5 -10.5h-386z" />
    <glyph glyph-name="t" unicode="t" horiz-adv-x="447" 
d="M226 0q-91 0 -136.5 47.5t-45.5 135.5v458h166v-142h200v-138h-200v-165q0 -59 59 -59h136v-137h-179z" />
    <glyph glyph-name="u" unicode="u" horiz-adv-x="684" 
d="M294 0q-125 0 -187.5 61.5t-62.5 176.5v261h167v-261q0 -86 87 -86h88q87 0 87 86v261h167v-261q0 -115 -62.5 -176.5t-187.5 -61.5h-96z" />
    <glyph glyph-name="u" unicode="&#x3c5;" horiz-adv-x="684" 
d="M294 0q-125 0 -187.5 61.5t-62.5 176.5v261h167v-261q0 -86 87 -86h88q87 0 87 86v261h167v-261q0 -115 -62.5 -176.5t-187.5 -61.5h-96z" />
    <glyph glyph-name="v" unicode="v" horiz-adv-x="658" 
d="M300 0q-37 0 -57 37l-234 462h170l150 -309l149 309h171l-236 -462q-19 -37 -55 -37h-58z" />
    <glyph glyph-name="v" unicode="&#x3bd;" horiz-adv-x="658" 
d="M300 0q-37 0 -57 37l-234 462h170l150 -309l149 309h171l-236 -462q-19 -37 -55 -37h-58z" />
    <glyph glyph-name="w" unicode="w" horiz-adv-x="887" 
d="M617 0q-28 0 -47 12t-27 37l-98 292l-101 -292q-16 -49 -74 -49h-67q-29 0 -48.5 13t-27.5 45l-116 441h159l79 -320l94 271q16 49 74 49h54q57 0 72 -49l96 -277l77 326h160l-117 -441q-8 -32 -27 -45t-48 -13h-67z" />
    <glyph glyph-name="x" unicode="x" horiz-adv-x="659" 
d="M454 0l-131 151l-126 -151h-191l222 260l-205 239h198l112 -130l112 130h189l-206 -239l226 -260h-200z" />
    <glyph glyph-name="x" unicode="&#x445;" horiz-adv-x="659" 
d="M454 0l-131 151l-126 -151h-191l222 260l-205 239h198l112 -130l112 130h189l-206 -239l226 -260h-200z" />
    <glyph glyph-name="y" unicode="y" horiz-adv-x="657" 
d="M117 -174v144h53q32 0 50 13t29 32l-240 484h169l148 -320l152 320h170l-277 -548q-16 -32 -33.5 -55.5t-39.5 -39t-49.5 -23t-63.5 -7.5h-68z" />
    <glyph glyph-name="y" unicode="&#x443;" horiz-adv-x="657" 
d="M117 -174v144h53q32 0 50 13t29 32l-240 484h169l148 -320l152 320h170l-277 -548q-16 -32 -33.5 -55.5t-39.5 -39t-49.5 -23t-63.5 -7.5h-68z" />
    <glyph glyph-name="z" unicode="z" horiz-adv-x="599" 
d="M95 0q-61 0 -61 55v37q0 24 7 40t33 35l236 188h-276v144h475q55 0 55 -45v-32q0 -19 -6 -32.5t-25 -27.5l-269 -216h300v-146h-469z" />
    <glyph glyph-name="braceleft" unicode="{" horiz-adv-x="378" 
d="M284 -174q-165 0 -165 159v226q0 45 -40 45h-47v139h47q40 0 40 45v226q0 159 165 159h73v-127h-77q-34 0 -34 -32v-249q0 -38 -13 -58.5t-39 -31.5q52 -28 52 -91v-251q0 -32 34 -32h77v-127h-73z" />
    <glyph glyph-name="bar" unicode="|" horiz-adv-x="300" 
d="M87 -174v999h126v-999h-126z" />
    <glyph glyph-name="braceright" unicode="}" horiz-adv-x="378" 
d="M94 825q164 0 164 -159v-226q0 -45 41 -45h46v-139h-46q-41 0 -41 -45v-226q0 -159 -164 -159h-73v127h76q35 0 35 32v249q0 38 12.5 58.5t38.5 31.5q-51 28 -51 91v251q0 32 -35 32h-76v127h73z" />
    <glyph glyph-name="asciitilde" unicode="~" 
d="M630 286q-12 -17 -28 -28t-33 -18t-34 -9.5t-32 -2.5q-36 0 -68 12.5t-62.5 27t-60.5 27t-63 12.5q-23 0 -43 -6.5t-37.5 -16.5t-31 -22.5t-23.5 -24.5v136q26 31 60 46t69 15q36 0 67.5 -12.5t62 -27.5t61 -27.5t63.5 -12.5q42 0 77 21t56 50v-139z" />
    <glyph glyph-name="nonbreakingspace" unicode="&#xa0;" horiz-adv-x="269" 
 />
    <glyph glyph-name="exclamdown" unicode="&#xa1;" horiz-adv-x="314" 
d="M243 278v-452h-174v452h174zM168 499q36 0 59 -21t23 -56t-23 -55.5t-59 -20.5h-22q-36 0 -59 20.5t-23 55.5t23 56t59 21h22z" />
    <glyph glyph-name="cent" unicode="&#xa2;" horiz-adv-x="641" 
d="M321 0v88q-64 0 -117 19t-90.5 53t-58.5 82t-21 106t21 105.5t58.5 82t90.5 53.5t117 19v93h104v-93h173v-134h-173v-252h173v-134h-173v-88h-104zM174 349q0 -57 38 -92t109 -35v252q-71 0 -109 -34.5t-38 -90.5z" />
    <glyph glyph-name="sterling" unicode="&#xa3;" horiz-adv-x="693" 
d="M34 0v168h88v111h-88v104h88v57q0 47 16.5 85.5t45.5 66.5t70 43t89 15h184v-168h-153q-34 0 -56 -21t-22 -56v-22h252v-104h-252v-111h364v-168h-626z" />
    <glyph glyph-name="currency" unicode="&#xa4;" 
d="M344 105q-49 0 -89 15l-90 -91l-89 90l73 79q-42 54 -42 132q0 77 42 131l-74 79l90 90l92 -94q38 16 87 16h62q44 0 83 -14l90 91l90 -89l-73 -74q22 -26 34 -61t12 -75q0 -41 -12 -76t-34 -62l73 -73l-90 -90l-90 90q-20 -8 -40 -11t-43 -3h-62zM387 242q22 0 41.5 4.5
t34 15t23 27t8.5 41.5q0 24 -8.5 41t-23 27.5t-34 15t-41.5 4.5h-26q-45 0 -75.5 -20t-30.5 -68q0 -41 24.5 -64.5t62.5 -23.5h45z" />
    <glyph glyph-name="yen" unicode="&#xa5;" horiz-adv-x="787" 
d="M465 56v-56h-135v56h-176v98h176v60h-176v99h118l-217 337h173l171 -287l163 287h170l-210 -337h123v-99h-180v-60h180v-98h-180z" />
    <glyph glyph-name="brokenbar" unicode="&#xa6;" horiz-adv-x="300" 
d="M87 -174v409h126v-409h-126zM87 416v409h126v-409h-126z" />
    <glyph glyph-name="section" unicode="&#xa7;" horiz-adv-x="718" 
d="M128 -180v139h344q23 0 37.5 13.5t14.5 40.5q0 28 -14.5 42.5t-37.5 14.5h-214q-87 0 -128.5 39.5t-41.5 105.5q0 35 9.5 64.5t29.5 49.5q-34 23 -53 59t-19 84q0 38 12.5 70.5t37 56.5t60 37.5t81.5 13.5h347v-138h-347q-23 0 -37.5 -14t-14.5 -41q0 -28 14.5 -42.5
t37.5 -14.5h214q86 0 128 -39.5t42 -105.5q0 -35 -10 -64.5t-30 -49.5q35 -23 54 -59t19 -84q0 -38 -12.5 -70.5t-37 -56.5t-60 -37.5t-81.5 -13.5h-344zM275 295q-29 0 -45 -15.5t-16 -43.5t17.5 -44.5t48.5 -16.5h163q28 0 44 16t16 43q0 29 -17.5 45t-47.5 16h-163z" />
    <glyph glyph-name="dieresis" unicode="&#xa8;" horiz-adv-x="461" 
d="M115 548q-34 0 -55 20t-21 53q0 32 21 51.5t55 19.5h15q33 0 54.5 -19.5t21.5 -51.5q0 -33 -21.5 -53t-54.5 -20h-15zM331 548q-34 0 -55.5 20t-21.5 53q0 32 21.5 51.5t55.5 19.5h14q34 0 55.5 -19.5t21.5 -51.5q0 -33 -21.5 -53t-55.5 -20h-14z" />
    <glyph glyph-name="copyright" unicode="&#xa9;" 
d="M711 325q0 -72 -25.5 -133t-70.5 -105t-107.5 -69t-135.5 -25q-74 0 -136 25t-107 69t-70 105t-25 133t25 133t70 105t107 69t136 25q73 0 135.5 -25t107.5 -69t70.5 -105t25.5 -133zM643 325q0 57 -20.5 105.5t-56.5 83.5t-85.5 55t-108.5 20t-108.5 -20t-85.5 -55
t-56 -83.5t-20 -105.5t20 -105.5t56 -83.5t85.5 -55t108.5 -20t108.5 20t85.5 55t56.5 83.5t20.5 105.5zM355 201q-29 0 -53 9t-41.5 25.5t-27.5 39t-10 50.5t10 51t27.5 39.5t41.5 25.5t53 9h122v-66h-126q-26 0 -42.5 -16t-16.5 -43q0 -26 16.5 -42t42.5 -16h126v-66h-122
z" />
    <glyph glyph-name="ordfeminine" unicode="&#xaa;" horiz-adv-x="369" 
d="M120 364q-47 0 -69 24.5t-22 62.5q0 39 22 62t69 23h92v-53h-66q-23 0 -23 -22t22 -22h103v100q0 36 -35 36h-170v75h166q131 0 131 -122v-164h-220zM32 234v76h308v-76h-308z" />
    <glyph glyph-name="guillemotleft" unicode="&#xab;" horiz-adv-x="489" 
d="M29 0zM110 0l-81 249l81 250h135l-82 -250l82 -249h-135zM326 0l-81 249l81 250h135l-82 -250l82 -249h-135z" />
    <glyph glyph-name="logicalnot" unicode="&#xac;" 
d="M503 0v387h-394v127h521v-514h-127z" />
    <glyph glyph-name="registered" unicode="&#xae;" 
d="M711 325q0 -72 -25.5 -133t-70.5 -105t-107.5 -69t-135.5 -25q-74 0 -136 25t-107 69t-70 105t-25 133t25 133t70 105t107 69t136 25q73 0 135.5 -25t107.5 -69t70.5 -105t25.5 -133zM643 325q0 57 -20.5 105.5t-56.5 83.5t-85.5 55t-108.5 20t-108.5 -20t-85.5 -55
t-56 -83.5t-20 -105.5t20 -105.5t56 -83.5t85.5 -55t108.5 -20t108.5 20t85.5 55t56.5 83.5t20.5 105.5zM430 201l-50 63h-44v60h73q14 0 22 8t8 22t-8 22t-22 8h-103v-183h-69v249h172q43 0 71 -25.5t28 -67.5q0 -29 -14 -50.5t-38 -32.5l63 -73h-89z" />
    <glyph glyph-name="macron" unicode="&#xaf;" horiz-adv-x="500" 
d="M37 569v120h426v-120h-426z" />
    <glyph glyph-name="degree" unicode="&#xb0;" horiz-adv-x="415" 
d="M229 490q25 0 42 16t17 43t-17 43.5t-42 16.5h-44q-26 0 -42.5 -16.5t-16.5 -43.5t16.5 -43t42.5 -16h44zM186 396q-35 0 -64 11t-51 31.5t-34 48.5t-12 62t12 62t34 48t51 31t64 11h43q34 0 63.5 -11t51 -31t33.5 -48t12 -62t-12 -62t-33.5 -48.5t-51 -31.5t-63.5 -11
h-43z" />
    <glyph glyph-name="plusminus" unicode="&#xb1;" 
d="M114 0zM309 148v198h-195v127h195v197h127v-197h194v-127h-194v-198h-127zM114 -35v127h516v-127h-516z" />
    <glyph glyph-name="twosuperior" unicode="&#xb2;" horiz-adv-x="441" 
d="M38 287zM38 287v111q0 106 122 106h110q22 0 22 23q0 24 -22 24h-215v99h223q53 0 87 -27t34 -85q0 -29 -9 -49t-25 -32.5t-38.5 -18t-48.5 -5.5h-112q-22 0 -22 -23v-24h249v-99h-355z" />
    <glyph glyph-name="threesuperior" unicode="&#xb3;" horiz-adv-x="441" 
d="M28 287zM28 287v99h251q26 0 26 23q0 26 -26 26h-247v70h242q24 0 24 24q0 22 -24 22h-246v99h262q59 0 84.5 -28.5t25.5 -70.5q0 -23 -9 -42.5t-24 -30.5q20 -8 31.5 -29.5t11.5 -53.5q0 -50 -31.5 -79t-91.5 -29h-259z" />
    <glyph glyph-name="acute" unicode="&#xb4;" horiz-adv-x="346" 
d="M44 539l103 237h154l-114 -237h-143z" />
    <glyph glyph-name="paragraph" unicode="&#xb6;" horiz-adv-x="573" 
d="M427 -174v733h-102v-733h-90v535h-58q-71 0 -110 40.5t-39 104.5q0 66 39 105t110 39h341v-824h-91z" />
    <glyph glyph-name="periodcentered" unicode="&#xb7;" horiz-adv-x="260" 
d="M37 243zM119 243q-36 0 -59 21t-23 56t23 55.5t59 20.5h23q35 0 58.5 -20.5t23.5 -55.5t-23.5 -56t-58.5 -21h-23z" />
    <glyph glyph-name="cedilla" unicode="&#xb8;" horiz-adv-x="283" 
d="M45 -273l38 237h154l-75 -237h-117z" />
    <glyph glyph-name="onesuperior" unicode="&#xb9;" horiz-adv-x="252" 
d="M22 287zM106 287v227q0 16 -9 24.5t-24 8.5h-51v103h67q54 0 88.5 -32t34.5 -84v-247h-106z" />
    <glyph glyph-name="ordmasculine" unicode="&#xba;" horiz-adv-x="396" 
d="M218 458q20 0 34 13.5t14 36.5t-14 36t-34 13h-38q-23 0 -36.5 -13t-13.5 -36t13.5 -36.5t36.5 -13.5h38zM180 364q-33 0 -60.5 10.5t-47.5 29t-31.5 45t-11.5 58.5t11.5 58.5t31.5 45t47.5 29t60.5 10.5h38q32 0 59.5 -10.5t47.5 -29t31.5 -45t11.5 -58.5t-11.5 -58.5
t-31.5 -45t-47.5 -29t-59.5 -10.5h-38zM35 254v76h327v-76h-327z" />
    <glyph glyph-name="guillemotright" unicode="&#xbb;" horiz-adv-x="489" 
d="M29 0zM29 0l81 249l-81 250h134l82 -250l-82 -249h-134zM245 0l81 249l-81 250h134l82 -250l-82 -249h-134z" />
    <glyph glyph-name="onequarter" unicode="&#xbc;" horiz-adv-x="869" 
d="M34 0zM118 287v227q0 16 -9 24.5t-24 8.5h-51v103h67q54 0 88.5 -32t34.5 -84v-247h-106zM62 0l426 650h135l-424 -650h-137zM691 0v86h-111q-27 0 -50 8.5t-40 24.5t-26.5 37.5t-9.5 48.5v158h106v-144q0 -17 10 -26.5t25 -9.5h96v180h106v-180h38v-97h-38v-86h-106z
" />
    <glyph glyph-name="onehalf" unicode="&#xbd;" horiz-adv-x="853" 
d="M34 0zM118 287v227q0 16 -9 24.5t-24 8.5h-51v103h67q54 0 88.5 -32t34.5 -84v-247h-106zM62 0l426 650h135l-424 -650h-137zM458 0v111q0 106 122 106h110q22 0 22 23q0 24 -22 24h-215v99h223q53 0 87 -27t34 -85q0 -29 -9 -49t-25 -32.5t-38.5 -18t-48.5 -5.5h-112
q-22 0 -22 -23v-24h249v-99h-355z" />
    <glyph glyph-name="threequarters" unicode="&#xbe;" horiz-adv-x="1021" 
d="M34 0zM34 287v99h251q26 0 26 23q0 26 -26 26h-247v70h242q24 0 24 24q0 22 -24 22h-246v99h262q59 0 84.5 -28.5t25.5 -70.5q0 -23 -9 -42.5t-24 -30.5q20 -8 31.5 -29.5t11.5 -53.5q0 -50 -31.5 -79t-91.5 -29h-259zM215 0l426 650h135l-424 -650h-137zM844 0v86h-111
q-27 0 -50 8.5t-40 24.5t-26.5 37.5t-9.5 48.5v158h106v-144q0 -17 10 -26.5t25 -9.5h96v180h106v-180h38v-97h-38v-86h-106z" />
    <glyph glyph-name="questiondown" unicode="&#xbf;" horiz-adv-x="633" 
d="M309 221q31 0 31 32v25h175v-32q0 -37 -13 -67.5t-36.5 -52t-56 -33.5t-71.5 -12h-91q-19 0 -30.5 -12t-11.5 -32q0 -21 11.5 -32.5t30.5 -11.5h366v-167h-373q-46 0 -84.5 14.5t-66.5 40.5t-43.5 62t-15.5 80t15.5 80.5t43.5 62.5t66.5 40.5t84.5 14.5h69zM440 499
q35 0 58 -21t23 -56t-23 -55.5t-58 -20.5h-24q-35 0 -58 20.5t-23 55.5t23 56t58 21h24z" />
    <glyph glyph-name="Agrave" unicode="&#xc0;" horiz-adv-x="881" 
d="M11 0zM681 0l-54 100h-305l74 139h157l-111 209l-238 -448h-193l332 602q27 48 78 48h40q51 0 78 -48l332 -602h-190zM396 690l-114 237h154l103 -237h-143z" />
    <glyph glyph-name="Aacute" unicode="&#xc1;" horiz-adv-x="881" 
d="M11 0zM681 0l-54 100h-305l74 139h157l-111 209l-238 -448h-193l332 602q27 48 78 48h40q51 0 78 -48l332 -602h-190zM342 690l103 237h154l-114 -237h-143z" />
    <glyph glyph-name="Acircumflex" unicode="&#xc2;" horiz-adv-x="881" 
d="M11 0zM681 0l-54 100h-305l74 139h157l-111 209l-238 -448h-193l332 602q27 48 78 48h40q51 0 78 -48l332 -602h-190zM509 690l-67 146l-66 -146h-143l114 237h187l114 -237h-139z" />
    <glyph glyph-name="Atilde" unicode="&#xc3;" horiz-adv-x="881" 
d="M11 0zM681 0l-54 100h-305l74 139h157l-111 209l-238 -448h-193l332 602q27 48 78 48h40q51 0 78 -48l332 -602h-190zM653 746q-20 -27 -50 -37t-55 -10q-29 0 -55.5 10t-51.5 21.5t-50.5 21.5t-52.5 10q-35 0 -64 -18t-47 -38v123q20 24 48.5 35.5t57.5 11.5t55.5 -10
t51.5 -21.5t50.5 -21.5t52.5 -10q34 0 62 16.5t48 39.5v-123z" />
    <glyph glyph-name="Adieresis" unicode="&#xc4;" horiz-adv-x="881" 
d="M11 0zM681 0l-54 100h-305l74 139h157l-111 209l-238 -448h-193l332 602q27 48 78 48h40q51 0 78 -48l332 -602h-190zM325 699q-34 0 -55 20t-21 53q0 32 21 51.5t55 19.5h15q33 0 54.5 -19.5t21.5 -51.5q0 -33 -21.5 -53t-54.5 -20h-15zM541 699q-34 0 -55.5 20
t-21.5 53q0 32 21.5 51.5t55.5 19.5h14q34 0 55.5 -19.5t21.5 -51.5q0 -33 -21.5 -53t-55.5 -20h-14z" />
    <glyph glyph-name="Aring" unicode="&#xc5;" horiz-adv-x="881" 
d="M11 0zM681 0l-54 100h-305l74 139h157l-111 209l-238 -448h-193l332 602q27 48 78 48h40q51 0 78 -48l332 -602h-190zM463 744q22 0 36.5 14.5t14.5 37.5t-14.5 37.5t-36.5 14.5h-38q-22 0 -36.5 -14.5t-14.5 -37.5t14.5 -37.5t36.5 -14.5h38zM425 663q-30 0 -55 10
t-44 27.5t-29.5 42t-10.5 53.5t10.5 53t29.5 41.5t44 27t55 9.5h38q30 0 55.5 -9.5t44 -27t29 -41.5t10.5 -53t-10.5 -53.5t-29 -42t-44 -27.5t-55.5 -10h-38z" />
    <glyph glyph-name="AE" unicode="&#xc6;" horiz-adv-x="1190" 
d="M555 0v100h-233l74 139h159v244h-95l-256 -483h-193l332 602q27 48 78 48h722v-167h-421v-315h423v-168h-590zM780 257v139h357v-139h-357z" />
    <glyph glyph-name="Ccedilla" unicode="&#xc7;" horiz-adv-x="739" 
d="M34 0zM378 0q-75 0 -138 23.5t-108.5 66t-71.5 102.5t-26 133t26 132.5t71.5 102.5t108.5 66.5t138 23.5h318v-167h-330q-34 0 -63 -11.5t-50 -32.5t-33 -50t-12 -64t12 -64t33 -49.5t50 -32t63 -11.5h330v-168h-318zM312 -273l38 237h154l-75 -237h-117z" />
    <glyph glyph-name="Egrave" unicode="&#xc8;" horiz-adv-x="727" 
d="M55 0zM288 257v139h384v-139h-384zM55 0v650h624v-167h-449v-315h450v-168h-625zM329 690l-114 237h154l103 -237h-143z" />
    <glyph glyph-name="Egrave" unicode="&#x400;" horiz-adv-x="727" 
d="M55 0zM288 257v139h384v-139h-384zM55 0v650h624v-167h-449v-315h450v-168h-625zM329 690l-114 237h154l103 -237h-143z" />
    <glyph glyph-name="Eacute" unicode="&#xc9;" horiz-adv-x="727" 
d="M55 0zM288 257v139h384v-139h-384zM55 0v650h624v-167h-449v-315h450v-168h-625zM275 690l103 237h154l-114 -237h-143z" />
    <glyph glyph-name="Ecircumflex" unicode="&#xca;" horiz-adv-x="727" 
d="M55 0zM288 257v139h384v-139h-384zM55 0v650h624v-167h-449v-315h450v-168h-625zM441 690l-67 146l-66 -146h-143l114 237h187l114 -237h-139z" />
    <glyph glyph-name="Edieresis" unicode="&#xcb;" horiz-adv-x="727" 
d="M55 0zM288 257v139h384v-139h-384zM55 0v650h624v-167h-449v-315h450v-168h-625zM258 699q-34 0 -55 20t-21 53q0 32 21 51.5t55 19.5h15q33 0 54.5 -19.5t21.5 -51.5q0 -33 -21.5 -53t-54.5 -20h-15zM474 699q-34 0 -55.5 20t-21.5 53q0 32 21.5 51.5t55.5 19.5h14
q34 0 55.5 -19.5t21.5 -51.5q0 -33 -21.5 -53t-55.5 -20h-14z" />
    <glyph glyph-name="Edieresis" unicode="&#x401;" horiz-adv-x="727" 
d="M55 0zM288 257v139h384v-139h-384zM55 0v650h624v-167h-449v-315h450v-168h-625zM258 699q-34 0 -55 20t-21 53q0 32 21 51.5t55 19.5h15q33 0 54.5 -19.5t21.5 -51.5q0 -33 -21.5 -53t-54.5 -20h-15zM474 699q-34 0 -55.5 20t-21.5 53q0 32 21.5 51.5t55.5 19.5h14
q34 0 55.5 -19.5t21.5 -51.5q0 -33 -21.5 -53t-55.5 -20h-14z" />
    <glyph glyph-name="Igrave" unicode="&#xcc;" horiz-adv-x="290" 
d="M0 0zM59 0v650h175v-650h-175zM90 690l-114 237h154l103 -237h-143z" />
    <glyph glyph-name="Iacute" unicode="&#xcd;" horiz-adv-x="290" 
d="M55 0zM55 0v650h175v-650h-175zM58 690l103 237h154l-114 -237h-143z" />
    <glyph glyph-name="Icircumflex" unicode="&#xce;" horiz-adv-x="329" 
d="M0 0zM77 0v650h175v-650h-175zM233 690l-67 146l-66 -146h-143l114 237h187l114 -237h-139z" />
    <glyph glyph-name="Idieresis" unicode="&#xcf;" horiz-adv-x="321" 
d="M0 0zM73 0v650h175v-650h-175zM45 699q-34 0 -55 20t-21 53q0 32 21 51.5t55 19.5h15q33 0 54.5 -19.5t21.5 -51.5q0 -33 -21.5 -53t-54.5 -20h-15zM261 699q-34 0 -55.5 20t-21.5 53q0 32 21.5 51.5t55.5 19.5h14q34 0 55.5 -19.5t21.5 -51.5q0 -33 -21.5 -53t-55.5 -20
h-14z" />
    <glyph glyph-name="Idieresis" unicode="&#x407;" horiz-adv-x="321" 
d="M0 0zM73 0v650h175v-650h-175zM45 699q-34 0 -55 20t-21 53q0 32 21 51.5t55 19.5h15q33 0 54.5 -19.5t21.5 -51.5q0 -33 -21.5 -53t-54.5 -20h-15zM261 699q-34 0 -55.5 20t-21.5 53q0 32 21.5 51.5t55.5 19.5h14q34 0 55.5 -19.5t21.5 -51.5q0 -33 -21.5 -53t-55.5 -20
h-14z" />
    <glyph glyph-name="Idieresis" unicode="&#x3aa;" horiz-adv-x="321" 
d="M0 0zM73 0v650h175v-650h-175zM45 699q-34 0 -55 20t-21 53q0 32 21 51.5t55 19.5h15q33 0 54.5 -19.5t21.5 -51.5q0 -33 -21.5 -53t-54.5 -20h-15zM261 699q-34 0 -55.5 20t-21.5 53q0 32 21.5 51.5t55.5 19.5h14q34 0 55.5 -19.5t21.5 -51.5q0 -33 -21.5 -53t-55.5 -20
h-14z" />
    <glyph glyph-name="Eth" unicode="&#xd0;" horiz-adv-x="837" 
d="M86 0v257h-84v139h84v254h374q74 0 137 -23.5t108.5 -66.5t71.5 -102.5t26 -132.5t-26 -133t-71.5 -102.5t-108.5 -66t-137 -23.5h-374zM472 168q34 0 62.5 11.5t49.5 32t32.5 49.5t11.5 64t-11.5 64t-32.5 50t-49.5 32.5t-62.5 11.5h-211v-87h108v-139h-108v-89h211z
" />
    <glyph glyph-name="Eth" unicode="&#x110;" horiz-adv-x="837" 
d="M86 0v257h-84v139h84v254h374q74 0 137 -23.5t108.5 -66.5t71.5 -102.5t26 -132.5t-26 -133t-71.5 -102.5t-108.5 -66t-137 -23.5h-374zM472 168q34 0 62.5 11.5t49.5 32t32.5 49.5t11.5 64t-11.5 64t-32.5 50t-49.5 32.5t-62.5 11.5h-211v-87h108v-139h-108v-89h211z
" />
    <glyph glyph-name="Ntilde" unicode="&#xd1;" horiz-adv-x="814" 
d="M55 0zM660 0q-35 0 -55 13t-45 42l-335 362v-417h-170v576q0 74 81 74h42q20 0 35 -3t27 -9t22.5 -15t21.5 -21l307 -331v379h169v-583q0 -67 -65 -67h-35zM620 746q-20 -27 -50 -37t-55 -10q-29 0 -55.5 10t-51.5 21.5t-50.5 21.5t-52.5 10q-35 0 -64 -18t-47 -38v123
q20 24 48.5 35.5t57.5 11.5t55.5 -10t51.5 -21.5t50.5 -21.5t52.5 -10q34 0 62 16.5t48 39.5v-123z" />
    <glyph glyph-name="Ograve" unicode="&#xd2;" horiz-adv-x="849" 
d="M34 0zM484 168q34 0 63 11.5t50 32t32.5 49.5t11.5 64t-11.5 64t-32.5 50t-50 32.5t-63 11.5h-118q-34 0 -63 -11.5t-50 -32.5t-33 -50t-12 -64t11.5 -64t32.5 -49.5t50 -32t64 -11.5h118zM378 0q-75 0 -138 23.5t-108.5 66t-71.5 102.5t-26 133t26 132.5t71.5 102.5
t108.5 66.5t138 23.5h94q74 0 137 -23.5t108.5 -66.5t71.5 -102.5t26 -132.5t-26 -133t-71.5 -102.5t-108.5 -66t-137 -23.5h-94zM380 690l-114 237h154l103 -237h-143z" />
    <glyph glyph-name="Oacute" unicode="&#xd3;" horiz-adv-x="849" 
d="M34 0zM484 168q34 0 63 11.5t50 32t32.5 49.5t11.5 64t-11.5 64t-32.5 50t-50 32.5t-63 11.5h-118q-34 0 -63 -11.5t-50 -32.5t-33 -50t-12 -64t11.5 -64t32.5 -49.5t50 -32t64 -11.5h118zM378 0q-75 0 -138 23.5t-108.5 66t-71.5 102.5t-26 133t26 132.5t71.5 102.5
t108.5 66.5t138 23.5h94q74 0 137 -23.5t108.5 -66.5t71.5 -102.5t26 -132.5t-26 -133t-71.5 -102.5t-108.5 -66t-137 -23.5h-94zM325 690l103 237h154l-114 -237h-143z" />
    <glyph glyph-name="Ocircumflex" unicode="&#xd4;" horiz-adv-x="849" 
d="M34 0zM484 168q34 0 63 11.5t50 32t32.5 49.5t11.5 64t-11.5 64t-32.5 50t-50 32.5t-63 11.5h-118q-34 0 -63 -11.5t-50 -32.5t-33 -50t-12 -64t11.5 -64t32.5 -49.5t50 -32t64 -11.5h118zM378 0q-75 0 -138 23.5t-108.5 66t-71.5 102.5t-26 133t26 132.5t71.5 102.5
t108.5 66.5t138 23.5h94q74 0 137 -23.5t108.5 -66.5t71.5 -102.5t26 -132.5t-26 -133t-71.5 -102.5t-108.5 -66t-137 -23.5h-94zM492 690l-67 146l-66 -146h-143l114 237h187l114 -237h-139z" />
    <glyph glyph-name="Otilde" unicode="&#xd5;" horiz-adv-x="849" 
d="M34 0zM484 168q34 0 63 11.5t50 32t32.5 49.5t11.5 64t-11.5 64t-32.5 50t-50 32.5t-63 11.5h-118q-34 0 -63 -11.5t-50 -32.5t-33 -50t-12 -64t11.5 -64t32.5 -49.5t50 -32t64 -11.5h118zM378 0q-75 0 -138 23.5t-108.5 66t-71.5 102.5t-26 133t26 132.5t71.5 102.5
t108.5 66.5t138 23.5h94q74 0 137 -23.5t108.5 -66.5t71.5 -102.5t26 -132.5t-26 -133t-71.5 -102.5t-108.5 -66t-137 -23.5h-94zM636 746q-20 -27 -50 -37t-55 -10q-29 0 -55.5 10t-51.5 21.5t-50.5 21.5t-52.5 10q-35 0 -64 -18t-47 -38v123q20 24 48.5 35.5t57.5 11.5
t55.5 -10t51.5 -21.5t50.5 -21.5t52.5 -10q34 0 62 16.5t48 39.5v-123z" />
    <glyph glyph-name="Odieresis" unicode="&#xd6;" horiz-adv-x="849" 
d="M34 0zM484 168q34 0 63 11.5t50 32t32.5 49.5t11.5 64t-11.5 64t-32.5 50t-50 32.5t-63 11.5h-118q-34 0 -63 -11.5t-50 -32.5t-33 -50t-12 -64t11.5 -64t32.5 -49.5t50 -32t64 -11.5h118zM378 0q-75 0 -138 23.5t-108.5 66t-71.5 102.5t-26 133t26 132.5t71.5 102.5
t108.5 66.5t138 23.5h94q74 0 137 -23.5t108.5 -66.5t71.5 -102.5t26 -132.5t-26 -133t-71.5 -102.5t-108.5 -66t-137 -23.5h-94zM309 699q-34 0 -55 20t-21 53q0 32 21 51.5t55 19.5h15q33 0 54.5 -19.5t21.5 -51.5q0 -33 -21.5 -53t-54.5 -20h-15zM525 699q-34 0 -55.5 20
t-21.5 53q0 32 21.5 51.5t55.5 19.5h14q34 0 55.5 -19.5t21.5 -51.5q0 -33 -21.5 -53t-55.5 -20h-14z" />
    <glyph glyph-name="multiply" unicode="&#xd7;" 
d="M133 177l150 153l-150 153l89 89l150 -152l149 152l90 -90l-150 -153l150 -151l-90 -90l-149 151l-149 -152z" />
    <glyph glyph-name="Oslash" unicode="&#xd8;" horiz-adv-x="849" 
d="M118 -85l76 129q-74 41 -117 113t-43 168q0 73 26 132.5t71.5 102.5t108.5 66.5t138 23.5h94q20 0 39.5 -2t38.5 -5l55 93h126l-77 -130q74 -41 117.5 -113t43.5 -168q0 -73 -26 -133t-71.5 -102.5t-108.5 -66t-137 -23.5h-94q-44 0 -79 7l-55 -92h-126zM641 325
q0 46 -19.5 81t-53.5 55l-174 -293h90q34 0 63 11.5t50 32t32.5 49.5t11.5 64zM208 325q0 -46 19.5 -81t53.5 -55l174 294h-89q-34 0 -63 -11.5t-50 -32.5t-33 -50t-12 -64z" />
    <glyph glyph-name="Ugrave" unicode="&#xd9;" horiz-adv-x="836" 
d="M49 0zM346 0q-65 0 -119 20.5t-94 57.5t-62 88.5t-22 113.5v370h176v-357q0 -57 35 -91t89 -34h138q54 0 89 34t35 91v357h176v-370q0 -62 -22 -113.5t-62 -88.5t-94.5 -57.5t-118.5 -20.5h-144zM373 690l-114 237h154l103 -237h-143z" />
    <glyph glyph-name="Uacute" unicode="&#xda;" horiz-adv-x="836" 
d="M49 0zM346 0q-65 0 -119 20.5t-94 57.5t-62 88.5t-22 113.5v370h176v-357q0 -57 35 -91t89 -34h138q54 0 89 34t35 91v357h176v-370q0 -62 -22 -113.5t-62 -88.5t-94.5 -57.5t-118.5 -20.5h-144zM318 690l103 237h154l-114 -237h-143z" />
    <glyph glyph-name="Ucircumflex" unicode="&#xdb;" horiz-adv-x="836" 
d="M49 0zM346 0q-65 0 -119 20.5t-94 57.5t-62 88.5t-22 113.5v370h176v-357q0 -57 35 -91t89 -34h138q54 0 89 34t35 91v357h176v-370q0 -62 -22 -113.5t-62 -88.5t-94.5 -57.5t-118.5 -20.5h-144zM487 690l-67 146l-66 -146h-143l114 237h187l114 -237h-139z" />
    <glyph glyph-name="Udieresis" unicode="&#xdc;" horiz-adv-x="836" 
d="M49 0zM346 0q-65 0 -119 20.5t-94 57.5t-62 88.5t-22 113.5v370h176v-357q0 -57 35 -91t89 -34h138q54 0 89 34t35 91v357h176v-370q0 -62 -22 -113.5t-62 -88.5t-94.5 -57.5t-118.5 -20.5h-144zM302 699q-34 0 -55 20t-21 53q0 32 21 51.5t55 19.5h15q33 0 54.5 -19.5
t21.5 -51.5q0 -33 -21.5 -53t-54.5 -20h-15zM518 699q-34 0 -55.5 20t-21.5 53q0 32 21.5 51.5t55.5 19.5h14q34 0 55.5 -19.5t21.5 -51.5q0 -33 -21.5 -53t-55.5 -20h-14z" />
    <glyph glyph-name="Yacute" unicode="&#xdd;" horiz-adv-x="774" 
d="M2 0zM300 0v229l-298 421h205l184 -259l185 259h196l-297 -421v-229h-175zM287 690l103 237h154l-114 -237h-143z" />
    <glyph glyph-name="Thorn" unicode="&#xde;" horiz-adv-x="777" 
d="M279 77v156h211q35 0 58.5 23t23.5 61q0 37 -23.5 60t-58.5 23h-261v-400h-174v650h175v-83h257q57 0 104.5 -18t82 -50t53.5 -77t19 -99q0 -55 -19 -100t-53.5 -77.5t-82 -50.5t-104.5 -18h-208z" />
    <glyph glyph-name="germandbls" unicode="&#xdf;" horiz-adv-x="728" 
d="M274 0v152h174q39 0 62 21.5t23 61.5q0 39 -22.5 60.5t-60.5 21.5h-151v214q0 38 -32 38h-17q-35 0 -35 -38v-531h-166v527q0 174 182 174h54q169 0 169 -173v-74q54 0 99 -16.5t77.5 -46t50.5 -71.5t18 -93t-18 -93t-50 -71.5t-75.5 -46t-95.5 -16.5h-186z" />
    <glyph glyph-name="agrave" unicode="&#xe0;" horiz-adv-x="642" 
d="M37 0zM194 0q-79 0 -118 41t-39 106q0 66 39 107t118 41h186v-97h-148q-37 0 -37 -35t35 -35h199v144q0 85 -87 85h-278v142h280q125 0 187 -61.5t62 -176.5v-261h-399zM276 539l-114 237h154l103 -237h-143z" />
    <glyph glyph-name="aacute" unicode="&#xe1;" horiz-adv-x="642" 
d="M37 0zM194 0q-79 0 -118 41t-39 106q0 66 39 107t118 41h186v-97h-148q-37 0 -37 -35t35 -35h199v144q0 85 -87 85h-278v142h280q125 0 187 -61.5t62 -176.5v-261h-399zM221 539l103 237h154l-114 -237h-143z" />
    <glyph glyph-name="acircumflex" unicode="&#xe2;" horiz-adv-x="642" 
d="M37 0zM194 0q-79 0 -118 41t-39 106q0 66 39 107t118 41h186v-97h-148q-37 0 -37 -35t35 -35h199v144q0 85 -87 85h-278v142h280q125 0 187 -61.5t62 -176.5v-261h-399zM389 539l-67 146l-66 -146h-143l114 237h187l114 -237h-139z" />
    <glyph glyph-name="atilde" unicode="&#xe3;" horiz-adv-x="642" 
d="M37 0zM194 0q-79 0 -118 41t-39 106q0 66 39 107t118 41h186v-97h-148q-37 0 -37 -35t35 -35h199v144q0 85 -87 85h-278v142h280q125 0 187 -61.5t62 -176.5v-261h-399zM533 595q-20 -27 -50 -37t-55 -10q-29 0 -55.5 10t-51.5 21.5t-50.5 21.5t-52.5 10q-35 0 -64 -18
t-47 -38v123q20 24 48.5 35.5t57.5 11.5t55.5 -10t51.5 -21.5t50.5 -21.5t52.5 -10q34 0 62 16.5t48 39.5v-123z" />
    <glyph glyph-name="adieresis" unicode="&#xe4;" horiz-adv-x="642" 
d="M37 0zM194 0q-79 0 -118 41t-39 106q0 66 39 107t118 41h186v-97h-148q-37 0 -37 -35t35 -35h199v144q0 85 -87 85h-278v142h280q125 0 187 -61.5t62 -176.5v-261h-399zM205 548q-34 0 -55 20t-21 53q0 32 21 51.5t55 19.5h15q33 0 54.5 -19.5t21.5 -51.5
q0 -33 -21.5 -53t-54.5 -20h-15zM421 548q-34 0 -55.5 20t-21.5 53q0 32 21.5 51.5t55.5 19.5h14q34 0 55.5 -19.5t21.5 -51.5q0 -33 -21.5 -53t-55.5 -20h-14z" />
    <glyph glyph-name="aring" unicode="&#xe5;" horiz-adv-x="642" 
d="M37 0zM194 0q-79 0 -118 41t-39 106q0 66 39 107t118 41h186v-97h-148q-37 0 -37 -35t35 -35h199v144q0 85 -87 85h-278v142h280q125 0 187 -61.5t62 -176.5v-261h-399zM339 593q22 0 36.5 14.5t14.5 37.5t-14.5 37.5t-36.5 14.5h-38q-22 0 -36.5 -14.5t-14.5 -37.5
t14.5 -37.5t36.5 -14.5h38zM301 512q-30 0 -55 10t-44 27.5t-29.5 42t-10.5 53.5t10.5 53t29.5 41.5t44 27t55 9.5h38q30 0 55.5 -9.5t44 -27t29 -41.5t10.5 -53t-10.5 -53.5t-29 -42t-44 -27.5t-55.5 -10h-38z" />
    <glyph glyph-name="ae" unicode="&#xe6;" horiz-adv-x="960" 
d="M194 0q-79 0 -118 41t-39 106q0 66 39 107t118 41h160v-97h-122q-37 0 -37 -35t35 -35h172v154q0 38 -17.5 56.5t-57.5 18.5h-263v142h265q57 0 95.5 -14.5t65.5 -38.5q30 24 68 38.5t89 14.5h112q43 0 75 -12t53.5 -33t32 -50.5t10.5 -64.5q0 -66 -38 -99t-125 -33h-146
v91h113q38 0 38 35q0 37 -38 37h-87q-39 0 -64 -20.5t-25 -69.5v-143h346v-137h-710z" />
    <glyph glyph-name="ccedilla" unicode="&#xe7;" horiz-adv-x="559" 
d="M29 0zM297 0q-58 0 -107 18t-85 51t-56 79t-20 102q0 55 20 101t56 79t85 51t107 18h225v-152h-226q-45 0 -73 -26.5t-28 -70.5t28 -71t73 -27h226v-152h-225zM221 -273l38 237h154l-75 -237h-117z" />
    <glyph glyph-name="egrave" unicode="&#xe8;" horiz-adv-x="624" 
d="M29 0zM297 0q-58 0 -107 18t-85 51t-56 79t-20 102q0 55 20 101t56 79t85 51t107 18h127q43 0 75 -12t53.5 -33t32 -50.5t10.5 -64.5q0 -66 -38 -99t-125 -33h-178v91h143q39 0 39 35q0 37 -38 37h-102q-45 0 -73 -31t-28 -88t28 -85.5t73 -28.5h272v-137h-271zM277 539
l-114 237h154l103 -237h-143z" />
    <glyph glyph-name="egrave" unicode="&#x450;" horiz-adv-x="624" 
d="M29 0zM297 0q-58 0 -107 18t-85 51t-56 79t-20 102q0 55 20 101t56 79t85 51t107 18h127q43 0 75 -12t53.5 -33t32 -50.5t10.5 -64.5q0 -66 -38 -99t-125 -33h-178v91h143q39 0 39 35q0 37 -38 37h-102q-45 0 -73 -31t-28 -88t28 -85.5t73 -28.5h272v-137h-271zM277 539
l-114 237h154l103 -237h-143z" />
    <glyph glyph-name="eacute" unicode="&#xe9;" horiz-adv-x="624" 
d="M29 0zM297 0q-58 0 -107 18t-85 51t-56 79t-20 102q0 55 20 101t56 79t85 51t107 18h127q43 0 75 -12t53.5 -33t32 -50.5t10.5 -64.5q0 -66 -38 -99t-125 -33h-178v91h143q39 0 39 35q0 37 -38 37h-102q-45 0 -73 -31t-28 -88t28 -85.5t73 -28.5h272v-137h-271zM222 539
l103 237h154l-114 -237h-143z" />
    <glyph glyph-name="ecircumflex" unicode="&#xea;" horiz-adv-x="624" 
d="M29 0zM297 0q-58 0 -107 18t-85 51t-56 79t-20 102q0 55 20 101t56 79t85 51t107 18h127q43 0 75 -12t53.5 -33t32 -50.5t10.5 -64.5q0 -66 -38 -99t-125 -33h-178v91h143q39 0 39 35q0 37 -38 37h-102q-45 0 -73 -31t-28 -88t28 -85.5t73 -28.5h272v-137h-271zM390 539
l-67 146l-66 -146h-143l114 237h187l114 -237h-139z" />
    <glyph glyph-name="edieresis" unicode="&#xeb;" horiz-adv-x="624" 
d="M29 0zM297 0q-58 0 -107 18t-85 51t-56 79t-20 102q0 55 20 101t56 79t85 51t107 18h127q43 0 75 -12t53.5 -33t32 -50.5t10.5 -64.5q0 -66 -38 -99t-125 -33h-178v91h143q39 0 39 35q0 37 -38 37h-102q-45 0 -73 -31t-28 -88t28 -85.5t73 -28.5h272v-137h-271zM207 548
q-34 0 -55 20t-21 53q0 32 21 51.5t55 19.5h15q33 0 54.5 -19.5t21.5 -51.5q0 -33 -21.5 -53t-54.5 -20h-15zM423 548q-34 0 -55.5 20t-21.5 53q0 32 21.5 51.5t55.5 19.5h14q34 0 55.5 -19.5t21.5 -51.5q0 -33 -21.5 -53t-55.5 -20h-14z" />
    <glyph glyph-name="edieresis" unicode="&#x451;" horiz-adv-x="624" 
d="M29 0zM297 0q-58 0 -107 18t-85 51t-56 79t-20 102q0 55 20 101t56 79t85 51t107 18h127q43 0 75 -12t53.5 -33t32 -50.5t10.5 -64.5q0 -66 -38 -99t-125 -33h-178v91h143q39 0 39 35q0 37 -38 37h-102q-45 0 -73 -31t-28 -88t28 -85.5t73 -28.5h272v-137h-271zM207 548
q-34 0 -55 20t-21 53q0 32 21 51.5t55 19.5h15q33 0 54.5 -19.5t21.5 -51.5q0 -33 -21.5 -53t-54.5 -20h-15zM423 548q-34 0 -55.5 20t-21.5 53q0 32 21.5 51.5t55.5 19.5h14q34 0 55.5 -19.5t21.5 -51.5q0 -33 -21.5 -53t-55.5 -20h-14z" />
    <glyph glyph-name="igrave" unicode="&#xec;" horiz-adv-x="288" 
d="M0 0zM71 0v499h167v-499h-167zM98 539l-114 237h154l103 -237h-143z" />
    <glyph glyph-name="iacute" unicode="&#xed;" horiz-adv-x="288" 
d="M48 0zM49 0v499h167v-499h-167zM48 539l103 237h154l-114 -237h-143z" />
    <glyph glyph-name="icircumflex" unicode="&#xee;" horiz-adv-x="359" 
d="M0 0zM96 0v499h167v-499h-167zM248 539l-67 146l-66 -146h-143l114 237h187l114 -237h-139z" />
    <glyph glyph-name="idieresis" unicode="&#xef;" horiz-adv-x="343" 
d="M0 0zM88 0v499h167v-499h-167zM56 548q-34 0 -55 20t-21 53q0 32 21 51.5t55 19.5h15q33 0 54.5 -19.5t21.5 -51.5q0 -33 -21.5 -53t-54.5 -20h-15zM272 548q-34 0 -55.5 20t-21.5 53q0 32 21.5 51.5t55.5 19.5h14q34 0 55.5 -19.5t21.5 -51.5q0 -33 -21.5 -53t-55.5 -20
h-14z" />
    <glyph glyph-name="idieresis" unicode="&#x457;" horiz-adv-x="343" 
d="M0 0zM88 0v499h167v-499h-167zM56 548q-34 0 -55 20t-21 53q0 32 21 51.5t55 19.5h15q33 0 54.5 -19.5t21.5 -51.5q0 -33 -21.5 -53t-54.5 -20h-15zM272 548q-34 0 -55.5 20t-21.5 53q0 32 21.5 51.5t55.5 19.5h14q34 0 55.5 -19.5t21.5 -51.5q0 -33 -21.5 -53t-55.5 -20
h-14z" />
    <glyph glyph-name="eth" unicode="&#xf0;" horiz-adv-x="679" 
d="M309 0q-63 0 -114.5 15.5t-88 45t-57 73t-20.5 99.5q0 51 17 92t50.5 70t83 44.5t115.5 15.5q34 0 65.5 -4t58.5 -11v-137q-26 5 -53 7t-51 2q-57 0 -88 -16.5t-31 -60.5t28.5 -63.5t73.5 -19.5h85q85 0 85 72v229q0 48 -21.5 72t-76.5 24h-134v152h133q140 0 203 -61
t63 -186v-216q0 -115 -61.5 -176.5t-173.5 -61.5h-91z" />
    <glyph glyph-name="ntilde" unicode="&#xf1;" horiz-adv-x="681" 
d="M49 0zM471 0v262q0 85 -87 85h-167v-347h-168v499h339q124 0 187 -62t63 -176v-261h-167zM553 595q-20 -27 -50 -37t-55 -10q-29 0 -55.5 10t-51.5 21.5t-50.5 21.5t-52.5 10q-35 0 -64 -18t-47 -38v123q20 24 48.5 35.5t57.5 11.5t55.5 -10t51.5 -21.5t50.5 -21.5
t52.5 -10q34 0 62 16.5t48 39.5v-123z" />
    <glyph glyph-name="ograve" unicode="&#xf2;" horiz-adv-x="664" 
d="M29 0zM367 152q44 0 72.5 27t28.5 71t-28.5 70.5t-72.5 26.5h-71q-45 0 -73 -26.5t-28 -70.5t28 -71t73 -27h71zM297 0q-58 0 -107 18t-85 51t-56 79t-20 102q0 55 20 101t56 79t85 51t107 18h70q58 0 107 -18t85 -51t56 -79t20 -101q0 -56 -20 -102t-56 -79t-85 -51
t-107 -18h-70zM287 539l-114 237h154l103 -237h-143z" />
    <glyph glyph-name="oacute" unicode="&#xf3;" horiz-adv-x="664" 
d="M29 0zM367 152q44 0 72.5 27t28.5 71t-28.5 70.5t-72.5 26.5h-71q-45 0 -73 -26.5t-28 -70.5t28 -71t73 -27h71zM297 0q-58 0 -107 18t-85 51t-56 79t-20 102q0 55 20 101t56 79t85 51t107 18h70q58 0 107 -18t85 -51t56 -79t20 -101q0 -56 -20 -102t-56 -79t-85 -51
t-107 -18h-70zM203 539l103 237h154l-114 -237h-143z" />
    <glyph glyph-name="ocircumflex" unicode="&#xf4;" horiz-adv-x="664" 
d="M29 0zM367 152q44 0 72.5 27t28.5 71t-28.5 70.5t-72.5 26.5h-71q-45 0 -73 -26.5t-28 -70.5t28 -71t73 -27h71zM297 0q-58 0 -107 18t-85 51t-56 79t-20 102q0 55 20 101t56 79t85 51t107 18h70q58 0 107 -18t85 -51t56 -79t20 -101q0 -56 -20 -102t-56 -79t-85 -51
t-107 -18h-70zM400 539l-67 146l-66 -146h-143l114 237h187l114 -237h-139z" />
    <glyph glyph-name="otilde" unicode="&#xf5;" horiz-adv-x="664" 
d="M29 0zM367 152q44 0 72.5 27t28.5 71t-28.5 70.5t-72.5 26.5h-71q-45 0 -73 -26.5t-28 -70.5t28 -71t73 -27h71zM297 0q-58 0 -107 18t-85 51t-56 79t-20 102q0 55 20 101t56 79t85 51t107 18h70q58 0 107 -18t85 -51t56 -79t20 -101q0 -56 -20 -102t-56 -79t-85 -51
t-107 -18h-70zM544 595q-20 -27 -50 -37t-55 -10q-29 0 -55.5 10t-51.5 21.5t-50.5 21.5t-52.5 10q-35 0 -64 -18t-47 -38v123q20 24 48.5 35.5t57.5 11.5t55.5 -10t51.5 -21.5t50.5 -21.5t52.5 -10q34 0 62 16.5t48 39.5v-123z" />
    <glyph glyph-name="odieresis" unicode="&#xf6;" horiz-adv-x="664" 
d="M29 0zM367 152q44 0 72.5 27t28.5 71t-28.5 70.5t-72.5 26.5h-71q-45 0 -73 -26.5t-28 -70.5t28 -71t73 -27h71zM297 0q-58 0 -107 18t-85 51t-56 79t-20 102q0 55 20 101t56 79t85 51t107 18h70q58 0 107 -18t85 -51t56 -79t20 -101q0 -56 -20 -102t-56 -79t-85 -51
t-107 -18h-70zM216 548q-34 0 -55 20t-21 53q0 32 21 51.5t55 19.5h15q33 0 54.5 -19.5t21.5 -51.5q0 -33 -21.5 -53t-54.5 -20h-15zM432 548q-34 0 -55.5 20t-21.5 53q0 32 21.5 51.5t55.5 19.5h14q34 0 55.5 -19.5t21.5 -51.5q0 -33 -21.5 -53t-55.5 -20h-14z" />
    <glyph glyph-name="divide" unicode="&#xf7;" 
d="M114 40zM114 267v127h516v-127h-516zM364 468q-36 0 -59 21t-23 56t23 55.5t59 20.5h23q35 0 58.5 -20.5t23.5 -55.5t-23.5 -56t-58.5 -21h-23zM364 40q-36 0 -59 21t-23 56t23 55.5t59 20.5h23q35 0 58.5 -20.5t23.5 -55.5t-23.5 -56t-58.5 -21h-23z" />
    <glyph glyph-name="oslash" unicode="&#xf8;" horiz-adv-x="664" 
d="M45 -84l90 129q-50 33 -78 85.5t-28 119.5q0 55 20 101t56 79t85 51t107 18h70q44 0 80 -10l64 92h105l-89 -127q51 -32 79.5 -84.5t28.5 -119.5q0 -56 -20 -102t-56 -79t-85 -51t-107 -18h-70q-45 0 -81 10l-66 -94h-105zM468 250q0 23 -9 41.5t-24 31.5l-120 -171h52
q44 0 72.5 27t28.5 71zM195 250q0 -47 32 -74l120 171h-51q-45 0 -73 -26.5t-28 -70.5z" />
    <glyph glyph-name="ugrave" unicode="&#xf9;" horiz-adv-x="684" 
d="M44 0zM294 0q-125 0 -187.5 61.5t-62.5 176.5v261h167v-261q0 -86 87 -86h88q87 0 87 86v261h167v-261q0 -115 -62.5 -176.5t-187.5 -61.5h-96zM297 539l-114 237h154l103 -237h-143z" />
    <glyph glyph-name="uacute" unicode="&#xfa;" horiz-adv-x="684" 
d="M44 0zM294 0q-125 0 -187.5 61.5t-62.5 176.5v261h167v-261q0 -86 87 -86h88q87 0 87 86v261h167v-261q0 -115 -62.5 -176.5t-187.5 -61.5h-96zM242 539l103 237h154l-114 -237h-143z" />
    <glyph glyph-name="ucircumflex" unicode="&#xfb;" horiz-adv-x="684" 
d="M44 0zM294 0q-125 0 -187.5 61.5t-62.5 176.5v261h167v-261q0 -86 87 -86h88q87 0 87 86v261h167v-261q0 -115 -62.5 -176.5t-187.5 -61.5h-96zM411 539l-67 146l-66 -146h-143l114 237h187l114 -237h-139z" />
    <glyph glyph-name="udieresis" unicode="&#xfc;" horiz-adv-x="684" 
d="M44 0zM294 0q-125 0 -187.5 61.5t-62.5 176.5v261h167v-261q0 -86 87 -86h88q87 0 87 86v261h167v-261q0 -115 -62.5 -176.5t-187.5 -61.5h-96zM226 548q-34 0 -55 20t-21 53q0 32 21 51.5t55 19.5h15q33 0 54.5 -19.5t21.5 -51.5q0 -33 -21.5 -53t-54.5 -20h-15z
M442 548q-34 0 -55.5 20t-21.5 53q0 32 21.5 51.5t55.5 19.5h14q34 0 55.5 -19.5t21.5 -51.5q0 -33 -21.5 -53t-55.5 -20h-14z" />
    <glyph glyph-name="yacute" unicode="&#xfd;" horiz-adv-x="657" 
d="M9 0zM117 -174v144h53q32 0 50 13t29 32l-240 484h169l148 -320l152 320h170l-277 -548q-16 -32 -33.5 -55.5t-39.5 -39t-49.5 -23t-63.5 -7.5h-68zM228 539l103 237h154l-114 -237h-143z" />
    <glyph glyph-name="thorn" unicode="&#xfe;" horiz-adv-x="679" 
d="M44 -174v875h167v-202h171q58 0 107.5 -17.5t85.5 -50.5t56 -81.5t20 -110.5q0 -112 -68 -178t-202 -66q-32 0 -63.5 3.5t-57.5 10.5v150q26 -5 53.5 -9t50.5 -4q57 0 88.5 21.5t31.5 76.5q0 54 -28.5 78t-73.5 24h-171v-520h-167z" />
    <glyph glyph-name="ydieresis" unicode="&#xff;" horiz-adv-x="657" 
d="M9 0zM117 -174v144h53q32 0 50 13t29 32l-240 484h169l148 -320l152 320h170l-277 -548q-16 -32 -33.5 -55.5t-39.5 -39t-49.5 -23t-63.5 -7.5h-68zM212 548q-34 0 -55 20t-21 53q0 32 21 51.5t55 19.5h15q33 0 54.5 -19.5t21.5 -51.5q0 -33 -21.5 -53t-54.5 -20h-15z
M428 548q-34 0 -55.5 20t-21.5 53q0 32 21.5 51.5t55.5 19.5h14q34 0 55.5 -19.5t21.5 -51.5q0 -33 -21.5 -53t-55.5 -20h-14z" />
    <glyph glyph-name="Amacron" unicode="&#x100;" horiz-adv-x="881" 
d="M11 0zM681 0l-54 100h-305l74 139h157l-111 209l-238 -448h-193l332 602q27 48 78 48h40q51 0 78 -48l332 -602h-190zM227 720v120h426v-120h-426z" />
    <glyph glyph-name="amacron" unicode="&#x101;" horiz-adv-x="642" 
d="M37 0zM194 0q-79 0 -118 41t-39 106q0 66 39 107t118 41h186v-97h-148q-37 0 -37 -35t35 -35h199v144q0 85 -87 85h-278v142h280q125 0 187 -61.5t62 -176.5v-261h-399zM107 569v120h426v-120h-426z" />
    <glyph glyph-name="Abreve" unicode="&#x102;" horiz-adv-x="881" 
d="M11 0zM681 0l-54 100h-305l74 139h157l-111 209l-238 -448h-193l332 602q27 48 78 48h40q51 0 78 -48l332 -602h-190zM381 690q-31 0 -58.5 12t-48.5 34t-33 53t-12 69v69h129v-71q0 -31 12.5 -47.5t33.5 -16.5h73q21 0 33.5 16.5t12.5 47.5v71h129v-69q0 -38 -12 -69
t-33 -53t-48.5 -34t-58.5 -12h-119z" />
    <glyph glyph-name="abreve" unicode="&#x103;" horiz-adv-x="642" 
d="M37 0zM194 0q-79 0 -118 41t-39 106q0 66 39 107t118 41h186v-97h-148q-37 0 -37 -35t35 -35h199v144q0 85 -87 85h-278v142h280q125 0 187 -61.5t62 -176.5v-261h-399zM261 539q-31 0 -58.5 12t-48.5 34t-33 53t-12 69v69h129v-71q0 -31 12.5 -47.5t33.5 -16.5h73
q21 0 33.5 16.5t12.5 47.5v71h129v-69q0 -38 -12 -69t-33 -53t-48.5 -34t-58.5 -12h-119z" />
    <glyph glyph-name="Aogonek" unicode="&#x104;" horiz-adv-x="881" 
d="M743 -273q-69 0 -104 28.5t-35 77.5q0 32 16 61.5t48 48.5l33 19l-74 138h-305l74 139h157l-111 209l-238 -448h-193l332 602q27 48 78 48h40q51 0 78 -48l332 -602h-2l-108 -66q-24 -14 -24 -35q0 -32 42 -32h101v-140h-137z" />
    <glyph glyph-name="aogonek" unicode="&#x105;" horiz-adv-x="642" 
d="M465 -273q-69 0 -104 28.5t-35 77.5q0 32 16.5 61t48.5 49l97 57h-294q-79 0 -118 41t-39 106q0 66 39 107t118 41h186v-97h-148q-37 0 -37 -35t35 -35h199v144q0 85 -87 85h-278v142h280q125 0 187 -61.5t62 -176.5v-261l-110 -66q-24 -14 -24 -35q0 -32 42 -32h101
v-140h-137z" />
    <glyph glyph-name="Cacute" unicode="&#x106;" horiz-adv-x="739" 
d="M34 0zM378 0q-75 0 -138 23.5t-108.5 66t-71.5 102.5t-26 133t26 132.5t71.5 102.5t108.5 66.5t138 23.5h318v-167h-330q-34 0 -63 -11.5t-50 -32.5t-33 -50t-12 -64t12 -64t33 -49.5t50 -32t63 -11.5h330v-168h-318zM309 690l103 237h154l-114 -237h-143z" />
    <glyph glyph-name="cacute" unicode="&#x107;" horiz-adv-x="559" 
d="M29 0zM297 0q-58 0 -107 18t-85 51t-56 79t-20 102q0 55 20 101t56 79t85 51t107 18h225v-152h-226q-45 0 -73 -26.5t-28 -70.5t28 -71t73 -27h226v-152h-225zM219 539l103 237h154l-114 -237h-143z" />
    <glyph glyph-name="Cdotaccent" unicode="&#x10a;" horiz-adv-x="739" 
d="M34 0zM378 0q-75 0 -138 23.5t-108.5 66t-71.5 102.5t-26 133t26 132.5t71.5 102.5t108.5 66.5t138 23.5h318v-167h-330q-34 0 -63 -11.5t-50 -32.5t-33 -50t-12 -64t12 -64t33 -49.5t50 -32t63 -11.5h330v-168h-318zM404 699q-33 0 -54.5 19.5t-21.5 53.5
q0 32 21.5 51.5t54.5 19.5h23q33 0 54 -19.5t21 -51.5q0 -34 -21 -53.5t-54 -19.5h-23z" />
    <glyph glyph-name="cdotaccent" unicode="&#x10b;" horiz-adv-x="559" 
d="M29 0zM297 0q-58 0 -107 18t-85 51t-56 79t-20 102q0 55 20 101t56 79t85 51t107 18h225v-152h-226q-45 0 -73 -26.5t-28 -70.5t28 -71t73 -27h226v-152h-225zM310 548q-33 0 -54.5 19.5t-21.5 53.5q0 32 21.5 51.5t54.5 19.5h23q33 0 54 -19.5t21 -51.5q0 -34 -21 -53.5
t-54 -19.5h-23z" />
    <glyph glyph-name="Ccaron" unicode="&#x10c;" horiz-adv-x="739" 
d="M34 0zM378 0q-75 0 -138 23.5t-108.5 66t-71.5 102.5t-26 133t26 132.5t71.5 102.5t108.5 66.5t138 23.5h318v-167h-330q-34 0 -63 -11.5t-50 -32.5t-33 -50t-12 -64t12 -64t33 -49.5t50 -32t63 -11.5h330v-168h-318zM316 690l-114 237h139l67 -145l68 145h141l-114 -237
h-187z" />
    <glyph glyph-name="ccaron" unicode="&#x10d;" horiz-adv-x="559" 
d="M29 0zM297 0q-58 0 -107 18t-85 51t-56 79t-20 102q0 55 20 101t56 79t85 51t107 18h225v-152h-226q-45 0 -73 -26.5t-28 -70.5t28 -71t73 -27h226v-152h-225zM225 539l-114 237h139l67 -145l68 145h141l-114 -237h-187z" />
    <glyph glyph-name="Dcaron" unicode="&#x10e;" horiz-adv-x="807" 
d="M55 0zM55 0v650h374q74 0 137 -23.5t108.5 -66.5t71.5 -102.5t26 -132.5t-26 -133t-71.5 -102.5t-108.5 -66t-137 -23.5h-374zM441 168q34 0 62.5 11.5t49.5 32t32.5 49.5t11.5 64t-11.5 64t-32.5 50t-49.5 32.5t-62.5 11.5h-211v-315h211zM290 690l-114 237h139l67 -145
l68 145h141l-114 -237h-187z" />
    <glyph glyph-name="dcaron" unicode="&#x10f;" horiz-adv-x="829" 
d="M29 0zM297 0q-58 0 -107 17.5t-85 50.5t-56 81.5t-20 110.5q0 112 67.5 178t201.5 66q32 0 63.5 -3.5t57.5 -10.5v-151q-26 6 -53 10t-50 4q-57 0 -88.5 -21.5t-31.5 -76.5q0 -52 28 -77.5t73 -25.5h84q87 0 87 86v463h167v-463q0 -115 -62.5 -176.5t-187.5 -61.5h-88z
M675 464l38 237h154l-75 -237h-117z" />
    <glyph glyph-name="dmacron" unicode="&#x111;" horiz-adv-x="679" 
d="M635 560v-322q0 -115 -62.5 -176.5t-187.5 -61.5h-88q-58 0 -107 17.5t-85 50.5t-56 81.5t-20 110.5q0 112 67.5 173.5t201.5 61.5q32 0 63.5 -3.5t57.5 -9.5v-151q-26 6 -53 10t-50 4q-29 0 -51 -4t-37.5 -14t-23.5 -27.5t-8 -44.5q0 -52 28 -77.5t73 -25.5h84
q87 0 87 86v322h-217v103h217v38h167v-38h42v-103h-42z" />
    <glyph glyph-name="Emacron" unicode="&#x112;" horiz-adv-x="727" 
d="M55 0zM288 257v139h384v-139h-384zM55 0v650h624v-167h-449v-315h450v-168h-625zM159 720v120h426v-120h-426z" />
    <glyph glyph-name="emacron" unicode="&#x113;" horiz-adv-x="624" 
d="M29 0zM297 0q-58 0 -107 18t-85 51t-56 79t-20 102q0 55 20 101t56 79t85 51t107 18h127q43 0 75 -12t53.5 -33t32 -50.5t10.5 -64.5q0 -66 -38 -99t-125 -33h-178v91h143q39 0 39 35q0 37 -38 37h-102q-45 0 -73 -31t-28 -88t28 -85.5t73 -28.5h272v-137h-271zM108 569
v120h426v-120h-426z" />
    <glyph glyph-name="Ebreve" unicode="&#x114;" horiz-adv-x="727" 
d="M55 0zM288 257v139h384v-139h-384zM55 0v650h624v-167h-449v-315h450v-168h-625zM313 690q-31 0 -58.5 12t-48.5 34t-33 53t-12 69v69h129v-71q0 -31 12.5 -47.5t33.5 -16.5h73q21 0 33.5 16.5t12.5 47.5v71h129v-69q0 -38 -12 -69t-33 -53t-48.5 -34t-58.5 -12h-119z
" />
    <glyph glyph-name="ebreve" unicode="&#x115;" horiz-adv-x="624" 
d="M29 0zM297 0q-58 0 -107 18t-85 51t-56 79t-20 102q0 55 20 101t56 79t85 51t107 18h127q43 0 75 -12t53.5 -33t32 -50.5t10.5 -64.5q0 -66 -38 -99t-125 -33h-178v91h143q39 0 39 35q0 37 -38 37h-102q-45 0 -73 -31t-28 -88t28 -85.5t73 -28.5h272v-137h-271zM262 539
q-31 0 -58.5 12t-48.5 34t-33 53t-12 69v69h129v-71q0 -31 12.5 -47.5t33.5 -16.5h73q21 0 33.5 16.5t12.5 47.5v71h129v-69q0 -38 -12 -69t-33 -53t-48.5 -34t-58.5 -12h-119z" />
    <glyph glyph-name="Edotaccent" unicode="&#x116;" horiz-adv-x="727" 
d="M55 0zM288 257v139h384v-139h-384zM55 0v650h624v-167h-449v-315h450v-168h-625zM363 699q-33 0 -54.5 19.5t-21.5 53.5q0 32 21.5 51.5t54.5 19.5h23q33 0 54 -19.5t21 -51.5q0 -34 -21 -53.5t-54 -19.5h-23z" />
    <glyph glyph-name="edotaccent" unicode="&#x117;" horiz-adv-x="624" 
d="M29 0zM297 0q-58 0 -107 18t-85 51t-56 79t-20 102q0 55 20 101t56 79t85 51t107 18h127q43 0 75 -12t53.5 -33t32 -50.5t10.5 -64.5q0 -66 -38 -99t-125 -33h-178v91h143q39 0 39 35q0 37 -38 37h-102q-45 0 -73 -31t-28 -88t28 -85.5t73 -28.5h272v-137h-271zM314 548
q-33 0 -54.5 19.5t-21.5 53.5q0 32 21.5 51.5t54.5 19.5h23q33 0 54 -19.5t21 -51.5q0 -34 -21 -53.5t-54 -19.5h-23z" />
    <glyph glyph-name="Eogonek" unicode="&#x118;" horiz-adv-x="727" 
d="M553 -273q-69 0 -104 28.5t-35 77.5q0 32 16 61t48 49l98 57h-521v650h624v-167h-449v-315h450v-168l-109 -66q-24 -14 -24 -35q0 -32 41 -32h102v-140h-137zM288 257v139h384v-139h-384z" />
    <glyph glyph-name="eogonek" unicode="&#x119;" horiz-adv-x="624" 
d="M441 -273q-70 0 -104.5 28.5t-34.5 77.5q0 32 16 61t48 49l98 57h-167q-58 0 -107 18t-85 51t-56 79t-20 102q0 55 20 101t56 79t85 51t107 18h127q43 0 75 -12t53.5 -33t32 -50.5t10.5 -64.5q0 -66 -38 -99t-125 -33h-178v91h143q39 0 39 35q0 37 -38 37h-102
q-45 0 -73 -31t-28 -88t28 -85.5t73 -28.5h272v-137l-110 -66q-24 -14 -24 -35q0 -32 42 -32h102v-140h-137z" />
    <glyph glyph-name="Ecaron" unicode="&#x11a;" horiz-adv-x="727" 
d="M55 0zM288 257v139h384v-139h-384zM55 0v650h624v-167h-449v-315h450v-168h-625zM279 690l-114 237h139l67 -145l68 145h141l-114 -237h-187z" />
    <glyph glyph-name="ecaron" unicode="&#x11b;" horiz-adv-x="624" 
d="M29 0zM297 0q-58 0 -107 18t-85 51t-56 79t-20 102q0 55 20 101t56 79t85 51t107 18h127q43 0 75 -12t53.5 -33t32 -50.5t10.5 -64.5q0 -66 -38 -99t-125 -33h-178v91h143q39 0 39 35q0 37 -38 37h-102q-45 0 -73 -31t-28 -88t28 -85.5t73 -28.5h272v-137h-271zM228 539
l-114 237h139l67 -145l68 145h141l-114 -237h-187z" />
    <glyph glyph-name="Gbreve" unicode="&#x11e;" horiz-adv-x="781" 
d="M34 0zM378 0q-75 0 -138 23.5t-108.5 66t-71.5 102.5t-26 133t26 132.5t71.5 102.5t108.5 66.5t138 23.5h348v-167h-360q-34 0 -63 -11.5t-50 -32.5t-33 -50t-12 -64t12 -64t33 -49.5t50 -32t63 -11.5h194v89h-211v139h377v-396h-348zM370 690q-31 0 -58.5 12t-48.5 34
t-33 53t-12 69v69h129v-71q0 -31 12.5 -47.5t33.5 -16.5h73q21 0 33.5 16.5t12.5 47.5v71h129v-69q0 -38 -12 -69t-33 -53t-48.5 -34t-58.5 -12h-119z" />
    <glyph glyph-name="gbreve" unicode="&#x11f;" horiz-adv-x="679" 
d="M29 0zM244 -174v152h126q55 0 76.5 23.5t21.5 71.5v202q0 71 -85 71h-85q-45 0 -73.5 -19.5t-28.5 -63.5q0 -45 31 -62t88 -17q23 0 50 2t54 7v-136q-28 -7 -60 -11t-65 -4q-130 0 -197.5 60.5t-67.5 162.5q0 56 20.5 99.5t57 73.5t88 45.5t114.5 15.5h91
q112 0 173.5 -61.5t61.5 -176.5v-189q0 -125 -63 -185.5t-203 -60.5h-125zM280 539q-31 0 -58.5 12t-48.5 34t-33 53t-12 69v69h129v-71q0 -31 12.5 -47.5t33.5 -16.5h73q21 0 33.5 16.5t12.5 47.5v71h129v-69q0 -38 -12 -69t-33 -53t-48.5 -34t-58.5 -12h-119z" />
    <glyph glyph-name="Gdotaccent" unicode="&#x120;" horiz-adv-x="781" 
d="M34 0zM378 0q-75 0 -138 23.5t-108.5 66t-71.5 102.5t-26 133t26 132.5t71.5 102.5t108.5 66.5t138 23.5h348v-167h-360q-34 0 -63 -11.5t-50 -32.5t-33 -50t-12 -64t12 -64t33 -49.5t50 -32t63 -11.5h194v89h-211v139h377v-396h-348zM420 699q-33 0 -54.5 19.5
t-21.5 53.5q0 32 21.5 51.5t54.5 19.5h23q33 0 54 -19.5t21 -51.5q0 -34 -21 -53.5t-54 -19.5h-23z" />
    <glyph glyph-name="gdotaccent" unicode="&#x121;" horiz-adv-x="679" 
d="M29 0zM244 -174v152h126q55 0 76.5 23.5t21.5 71.5v202q0 71 -85 71h-85q-45 0 -73.5 -19.5t-28.5 -63.5q0 -45 31 -62t88 -17q23 0 50 2t54 7v-136q-28 -7 -60 -11t-65 -4q-130 0 -197.5 60.5t-67.5 162.5q0 56 20.5 99.5t57 73.5t88 45.5t114.5 15.5h91
q112 0 173.5 -61.5t61.5 -176.5v-189q0 -125 -63 -185.5t-203 -60.5h-125zM328 548q-33 0 -54.5 19.5t-21.5 53.5q0 32 21.5 51.5t54.5 19.5h23q33 0 54 -19.5t21 -51.5q0 -34 -21 -53.5t-54 -19.5h-23z" />
    <glyph glyph-name="Gcommaaccent" unicode="&#x122;" horiz-adv-x="781" 
d="M34 0zM378 0q-75 0 -138 23.5t-108.5 66t-71.5 102.5t-26 133t26 132.5t71.5 102.5t108.5 66.5t138 23.5h348v-167h-360q-34 0 -63 -11.5t-50 -32.5t-33 -50t-12 -64t12 -64t33 -49.5t50 -32t63 -11.5h194v89h-211v139h377v-396h-348zM333 -273l38 237h154l-75 -237h-117
z" />
    <glyph glyph-name="gcommaaccent" unicode="&#x123;" horiz-adv-x="679" 
d="M29 0zM244 -174v152h126q55 0 76.5 23.5t21.5 71.5v202q0 71 -85 71h-85q-45 0 -73.5 -19.5t-28.5 -63.5q0 -45 31 -62t88 -17q23 0 50 2t54 7v-136q-28 -7 -60 -11t-65 -4q-130 0 -197.5 60.5t-67.5 162.5q0 56 20.5 99.5t57 73.5t88 45.5t114.5 15.5h91
q112 0 173.5 -61.5t61.5 -176.5v-189q0 -125 -63 -185.5t-203 -60.5h-125zM285 541l41 129q-29 3 -43 22t-14 45q0 36 23.5 56.5t59.5 20.5h23q35 0 58 -20.5t23 -52.5q0 -22 -15 -55l-60 -145h-96z" />
    <glyph glyph-name="Hbar" unicode="&#x126;" horiz-adv-x="772" 
d="M55 0v480h-54v120h54v50h175v-50h312v50h175v-50h53v-120h-53v-480h-175v252h-254v159h254v69h-312v-480h-175z" />
    <glyph glyph-name="hbar" unicode="&#x127;" horiz-adv-x="681" 
d="M217 560v-70h171q124 0 187 -61.5t63 -175.5v-253h-167v253q0 86 -87 86h-167v-339h-168v560h-47v103h47v38h168v-38h211v-103h-211z" />
    <glyph glyph-name="hbar" unicode="&#x45b;" horiz-adv-x="681" 
d="M217 560v-70h171q124 0 187 -61.5t63 -175.5v-253h-167v253q0 86 -87 86h-167v-339h-168v560h-47v103h47v38h168v-38h211v-103h-211z" />
    <glyph glyph-name="Itilde" unicode="&#x128;" horiz-adv-x="365" 
d="M0 0zM95 0v650h175v-650h-175zM382.058 750q-18.8789 -27 -47.1982 -37t-51.918 -10q-27.375 0 -52.3906 10t-48.6143 21.5q-23.5996 11.5 -47.6709 21.5t-49.5586 10q-33.0381 0 -60.4141 -18q-27.375 -18 -44.3662 -38v123q18.8799 24 45.7822 35.5
q26.9033 11.5 54.2783 11.5q27.376 0 52.3906 -10q25.0156 -10 48.6143 -21.5q23.5996 -11.5 47.6709 -21.5t49.5586 -10q32.0947 0 58.5254 16.5q26.4316 16.5 45.3105 39.5v-123z" />
    <glyph glyph-name="itilde" unicode="&#x129;" horiz-adv-x="367" 
d="M0 0zM99 0v499h167v-499h-167zM390.029 595q-19.4404 -27 -48.5996 -37t-53.459 -10q-28.1875 0 -53.9453 10t-50.0576 21.5q-24.2988 11.5 -49.085 21.5q-24.7852 10 -51.0293 10q-34.0195 0 -62.207 -18t-45.6826 -38v123q19.4395 24 47.1406 35.5
q27.7021 11.5 55.8896 11.5t53.9453 -10q25.7568 -10 50.0566 -21.5t49.085 -21.5q24.7861 -10 51.0293 -10q33.0479 0 60.2637 16.5q27.2148 16.5 46.6553 39.5v-123z" />
    <glyph glyph-name="Imacron" unicode="&#x12a;" horiz-adv-x="374" 
d="M0 0zM100 0v650h175v-650h-175zM-20.0361 720v120h414.065v-120h-414.065z" />
    <glyph glyph-name="imacron" unicode="&#x12b;" horiz-adv-x="388" 
d="M0 0zM110 0v499h167v-499h-167zM-14.0361 569v120h414.065v-120h-414.065z" />
    <glyph glyph-name="Ibreve" unicode="&#x12c;" horiz-adv-x="348" 
d="M0 0zM87 0v650h175v-650h-175zM115 690q-31 0 -58.5 12t-48.5 34t-33 53t-12 69v69h129v-71q0 -31 12.5 -47.5t33.5 -16.5h73q21 0 33.5 16.5t12.5 47.5v71h129v-69q0 -38 -12 -69t-33 -53t-48.5 -34t-58.5 -12h-119z" />
    <glyph glyph-name="ibreve" unicode="&#x12d;" horiz-adv-x="357" 
d="M0 0zM95 0v499h167v-499h-167zM120 539q-31 0 -58.5 12t-48.5 34t-33 53t-12 69v69h129v-71q0 -31 12.5 -47.5t33.5 -16.5h73q21 0 33.5 16.5t12.5 47.5v71h129v-69q0 -38 -12 -69t-33 -53t-48.5 -34t-58.5 -12h-119z" />
    <glyph glyph-name="Iogonek" unicode="&#x12e;" horiz-adv-x="285" 
d="M103 -273q-70 0 -104.5 28.5t-34.5 77.5q0 32 16 61t48 49l98 57h-71v650h175v-650l-110 -66q-24 -14 -24 -35q0 -32 42 -32h102v-140h-137z" />
    <glyph glyph-name="iogonek" unicode="&#x12f;" horiz-adv-x="274" 
d="M98 -273q-70 0 -104.5 28.5t-34.5 77.5q0 32 16 61t48 49l98 57h-63v499h167v-499l-109 -66q-24 -15 -24 -35q0 -32 41 -32h102v-140h-137zM131 548q-34 0 -55 19.5t-21 53.5q0 32 21 51.5t55 19.5h23q33 0 54 -19.5t21 -51.5q0 -34 -21 -53.5t-54 -19.5h-23z" />
    <glyph glyph-name="Idotaccent" unicode="&#x130;" horiz-adv-x="285" 
d="M55 0zM55 0v650h175v-650h-175zM131 699q-33 0 -54.5 19.5t-21.5 53.5q0 32 21.5 51.5t54.5 19.5h23q33 0 54 -19.5t21 -51.5q0 -34 -21 -53.5t-54 -19.5h-23z" />
    <glyph glyph-name="dotlessi" unicode="&#x131;" horiz-adv-x="266" 
d="M49 0v499h167v-499h-167z" />
    <glyph glyph-name="IJ" unicode="&#x132;" horiz-adv-x="930" 
d="M55 0zM55 0v650h175v-650h-175zM304 0v168h224q95 0 136 34.5t41 110.5v337h176v-354q0 -152 -80.5 -224t-254.5 -72h-242z" />
    <glyph glyph-name="ij" unicode="&#x133;" horiz-adv-x="552" 
d="M46 0zM49 0v499h167v-499h-167zM122 548q-33 0 -54.5 19.5t-21.5 53.5q0 32 21.5 51.5t54.5 19.5h23q33 0 54 -19.5t21 -51.5q0 -34 -21 -53.5t-54 -19.5h-23zM221 -174v144h54q60 0 60 60v469h167v-490q0 -87 -46 -135t-136 -48h-99zM408 548q-33 0 -54.5 19.5
t-21.5 53.5q0 32 21.5 51.5t54.5 19.5h23q33 0 54 -19.5t21 -51.5q0 -34 -21 -53.5t-54 -19.5h-23z" />
    <glyph glyph-name="Kcommaaccent" unicode="&#x136;" horiz-adv-x="794" 
d="M55 0zM559 0l-266 273q-12 14 -18 25.5t-6 27.5v16q0 28 23 53l257 255h224l-313 -314l329 -336h-230zM55 0v650h175v-650h-175zM279 -273l38 237h154l-75 -237h-117z" />
    <glyph glyph-name="kcommaaccent" unicode="&#x137;" horiz-adv-x="633" 
d="M49 0zM435 0l-171 209q-8 11 -12 20.5t-4 20.5v12q0 22 15 42l166 195h188l-200 -242l210 -257h-192zM49 0v701h167v-701h-167zM206 -273l38 237h154l-75 -237h-117z" />
    <glyph glyph-name="Lacute" unicode="&#x139;" horiz-adv-x="647" 
d="M55 0zM55 0v650h176v-482h396v-168h-572zM76 690l103 237h154l-114 -237h-143z" />
    <glyph glyph-name="lacute" unicode="&#x13a;" horiz-adv-x="269" 
d="M49 0zM49 0v701h167v-701h-167zM57.3613 723.689l101.503 203.007h151.764l-112.345 -203.007h-140.922z" />
    <glyph glyph-name="Lcommaaccent" unicode="&#x13b;" horiz-adv-x="647" 
d="M55 0zM55 0v650h176v-482h396v-168h-572zM236 -273l38 237h154l-75 -237h-117z" />
    <glyph glyph-name="lcommaaccent" unicode="&#x13c;" horiz-adv-x="266" 
d="M12 0zM49 0v701h167v-701h-167zM12 -273l38 237h154l-75 -237h-117z" />
    <glyph glyph-name="Lcaron" unicode="&#x13d;" horiz-adv-x="647" 
d="M55 0zM55 0v650h176v-482h396v-168h-572zM306 413l38 237h154l-75 -237h-117z" />
    <glyph glyph-name="lcaron" unicode="&#x13e;" horiz-adv-x="411" 
d="M49 0zM49 0v701h167v-701h-167zM256 464l38 237h154l-75 -237h-117z" />
    <glyph glyph-name="Lslash" unicode="&#x141;" horiz-adv-x="669" 
d="M254 376v-208h396v-168h-572v332l-76 -19v126l76 19v192h176v-148l131 34v-126z" />
    <glyph glyph-name="lslash" unicode="&#x142;" horiz-adv-x="379" 
d="M106 0v299l-108 -27v126l108 27v276h167v-234l108 28v-126l-108 -28v-341h-167z" />
    <glyph glyph-name="Nacute" unicode="&#x143;" horiz-adv-x="814" 
d="M55 0zM660 0q-35 0 -55 13t-45 42l-335 362v-417h-170v576q0 74 81 74h42q20 0 35 -3t27 -9t22.5 -15t21.5 -21l307 -331v379h169v-583q0 -67 -65 -67h-35zM307 690l103 237h154l-114 -237h-143z" />
    <glyph glyph-name="nacute" unicode="&#x144;" horiz-adv-x="681" 
d="M49 0zM471 0v262q0 85 -87 85h-167v-347h-168v499h339q124 0 187 -62t63 -176v-261h-167zM241 539l103 237h154l-114 -237h-143z" />
    <glyph glyph-name="Ncommaaccent" unicode="&#x145;" horiz-adv-x="814" 
d="M55 0zM660 0q-35 0 -55 13t-45 42l-335 362v-417h-170v576q0 74 81 74h42q20 0 35 -3t27 -9t22.5 -15t21.5 -21l307 -331v379h169v-583q0 -67 -65 -67h-35zM310 -273l38 237h154l-75 -237h-117z" />
    <glyph glyph-name="ncommaaccent" unicode="&#x146;" horiz-adv-x="681" 
d="M49 0zM471 0v262q0 85 -87 85h-167v-347h-168v499h339q124 0 187 -62t63 -176v-261h-167zM230 -273l38 237h154l-75 -237h-117z" />
    <glyph glyph-name="Ncaron" unicode="&#x147;" horiz-adv-x="814" 
d="M55 0zM660 0q-35 0 -55 13t-45 42l-335 362v-417h-170v576q0 74 81 74h42q20 0 35 -3t27 -9t22.5 -15t21.5 -21l307 -331v379h169v-583q0 -67 -65 -67h-35zM314 690l-114 237h139l67 -145l68 145h141l-114 -237h-187z" />
    <glyph glyph-name="ncaron" unicode="&#x148;" horiz-adv-x="681" 
d="M49 0zM471 0v262q0 85 -87 85h-167v-347h-168v499h339q124 0 187 -62t63 -176v-261h-167zM247 539l-114 237h139l67 -145l68 145h141l-114 -237h-187z" />
    <glyph glyph-name="Eng" unicode="&#x14a;" horiz-adv-x="814" 
d="M474 -174v144h32q39 0 60 9.5t24 44.5l-365 393v-417h-170v576q0 74 81 74q34 0 58.5 -3.5t43 -12t33.5 -21t32 -30.5l288 -312v379h169v-639q0 -88 -46 -136.5t-139 -48.5h-101z" />
    <glyph glyph-name="eng" unicode="&#x14b;" horiz-adv-x="681" 
d="M355 -174v144h55q61 0 61 63v229q0 85 -87 85h-167v-347h-168v499h339q124 0 187 -62t63 -176v-252q0 -87 -45.5 -135t-136.5 -48h-101z" />
    <glyph glyph-name="Omacron" unicode="&#x14c;" horiz-adv-x="849" 
d="M34 0zM484 168q34 0 63 11.5t50 32t32.5 49.5t11.5 64t-11.5 64t-32.5 50t-50 32.5t-63 11.5h-118q-34 0 -63 -11.5t-50 -32.5t-33 -50t-12 -64t11.5 -64t32.5 -49.5t50 -32t64 -11.5h118zM378 0q-75 0 -138 23.5t-108.5 66t-71.5 102.5t-26 133t26 132.5t71.5 102.5
t108.5 66.5t138 23.5h94q74 0 137 -23.5t108.5 -66.5t71.5 -102.5t26 -132.5t-26 -133t-71.5 -102.5t-108.5 -66t-137 -23.5h-94zM210 720v120h426v-120h-426z" />
    <glyph glyph-name="omacron" unicode="&#x14d;" horiz-adv-x="664" 
d="M29 0zM367 152q44 0 72.5 27t28.5 71t-28.5 70.5t-72.5 26.5h-71q-45 0 -73 -26.5t-28 -70.5t28 -71t73 -27h71zM297 0q-58 0 -107 18t-85 51t-56 79t-20 102q0 55 20 101t56 79t85 51t107 18h70q58 0 107 -18t85 -51t56 -79t20 -101q0 -56 -20 -102t-56 -79t-85 -51
t-107 -18h-70zM118 569v120h426v-120h-426z" />
    <glyph glyph-name="Obreve" unicode="&#x14e;" horiz-adv-x="849" 
d="M34 0zM484 168q34 0 63 11.5t50 32t32.5 49.5t11.5 64t-11.5 64t-32.5 50t-50 32.5t-63 11.5h-118q-34 0 -63 -11.5t-50 -32.5t-33 -50t-12 -64t11.5 -64t32.5 -49.5t50 -32t64 -11.5h118zM378 0q-75 0 -138 23.5t-108.5 66t-71.5 102.5t-26 133t26 132.5t71.5 102.5
t108.5 66.5t138 23.5h94q74 0 137 -23.5t108.5 -66.5t71.5 -102.5t26 -132.5t-26 -133t-71.5 -102.5t-108.5 -66t-137 -23.5h-94zM364 690q-31 0 -58.5 12t-48.5 34t-33 53t-12 69v69h129v-71q0 -31 12.5 -47.5t33.5 -16.5h73q21 0 33.5 16.5t12.5 47.5v71h129v-69
q0 -38 -12 -69t-33 -53t-48.5 -34t-58.5 -12h-119z" />
    <glyph glyph-name="obreve" unicode="&#x14f;" horiz-adv-x="664" 
d="M29 0zM367 152q44 0 72.5 27t28.5 71t-28.5 70.5t-72.5 26.5h-71q-45 0 -73 -26.5t-28 -70.5t28 -71t73 -27h71zM297 0q-58 0 -107 18t-85 51t-56 79t-20 102q0 55 20 101t56 79t85 51t107 18h70q58 0 107 -18t85 -51t56 -79t20 -101q0 -56 -20 -102t-56 -79t-85 -51
t-107 -18h-70zM272 539q-31 0 -58.5 12t-48.5 34t-33 53t-12 69v69h129v-71q0 -31 12.5 -47.5t33.5 -16.5h73q21 0 33.5 16.5t12.5 47.5v71h129v-69q0 -38 -12 -69t-33 -53t-48.5 -34t-58.5 -12h-119z" />
    <glyph glyph-name="Ohungarumlaut" unicode="&#x150;" horiz-adv-x="849" 
d="M34 0zM484 168q34 0 63 11.5t50 32t32.5 49.5t11.5 64t-11.5 64t-32.5 50t-50 32.5t-63 11.5h-118q-34 0 -63 -11.5t-50 -32.5t-33 -50t-12 -64t11.5 -64t32.5 -49.5t50 -32t64 -11.5h118zM378 0q-75 0 -138 23.5t-108.5 66t-71.5 102.5t-26 133t26 132.5t71.5 102.5
t108.5 66.5t138 23.5h94q74 0 137 -23.5t108.5 -66.5t71.5 -102.5t26 -132.5t-26 -133t-71.5 -102.5t-108.5 -66t-137 -23.5h-94zM221 690l97 237h146l-108 -237h-135zM430 690l108 237h146l-117 -237h-137z" />
    <glyph glyph-name="ohungarumlaut" unicode="&#x151;" horiz-adv-x="664" 
d="M29 0zM367 152q44 0 72.5 27t28.5 71t-28.5 70.5t-72.5 26.5h-71q-45 0 -73 -26.5t-28 -70.5t28 -71t73 -27h71zM297 0q-58 0 -107 18t-85 51t-56 79t-20 102q0 55 20 101t56 79t85 51t107 18h70q58 0 107 -18t85 -51t56 -79t20 -101q0 -56 -20 -102t-56 -79t-85 -51
t-107 -18h-70zM129 539l97 237h146l-108 -237h-135zM338 539l108 237h146l-117 -237h-137z" />
    <glyph glyph-name="OE" unicode="&#x152;" horiz-adv-x="1188" 
d="M378 0q-75 0 -138 23.5t-108.5 66t-71.5 102.5t-26 133t26 132.5t71.5 102.5t108.5 66.5t138 23.5h762v-167h-420v-315h422v-168h-764zM553 483h-187q-34 0 -63 -11.5t-50 -32.5t-33 -50t-12 -64t12 -64t33 -49.5t50 -32t63 -11.5h187v315zM778 257v139h356v-139h-356z
" />
    <glyph glyph-name="oe" unicode="&#x153;" horiz-adv-x="995" 
d="M688 0q-56 0 -99 19.5t-72 50.5q-29 -31 -74 -50.5t-99 -19.5h-51q-58 0 -106.5 18t-83.5 51t-54.5 79t-19.5 102q0 55 19.5 101t54.5 79t83.5 51t106.5 18h51q54 0 99 -20t74 -49q29 29 72 49t99 20h108q86 0 127 -45t41 -114q0 -66 -37.5 -99.5t-124.5 -33.5h-148v91
h114q39 0 39 36t-36 36h-84q-40 0 -66 -31t-26 -88t26 -85.5t66 -28.5h251v-137h-250zM344 152q39 0 67 27t28 71t-28 70.5t-67 26.5h-52q-43 0 -70 -26.5t-27 -70.5t27 -71t70 -27h52z" />
    <glyph glyph-name="Racute" unicode="&#x154;" horiz-adv-x="797" 
d="M55 0zM563 0l-130 165h-154v152h224q36 0 59 22.5t23 60.5t-23 60.5t-59 22.5h-274v-483h-174v650h448q56 0 103 -17.5t81.5 -49.5t53.5 -77t19 -99q0 -75 -36 -131t-97 -85l164 -191h-228zM298 690l103 237h154l-114 -237h-143z" />
    <glyph glyph-name="racute" unicode="&#x155;" horiz-adv-x="448" 
d="M44 0zM44 0v261q0 114 63 176t186 62h140v-152h-136q-86 0 -86 -85v-262h-167zM153 539l103 237h154l-114 -237h-143z" />
    <glyph glyph-name="Rcommaaccent" unicode="&#x156;" horiz-adv-x="797" 
d="M55 0zM563 0l-130 165h-154v152h224q36 0 59 22.5t23 60.5t-23 60.5t-59 22.5h-274v-483h-174v650h448q56 0 103 -17.5t81.5 -49.5t53.5 -77t19 -99q0 -75 -36 -131t-97 -85l164 -191h-228zM291 -273l38 237h154l-75 -237h-117z" />
    <glyph glyph-name="rcommaaccent" unicode="&#x157;" horiz-adv-x="448" 
d="M25 0zM44 0v261q0 114 63 176t186 62h140v-152h-136q-86 0 -86 -85v-262h-167zM25 -273l38 237h154l-75 -237h-117z" />
    <glyph glyph-name="Rcaron" unicode="&#x158;" horiz-adv-x="797" 
d="M55 0zM563 0l-130 165h-154v152h224q36 0 59 22.5t23 60.5t-23 60.5t-59 22.5h-274v-483h-174v650h448q56 0 103 -17.5t81.5 -49.5t53.5 -77t19 -99q0 -75 -36 -131t-97 -85l164 -191h-228zM305 690l-114 237h139l67 -145l68 145h141l-114 -237h-187z" />
    <glyph glyph-name="rcaron" unicode="&#x159;" horiz-adv-x="448" 
d="M44 0zM44 0v261q0 114 63 176t186 62h140v-152h-136q-86 0 -86 -85v-262h-167zM160 539l-114 237h139l67 -145l68 145h141l-114 -237h-187z" />
    <glyph glyph-name="Sacute" unicode="&#x15a;" horiz-adv-x="773" 
d="M31 0zM39 0v168h486q19 0 31 11.5t12 32.5t-12 33t-31 12h-286q-45 0 -83.5 14.5t-66 40t-43 61.5t-15.5 80t15.5 80.5t43 62.5t66 40t83.5 14h494v-167h-486q-19 0 -30.5 -11t-11.5 -32q0 -20 11.5 -32t30.5 -12h286q46 0 84 -14.5t66 -40.5t43.5 -62.5t15.5 -79.5
q0 -45 -15.5 -81.5t-43.5 -63t-66 -40.5t-84 -14h-494zM296 690l103 237h154l-114 -237h-143z" />
    <glyph glyph-name="sacute" unicode="&#x15b;" horiz-adv-x="599" 
d="M23 0zM29 0v137h352q35 0 35 32q0 31 -35 31h-196q-38 0 -68 11.5t-51 31.5t-32 47.5t-11 59.5q0 34 12 61.5t34 47t51 30t64 10.5h367v-137h-336q-34 0 -34 -31t34 -31h200q77 0 119 -42t42 -107q0 -35 -12 -62.5t-33.5 -47.5t-51 -30.5t-64.5 -10.5h-386zM210 539
l103 237h154l-114 -237h-143z" />
    <glyph glyph-name="Scedilla" unicode="&#x15e;" horiz-adv-x="773" 
d="M31 0zM39 0v168h486q19 0 31 11.5t12 32.5t-12 33t-31 12h-286q-45 0 -83.5 14.5t-66 40t-43 61.5t-15.5 80t15.5 80.5t43 62.5t66 40t83.5 14h494v-167h-486q-19 0 -30.5 -11t-11.5 -32q0 -20 11.5 -32t30.5 -12h286q46 0 84 -14.5t66 -40.5t43.5 -62.5t15.5 -79.5
q0 -45 -15.5 -81.5t-43.5 -63t-66 -40.5t-84 -14h-494zM289 -273l38 237h154l-75 -237h-117z" />
    <glyph glyph-name="Scedilla" unicode="&#x218;" horiz-adv-x="773" 
d="M31 0zM39 0v168h486q19 0 31 11.5t12 32.5t-12 33t-31 12h-286q-45 0 -83.5 14.5t-66 40t-43 61.5t-15.5 80t15.5 80.5t43 62.5t66 40t83.5 14h494v-167h-486q-19 0 -30.5 -11t-11.5 -32q0 -20 11.5 -32t30.5 -12h286q46 0 84 -14.5t66 -40.5t43.5 -62.5t15.5 -79.5
q0 -45 -15.5 -81.5t-43.5 -63t-66 -40.5t-84 -14h-494zM289 -273l38 237h154l-75 -237h-117z" />
    <glyph glyph-name="scedilla" unicode="&#x15f;" horiz-adv-x="599" 
d="M23 0zM29 0v137h352q35 0 35 32q0 31 -35 31h-196q-38 0 -68 11.5t-51 31.5t-32 47.5t-11 59.5q0 34 12 61.5t34 47t51 30t64 10.5h367v-137h-336q-34 0 -34 -31t34 -31h200q77 0 119 -42t42 -107q0 -35 -12 -62.5t-33.5 -47.5t-51 -30.5t-64.5 -10.5h-386zM187 -273
l38 237h154l-75 -237h-117z" />
    <glyph glyph-name="scedilla" unicode="&#x219;" horiz-adv-x="599" 
d="M23 0zM29 0v137h352q35 0 35 32q0 31 -35 31h-196q-38 0 -68 11.5t-51 31.5t-32 47.5t-11 59.5q0 34 12 61.5t34 47t51 30t64 10.5h367v-137h-336q-34 0 -34 -31t34 -31h200q77 0 119 -42t42 -107q0 -35 -12 -62.5t-33.5 -47.5t-51 -30.5t-64.5 -10.5h-386zM187 -273
l38 237h154l-75 -237h-117z" />
    <glyph glyph-name="Scaron" unicode="&#x160;" horiz-adv-x="773" 
d="M31 0zM39 0v168h486q19 0 31 11.5t12 32.5t-12 33t-31 12h-286q-45 0 -83.5 14.5t-66 40t-43 61.5t-15.5 80t15.5 80.5t43 62.5t66 40t83.5 14h494v-167h-486q-19 0 -30.5 -11t-11.5 -32q0 -20 11.5 -32t30.5 -12h286q46 0 84 -14.5t66 -40.5t43.5 -62.5t15.5 -79.5
q0 -45 -15.5 -81.5t-43.5 -63t-66 -40.5t-84 -14h-494zM303 690l-114 237h139l67 -145l68 145h141l-114 -237h-187z" />
    <glyph glyph-name="scaron" unicode="&#x161;" horiz-adv-x="599" 
d="M23 0zM29 0v137h352q35 0 35 32q0 31 -35 31h-196q-38 0 -68 11.5t-51 31.5t-32 47.5t-11 59.5q0 34 12 61.5t34 47t51 30t64 10.5h367v-137h-336q-34 0 -34 -31t34 -31h200q77 0 119 -42t42 -107q0 -35 -12 -62.5t-33.5 -47.5t-51 -30.5t-64.5 -10.5h-386zM215 539
l-114 237h139l67 -145l68 145h141l-114 -237h-187z" />
    <glyph glyph-name="Tcaron" unicode="&#x164;" horiz-adv-x="693" 
d="M20 0zM259 0v483h-239v167h653v-167h-239v-483h-175zM253 690l-114 237h139l67 -145l68 145h141l-114 -237h-187z" />
    <glyph glyph-name="tcaron" unicode="&#x165;" horiz-adv-x="586" 
d="M44 0zM226 0q-91 0 -136.5 47.5t-45.5 135.5v458h166v-142h200v-138h-200v-165q0 -59 59 -59h136v-137h-179zM431 464l38 237h154l-75 -237h-117z" />
    <glyph glyph-name="Tbar" unicode="&#x166;" horiz-adv-x="693" 
d="M259 0v228h-126v119h126v136h-239v167h653v-167h-239v-136h125v-119h-125v-228h-175z" />
    <glyph glyph-name="tbar" unicode="&#x167;" horiz-adv-x="447" 
d="M210 204q0 -35 14.5 -51t44.5 -16h136v-137h-179q-91 0 -136.5 47.5t-45.5 135.5v21h-42v97h42v340h166v-142h200v-138h-200v-60h202v-97h-202z" />
    <glyph glyph-name="Utilde" unicode="&#x168;" horiz-adv-x="836" 
d="M49 0zM346 0q-65 0 -119 20.5t-94 57.5t-62 88.5t-22 113.5v370h176v-357q0 -57 35 -91t89 -34h138q54 0 89 34t35 91v357h176v-370q0 -62 -22 -113.5t-62 -88.5t-94.5 -57.5t-118.5 -20.5h-144zM631 746q-20 -27 -50 -37t-55 -10q-29 0 -55.5 10t-51.5 21.5t-50.5 21.5
t-52.5 10q-35 0 -64 -18t-47 -38v123q20 24 48.5 35.5t57.5 11.5t55.5 -10t51.5 -21.5t50.5 -21.5t52.5 -10q34 0 62 16.5t48 39.5v-123z" />
    <glyph glyph-name="utilde" unicode="&#x169;" horiz-adv-x="684" 
d="M44 0zM294 0q-125 0 -187.5 61.5t-62.5 176.5v261h167v-261q0 -86 87 -86h88q87 0 87 86v261h167v-261q0 -115 -62.5 -176.5t-187.5 -61.5h-96zM555 595q-20 -27 -50 -37t-55 -10q-29 0 -55.5 10t-51.5 21.5t-50.5 21.5t-52.5 10q-35 0 -64 -18t-47 -38v123
q20 24 48.5 35.5t57.5 11.5t55.5 -10t51.5 -21.5t50.5 -21.5t52.5 -10q34 0 62 16.5t48 39.5v-123z" />
    <glyph glyph-name="Umacron" unicode="&#x16a;" horiz-adv-x="836" 
d="M49 0zM346 0q-65 0 -119 20.5t-94 57.5t-62 88.5t-22 113.5v370h176v-357q0 -57 35 -91t89 -34h138q54 0 89 34t35 91v357h176v-370q0 -62 -22 -113.5t-62 -88.5t-94.5 -57.5t-118.5 -20.5h-144zM205 720v120h426v-120h-426z" />
    <glyph glyph-name="umacron" unicode="&#x16b;" horiz-adv-x="684" 
d="M44 0zM294 0q-125 0 -187.5 61.5t-62.5 176.5v261h167v-261q0 -86 87 -86h88q87 0 87 86v261h167v-261q0 -115 -62.5 -176.5t-187.5 -61.5h-96zM129 569v120h426v-120h-426z" />
    <glyph glyph-name="Uring" unicode="&#x16e;" horiz-adv-x="836" 
d="M49 0zM346 0q-65 0 -119 20.5t-94 57.5t-62 88.5t-22 113.5v370h176v-357q0 -57 35 -91t89 -34h138q54 0 89 34t35 91v357h176v-370q0 -62 -22 -113.5t-62 -88.5t-94.5 -57.5t-118.5 -20.5h-144zM437 744q22 0 36.5 14.5t14.5 37.5t-14.5 37.5t-36.5 14.5h-38
q-22 0 -36.5 -14.5t-14.5 -37.5t14.5 -37.5t36.5 -14.5h38zM399 663q-30 0 -55 10t-44 27.5t-29.5 42t-10.5 53.5t10.5 53t29.5 41.5t44 27t55 9.5h38q30 0 55.5 -9.5t44 -27t29 -41.5t10.5 -53t-10.5 -53.5t-29 -42t-44 -27.5t-55.5 -10h-38z" />
    <glyph glyph-name="uring" unicode="&#x16f;" horiz-adv-x="684" 
d="M44 0zM294 0q-125 0 -187.5 61.5t-62.5 176.5v261h167v-261q0 -86 87 -86h88q87 0 87 86v261h167v-261q0 -115 -62.5 -176.5t-187.5 -61.5h-96zM361 593q22 0 36.5 14.5t14.5 37.5t-14.5 37.5t-36.5 14.5h-38q-22 0 -36.5 -14.5t-14.5 -37.5t14.5 -37.5t36.5 -14.5h38z
M323 512q-30 0 -55 10t-44 27.5t-29.5 42t-10.5 53.5t10.5 53t29.5 41.5t44 27t55 9.5h38q30 0 55.5 -9.5t44 -27t29 -41.5t10.5 -53t-10.5 -53.5t-29 -42t-44 -27.5t-55.5 -10h-38z" />
    <glyph glyph-name="Uhungarumlaut" unicode="&#x170;" horiz-adv-x="836" 
d="M49 0zM346 0q-65 0 -119 20.5t-94 57.5t-62 88.5t-22 113.5v370h176v-357q0 -57 35 -91t89 -34h138q54 0 89 34t35 91v357h176v-370q0 -62 -22 -113.5t-62 -88.5t-94.5 -57.5t-118.5 -20.5h-144zM215 690l97 237h146l-108 -237h-135zM424 690l108 237h146l-117 -237h-137
z" />
    <glyph glyph-name="uhungarumlaut" unicode="&#x171;" horiz-adv-x="684" 
d="M44 0zM294 0q-125 0 -187.5 61.5t-62.5 176.5v261h167v-261q0 -86 87 -86h88q87 0 87 86v261h167v-261q0 -115 -62.5 -176.5t-187.5 -61.5h-96zM139 539l97 237h146l-108 -237h-135zM348 539l108 237h146l-117 -237h-137z" />
    <glyph glyph-name="Uogonek" unicode="&#x172;" horiz-adv-x="836" 
d="M381 -273q-69 0 -104 28.5t-35 77.5q0 32 16.5 61t48.5 49l95 57h-56q-65 0 -119 20.5t-94 57.5t-62 88.5t-22 113.5v370h176v-357q0 -57 35 -91t89 -34h138q54 0 89 34t35 91v357h176v-370q0 -60 -21 -110t-58 -87t-88 -58.5t-112 -24.5l-109 -66q-24 -14 -24 -35
q0 -32 42 -32h102v-140h-138z" />
    <glyph glyph-name="uogonek" unicode="&#x173;" horiz-adv-x="684" 
d="M318 -273q-69 0 -104 28.5t-35 77.5q0 32 16.5 61.5t48.5 49.5l90 56h-40q-125 0 -187.5 61.5t-62.5 176.5v261h167v-261q0 -86 87 -86h88q87 0 87 86v261h167v-261q0 -101 -49.5 -161t-146.5 -74l-108 -68q-24 -15 -24 -36q0 -32 42 -32h102v-140h-138z" />
    <glyph glyph-name="Wcircumflex" unicode="&#x174;" horiz-adv-x="1007" 
d="M13 0zM703 0q-30 0 -51 15.5t-31 47.5l-117 389l-118 -389q-19 -63 -83 -63h-73q-32 0 -54.5 16.5t-30.5 57.5l-132 576h173l96 -418l113 356q19 62 82 62h53q64 0 82 -62l113 -363l96 425h174l-133 -576q-9 -41 -30.5 -57.5t-55.5 -16.5h-73zM571 690l-67 146l-66 -146
h-143l114 237h187l114 -237h-139z" />
    <glyph glyph-name="wcircumflex" unicode="&#x175;" horiz-adv-x="887" 
d="M11 0zM617 0q-28 0 -47 12t-27 37l-98 292l-101 -292q-16 -49 -74 -49h-67q-29 0 -48.5 13t-27.5 45l-116 441h159l79 -320l94 271q16 49 74 49h54q57 0 72 -49l96 -277l77 326h160l-117 -441q-8 -32 -27 -45t-48 -13h-67zM512 539l-67 146l-66 -146h-143l114 237h187
l114 -237h-139z" />
    <glyph glyph-name="Ycircumflex" unicode="&#x176;" horiz-adv-x="774" 
d="M2 0zM300 0v229l-298 421h205l184 -259l185 259h196l-297 -421v-229h-175zM455 690l-67 146l-66 -146h-143l114 237h187l114 -237h-139z" />
    <glyph glyph-name="ycircumflex" unicode="&#x177;" horiz-adv-x="657" 
d="M9 0zM117 -174v144h53q32 0 50 13t29 32l-240 484h169l148 -320l152 320h170l-277 -548q-16 -32 -33.5 -55.5t-39.5 -39t-49.5 -23t-63.5 -7.5h-68zM397 539l-67 146l-66 -146h-143l114 237h187l114 -237h-139z" />
    <glyph glyph-name="Ydieresis" unicode="&#x178;" horiz-adv-x="774" 
d="M2 0zM300 0v229l-298 421h205l184 -259l185 259h196l-297 -421v-229h-175zM271 699q-34 0 -55 20t-21 53q0 32 21 51.5t55 19.5h15q33 0 54.5 -19.5t21.5 -51.5q0 -33 -21.5 -53t-54.5 -20h-15zM487 699q-34 0 -55.5 20t-21.5 53q0 32 21.5 51.5t55.5 19.5h14
q34 0 55.5 -19.5t21.5 -51.5q0 -33 -21.5 -53t-55.5 -20h-14z" />
    <glyph glyph-name="Ydieresis" unicode="&#x3ab;" horiz-adv-x="774" 
d="M2 0zM300 0v229l-298 421h205l184 -259l185 259h196l-297 -421v-229h-175zM271 699q-34 0 -55 20t-21 53q0 32 21 51.5t55 19.5h15q33 0 54.5 -19.5t21.5 -51.5q0 -33 -21.5 -53t-54.5 -20h-15zM487 699q-34 0 -55.5 20t-21.5 53q0 32 21.5 51.5t55.5 19.5h14
q34 0 55.5 -19.5t21.5 -51.5q0 -33 -21.5 -53t-55.5 -20h-14z" />
    <glyph glyph-name="Zacute" unicode="&#x179;" horiz-adv-x="731" 
d="M42 0zM117 0q-75 0 -75 71v40q0 30 9.5 50t39.5 44l321 282h-370v163h579q67 0 67 -57v-33q0 -26 -11 -43t-34 -36l-363 -317h408v-164h-571zM266 690l103 237h154l-114 -237h-143z" />
    <glyph glyph-name="zacute" unicode="&#x17a;" horiz-adv-x="599" 
d="M34 0zM95 0q-61 0 -61 55v37q0 24 7 40t33 35l236 188h-276v144h475q55 0 55 -45v-32q0 -19 -6 -32.5t-25 -27.5l-269 -216h300v-146h-469zM200 539l103 237h154l-114 -237h-143z" />
    <glyph glyph-name="Zdotaccent" unicode="&#x17b;" horiz-adv-x="731" 
d="M42 0zM117 0q-75 0 -75 71v40q0 30 9.5 50t39.5 44l321 282h-370v163h579q67 0 67 -57v-33q0 -26 -11 -43t-34 -36l-363 -317h408v-164h-571zM353 699q-33 0 -54.5 19.5t-21.5 53.5q0 32 21.5 51.5t54.5 19.5h23q33 0 54 -19.5t21 -51.5q0 -34 -21 -53.5t-54 -19.5h-23z
" />
    <glyph glyph-name="zdotaccent" unicode="&#x17c;" horiz-adv-x="599" 
d="M34 0zM95 0q-61 0 -61 55v37q0 24 7 40t33 35l236 188h-276v144h475q55 0 55 -45v-32q0 -19 -6 -32.5t-25 -27.5l-269 -216h300v-146h-469zM287 548q-33 0 -54.5 19.5t-21.5 53.5q0 32 21.5 51.5t54.5 19.5h23q33 0 54 -19.5t21 -51.5q0 -34 -21 -53.5t-54 -19.5h-23z
" />
    <glyph glyph-name="Zcaron" unicode="&#x17d;" horiz-adv-x="731" 
d="M42 0zM117 0q-75 0 -75 71v40q0 30 9.5 50t39.5 44l321 282h-370v163h579q67 0 67 -57v-33q0 -26 -11 -43t-34 -36l-363 -317h408v-164h-571zM271 690l-114 237h139l67 -145l68 145h141l-114 -237h-187z" />
    <glyph glyph-name="zcaron" unicode="&#x17e;" horiz-adv-x="599" 
d="M34 0zM95 0q-61 0 -61 55v37q0 24 7 40t33 35l236 188h-276v144h475q55 0 55 -45v-32q0 -19 -6 -32.5t-25 -27.5l-269 -216h300v-146h-469zM205 539l-114 237h139l67 -145l68 145h141l-114 -237h-187z" />
    <glyph glyph-name="uni018E" unicode="&#x18e;" horiz-adv-x="727" 
d="M439 395v-139h-385v139h385zM671 650v-650h-624v167h450v315h-451v168h625z" />
    <glyph glyph-name="uni018F" unicode="&#x18f;" 
d="M62 483v167h305q74 0 137 -23t109 -66.5t72 -106t26 -140.5q0 -72 -22 -130t-63.5 -99t-101.5 -63t-136 -22h-125q-60 0 -103 15.5t-70.5 43t-40.5 66t-13 84.5q0 84 45.5 132t144.5 48h306q-29 94 -153 94h-317zM220 213q0 -23 12 -35.5t38 -12.5h112q123 0 150 94h-269
q-43 0 -43 -46z" />
    <glyph glyph-name="uni018F" unicode="&#x4d8;" 
d="M62 483v167h305q74 0 137 -23t109 -66.5t72 -106t26 -140.5q0 -72 -22 -130t-63.5 -99t-101.5 -63t-136 -22h-125q-60 0 -103 15.5t-70.5 43t-40.5 66t-13 84.5q0 84 45.5 132t144.5 48h306q-29 94 -153 94h-317zM220 213q0 -23 12 -35.5t38 -12.5h112q123 0 150 94h-269
q-43 0 -43 -46z" />
    <glyph glyph-name="florin" unicode="&#x192;" horiz-adv-x="407" 
d="M269 324v-335q0 -163 -166 -163h-71v127h75q36 0 36 36v335h-104v104h104v109q0 164 166 164h72v-127h-76q-36 0 -36 -37v-109h112v-104h-112z" />
    <glyph glyph-name="uni0194" unicode="&#x194;" horiz-adv-x="881" 
d="M423 -273q-102 0 -149 41.5t-47 116.5q0 27 6 54.5t20.5 60t37.5 73t58 92.5l-338 485h200l229 -347l230 347h201l-339 -485q34 -52 58 -92t38 -73t20.5 -60.5t6.5 -54.5q0 -75 -47 -116.5t-149 -41.5h-36zM506 -114q0 28 -14.5 61.5t-50.5 86.5q-38 -54 -51.5 -86.5
t-13.5 -60.5q0 -24 11 -37.5t36 -13.5h36q25 0 36 13.5t11 36.5z" />
    <glyph glyph-name="uni019D" unicode="&#x19d;" horiz-adv-x="814" 
d="M-61 -174v144h55q61 0 61 63v543q0 74 81 74h42q20 0 35 -3t27 -9t22.5 -15t21.5 -21l307 -331v379h169v-583q0 -67 -65 -67h-35q-35 0 -54.5 13.5t-45.5 41.5l-335 362v-408q0 -87 -46.5 -135t-138.5 -48h-101z" />
    <glyph glyph-name="uni01A0" unicode="&#x1a0;" horiz-adv-x="866" 
d="M378 0q-75 0 -138 23.5t-108.5 66t-71.5 102.5t-26 133t26 132.5t71.5 102.5t108.5 66.5t138 23.5h307q50 0 50 53v91h153v-93q0 -75 -37 -118t-110 -48q35 -42 54.5 -94.5t19.5 -115.5q0 -73 -26 -133t-71.5 -102.5t-108.5 -66t-137 -23.5h-94zM484 168q34 0 63 11.5
t50 32t32.5 49.5t11.5 64t-11.5 64t-32.5 50t-50 32.5t-63 11.5h-118q-34 0 -63 -11.5t-50 -32.5t-33 -50t-12 -64t12 -64t33 -49.5t50 -32t63 -11.5h118z" />
    <glyph glyph-name="uni01A1" unicode="&#x1a1;" horiz-adv-x="678" 
d="M297 0q-58 0 -107 18t-85 51t-56 79t-20 102q0 55 20 101t56 79t85 51t107 18h201q50 0 50 53v98h153v-101q0 -64 -26.5 -105t-80.5 -55q20 -29 30.5 -64t10.5 -75q0 -56 -20 -102t-56 -79t-85 -51t-107 -18h-70zM367 152q44 0 72.5 27t28.5 71t-28.5 70.5t-72.5 26.5
h-71q-45 0 -73 -26.5t-28 -70.5t28 -71t73 -27h71z" />
    <glyph glyph-name="uni01AF" unicode="&#x1af;" horiz-adv-x="940" 
d="M787 535v-255q0 -62 -22 -113.5t-62 -88.5t-94.5 -57.5t-118.5 -20.5h-144q-65 0 -119 20.5t-94 57.5t-62 88.5t-22 113.5v370h176v-357q0 -57 35 -91t89 -34h138q54 0 89 34t35 91v357h149q49 0 49 53v91h153v-93q0 -79 -40.5 -122.5t-120.5 -43.5h-14z" />
    <glyph glyph-name="uni01B0" unicode="&#x1b0;" horiz-adv-x="795" 
d="M640 383v-145q0 -115 -62.5 -176.5t-187.5 -61.5h-96q-125 0 -187.5 61.5t-62.5 176.5v261h167v-261q0 -86 87 -86h88q87 0 87 86v261h141q50 0 50 53v98h153v-101q0 -78 -40.5 -122t-120.5 -44h-16z" />
    <glyph glyph-name="uni01DD" unicode="&#x1dd;" horiz-adv-x="624" 
d="M326 499q58 0 107 -18.5t85 -51.5t56 -79t20 -102t-20 -101.5t-56 -78t-85 -50.5t-107 -18h-127q-86 0 -128.5 44.5t-42.5 115.5q0 65 38 98.5t125 33.5h177v-91h-143q-39 0 -39 -35q0 -38 38 -38h103q44 0 72.5 31t28.5 88t-28.5 86t-72.5 29h-272v137h271z" />
    <glyph glyph-name="uni01DD" unicode="&#x4d9;" horiz-adv-x="624" 
d="M326 499q58 0 107 -18.5t85 -51.5t56 -79t20 -102t-20 -101.5t-56 -78t-85 -50.5t-107 -18h-127q-86 0 -128.5 44.5t-42.5 115.5q0 65 38 98.5t125 33.5h177v-91h-143q-39 0 -39 -35q0 -38 38 -38h103q44 0 72.5 31t28.5 88t-28.5 86t-72.5 29h-272v137h271z" />
    <glyph glyph-name="uni01E6" unicode="&#x1e6;" horiz-adv-x="781" 
d="M34 0zM378 0q-75 0 -138 23.5t-108.5 66t-71.5 102.5t-26 133t26 132.5t71.5 102.5t108.5 66.5t138 23.5h348v-167h-360q-34 0 -63 -11.5t-50 -32.5t-33 -50t-12 -64t12 -64t33 -49.5t50 -32t63 -11.5h194v89h-211v139h377v-396h-348zM336 690l-114 237h139l67 -145
l68 145h141l-114 -237h-187z" />
    <glyph glyph-name="uni01E7" unicode="&#x1e7;" horiz-adv-x="679" 
d="M29 0zM244 -174v152h126q55 0 76.5 23.5t21.5 71.5v202q0 71 -85 71h-85q-45 0 -73.5 -19.5t-28.5 -63.5q0 -45 31 -62t88 -17q23 0 50 2t54 7v-136q-28 -7 -60 -11t-65 -4q-130 0 -197.5 60.5t-67.5 162.5q0 56 20.5 99.5t57 73.5t88 45.5t114.5 15.5h91
q112 0 173.5 -61.5t61.5 -176.5v-189q0 -125 -63 -185.5t-203 -60.5h-125zM246 539l-114 237h139l67 -145l68 145h141l-114 -237h-187z" />
    <glyph glyph-name="uni01F4" unicode="&#x1f4;" horiz-adv-x="781" 
d="M34 0zM378 0q-75 0 -138 23.5t-108.5 66t-71.5 102.5t-26 133t26 132.5t71.5 102.5t108.5 66.5t138 23.5h348v-167h-360q-34 0 -63 -11.5t-50 -32.5t-33 -50t-12 -64t12 -64t33 -49.5t50 -32t63 -11.5h194v89h-211v139h377v-396h-348zM330 690l103 237h154l-114 -237
h-143z" />
    <glyph glyph-name="uni01F5" unicode="&#x1f5;" horiz-adv-x="679" 
d="M29 0zM244 -174v152h126q55 0 76.5 23.5t21.5 71.5v202q0 71 -85 71h-85q-45 0 -73.5 -19.5t-28.5 -63.5q0 -45 31 -62t88 -17q23 0 50 2t54 7v-136q-28 -7 -60 -11t-65 -4q-130 0 -197.5 60.5t-67.5 162.5q0 56 20.5 99.5t57 73.5t88 45.5t114.5 15.5h91
q112 0 173.5 -61.5t61.5 -176.5v-189q0 -125 -63 -185.5t-203 -60.5h-125zM240 539l103 237h154l-114 -237h-143z" />
    <glyph glyph-name="uni01F8" unicode="&#x1f8;" horiz-adv-x="814" 
d="M55 0zM660 0q-35 0 -55 13t-45 42l-335 362v-417h-170v576q0 74 81 74h42q20 0 35 -3t27 -9t22.5 -15t21.5 -21l307 -331v379h169v-583q0 -67 -65 -67h-35zM362 690l-114 237h154l103 -237h-143z" />
    <glyph glyph-name="uni01F9" unicode="&#x1f9;" horiz-adv-x="681" 
d="M49 0zM471 0v262q0 85 -87 85h-167v-347h-168v499h339q124 0 187 -62t63 -176v-261h-167zM296 539l-114 237h154l103 -237h-143z" />
    <glyph glyph-name="dotlessj" unicode="&#x237;" horiz-adv-x="331" 
d="M0 -174v144h54q60 0 60 60v469h167v-490q0 -87 -46 -135t-136 -48h-99z" />
    <glyph glyph-name="uni0241" unicode="&#x241;" horiz-adv-x="633" 
d="M324 276q-30 0 -30 -30v-246h-174v253q0 37 13 67t36 51.5t55.5 33t70.5 11.5h90q19 0 31 12t12 33q0 22 -11.5 33.5t-31.5 11.5h-365v167h372q46 0 85 -14.5t67 -40.5t43.5 -62.5t15.5 -80.5q0 -45 -15.5 -81.5t-43.5 -62.5t-67 -40t-85 -14z" />
    <glyph glyph-name="uni0242" unicode="&#x242;" horiz-adv-x="579" 
d="M300 153q-29 0 -29 -28v-125h-159v132q0 32 12 58.5t33.5 45.5t51 29.5t64.5 10.5h81q17 0 28 10t11 27q0 18 -11 28t-28 10h-334v148h340q42 0 77.5 -12.5t61 -35.5t40 -54.5t14.5 -70.5t-14.5 -71t-40 -54.5t-61 -35t-77.5 -12.5h-60z" />
    <glyph glyph-name="uni024C" unicode="&#x24c;" horiz-adv-x="840" 
d="M607 0l-131 165h-203v-165h-174v165h-99v152h99v333h448q55 0 102.5 -17.5t81.5 -49.5t53.5 -77t19.5 -99q0 -75 -36 -131t-98 -85l164 -191h-227zM273 317h274q36 0 59 22.5t23 60.5t-23 60.5t-59 22.5h-274v-166z" />
    <glyph glyph-name="uni024D" unicode="&#x24d;" horiz-adv-x="448" 
d="M44 0v146h-42v96h42v19q0 114 63 176t186 62h140v-152h-136q-86 0 -86 -85v-20h217v-96h-217v-146h-167z" />
    <glyph glyph-name="uni0263" unicode="&#x263;" horiz-adv-x="658" 
d="M317 -273q-38 0 -65.5 12t-45.5 33.5t-26.5 50t-8.5 61.5q0 18 3 39t12 47t25 60t41 78l-243 391h170l150 -259l151 259h170l-245 -391q26 -44 42 -78t25 -60t12 -47t3 -39q0 -33 -8.5 -61.5t-26.5 -50t-45.5 -33.5t-64.5 -12h-25zM371 -134q0 26 -9.5 53.5t-32.5 65.5
q-23 -38 -32 -65.5t-9 -53.5q0 -17 6 -26.5t23 -9.5h25q17 0 23 9.5t6 26.5z" />
    <glyph glyph-name="uni0272" unicode="&#x272;" horiz-adv-x="681" 
d="M-66 -174v144h55q60 0 60 63v466h339q124 0 187 -62t63 -176v-261h-167v262q0 85 -87 85h-167v-338q0 -87 -46 -135t-137 -48h-100z" />
    <glyph glyph-name="circumflex" unicode="&#x2c6;" horiz-adv-x="501" 
d="M319 539l-67 146l-66 -146h-143l114 237h187l114 -237h-139z" />
    <glyph glyph-name="caron" unicode="&#x2c7;" horiz-adv-x="501" 
d="M157 539l-114 237h139l67 -145l68 145h141l-114 -237h-187z" />
    <glyph glyph-name="breve" unicode="&#x2d8;" horiz-adv-x="501" 
d="M191 539q-31 0 -58.5 12t-48.5 34t-33 53t-12 69v69h129v-71q0 -31 12.5 -47.5t33.5 -16.5h73q21 0 33.5 16.5t12.5 47.5v71h129v-69q0 -38 -12 -69t-33 -53t-48.5 -34t-58.5 -12h-119z" />
    <glyph glyph-name="dotaccent" unicode="&#x2d9;" horiz-adv-x="257" 
d="M117 548q-33 0 -54.5 19.5t-21.5 53.5q0 32 21.5 51.5t54.5 19.5h23q33 0 54 -19.5t21 -51.5q0 -34 -21 -53.5t-54 -19.5h-23z" />
    <glyph glyph-name="ring" unicode="&#x2da;" horiz-adv-x="390" 
d="M214 593q22 0 36.5 14.5t14.5 37.5t-14.5 37.5t-36.5 14.5h-38q-22 0 -36.5 -14.5t-14.5 -37.5t14.5 -37.5t36.5 -14.5h38zM176 512q-30 0 -55 10t-44 27.5t-29.5 42t-10.5 53.5t10.5 53t29.5 41.5t44 27t55 9.5h38q30 0 55.5 -9.5t44 -27t29 -41.5t10.5 -53t-10.5 -53.5
t-29 -42t-44 -27.5t-55.5 -10h-38z" />
    <glyph glyph-name="ogonek" unicode="&#x2db;" horiz-adv-x="350" 
d="M176 -273q-69 0 -104 28.5t-35 77.5q0 32 16.5 61t48.5 49l97 57h105l-110 -66q-24 -14 -24 -35q0 -32 42 -32h101v-140h-137z" />
    <glyph glyph-name="tilde" unicode="&#x2dc;" horiz-adv-x="500" 
d="M463 595q-20 -27 -50 -37t-55 -10q-29 0 -55.5 10t-51.5 21.5t-50.5 21.5t-52.5 10q-35 0 -64 -18t-47 -38v123q20 24 48.5 35.5t57.5 11.5t55.5 -10t51.5 -21.5t50.5 -21.5t52.5 -10q34 0 62 16.5t48 39.5v-123z" />
    <glyph glyph-name="hungarumlaut" unicode="&#x2dd;" horiz-adv-x="555" 
d="M45 539l97 237h146l-108 -237h-135zM254 539l108 237h146l-117 -237h-137z" />
    <glyph glyph-name="gravecomb" unicode="&#x300;" horiz-adv-x="0" 
d="M-242 539zM-385 539l-114 237h154l103 -237h-143z" />
    <glyph glyph-name="acutecomb" unicode="&#x301;" horiz-adv-x="0" 
d="M-182 539zM-439 539l103 237h154l-114 -237h-143z" />
    <glyph glyph-name="uni0302" unicode="&#x302;" horiz-adv-x="0" 
d="M-132 539zM-271 539l-67 146l-66 -146h-143l114 237h187l114 -237h-139z" />
    <glyph glyph-name="tildecomb" unicode="&#x303;" horiz-adv-x="0" 
d="M-128 548zM-128 595q-20 -27 -50 -37t-55 -10q-29 0 -55.5 10t-51.5 21.5t-50.5 21.5t-52.5 10q-35 0 -64 -18t-47 -38v123q20 24 48.5 35.5t57.5 11.5t55.5 -10t51.5 -21.5t50.5 -21.5t52.5 -10q34 0 62 16.5t48 39.5v-123z" />
    <glyph glyph-name="uni0304" unicode="&#x304;" horiz-adv-x="0" 
d="M-127 569zM-553 569v120h426v-120h-426z" />
    <glyph glyph-name="uni0306" unicode="&#x306;" horiz-adv-x="0" 
d="M-126 539zM-397 539q-31 0 -58.5 12t-48.5 34t-33 53t-12 69v69h129v-71q0 -31 12.5 -47.5t33.5 -16.5h73q21 0 33.5 16.5t12.5 47.5v71h129v-69q0 -38 -12 -69t-33 -53t-48.5 -34t-58.5 -12h-119z" />
    <glyph glyph-name="uni0307" unicode="&#x307;" horiz-adv-x="0" 
d="M-253 548zM-351 548q-33 0 -54.5 19.5t-21.5 53.5q0 32 21.5 51.5t54.5 19.5h23q33 0 54 -19.5t21 -51.5q0 -34 -21 -53.5t-54 -19.5h-23z" />
    <glyph glyph-name="uni0308" unicode="&#x308;" horiz-adv-x="0" 
d="M-149 548zM-456 548q-34 0 -55 20t-21 53q0 32 21 51.5t55 19.5h15q33 0 54.5 -19.5t21.5 -51.5q0 -33 -21.5 -53t-54.5 -20h-15zM-240 548q-34 0 -55.5 20t-21.5 53q0 32 21.5 51.5t55.5 19.5h14q34 0 55.5 -19.5t21.5 -51.5q0 -33 -21.5 -53t-55.5 -20h-14z" />
    <glyph glyph-name="hookabovecomb" unicode="&#x309;" horiz-adv-x="0" 
d="M-323 541q-16 0 -16 -18v-11h-105v15q0 44 29 70.5t75 26.5h24q24 0 24 26t-23 26h-172v100h176q27 0 50 -8.5t39.5 -24t26 -37.5t9.5 -48q0 -53 -35.5 -85t-89.5 -32h-12z" />
    <glyph glyph-name="uni030A" unicode="&#x30a;" horiz-adv-x="0" 
d="M-181 512zM-320 593q22 0 36.5 14.5t14.5 37.5t-14.5 37.5t-36.5 14.5h-38q-22 0 -36.5 -14.5t-14.5 -37.5t14.5 -37.5t36.5 -14.5h38zM-358 512q-30 0 -55 10t-44 27.5t-29.5 42t-10.5 53.5t10.5 53t29.5 41.5t44 27t55 9.5h38q30 0 55.5 -9.5t44 -27t29 -41.5t10.5 -53
t-10.5 -53.5t-29 -42t-44 -27.5t-55.5 -10h-38z" />
    <glyph glyph-name="uni030B" unicode="&#x30b;" horiz-adv-x="0" 
d="M-104 539zM-567 539l97 237h146l-108 -237h-135zM-358 539l108 237h146l-117 -237h-137z" />
    <glyph glyph-name="uni030C" unicode="&#x30c;" horiz-adv-x="0" 
d="M-133 539zM-434 539l-114 237h139l67 -145l68 145h141l-114 -237h-187z" />
    <glyph glyph-name="uni0313" unicode="&#x313;" horiz-adv-x="0" 
d="M-246 541zM-417 541l41 129q-29 3 -43 22t-14 45q0 36 23.5 56.5t59.5 20.5h23q35 0 58 -20.5t23 -52.5q0 -22 -15 -55l-60 -145h-96z" />
    <glyph glyph-name="uni031B" unicode="&#x31b;" horiz-adv-x="4" 
d="M-297 383v116h121q49 0 49 53v98h154v-101q0 -78 -41 -122t-121 -44h-162z" />
    <glyph glyph-name="dotbelowcomb" unicode="&#x323;" horiz-adv-x="0" 
d="M-254 -50zM-352 -194q-33 0 -54.5 19.5t-21.5 53.5q0 32 21.5 51.5t54.5 19.5h23q33 0 54 -19.5t21 -51.5q0 -34 -21 -53.5t-54 -19.5h-23z" />
    <glyph glyph-name="uni0326" unicode="&#x326;" horiz-adv-x="0" 
d="M-245 -36zM-437 -273l38 237h154l-75 -237h-117z" />
    <glyph glyph-name="uni0328" unicode="&#x328;" horiz-adv-x="0" 
d="M-242 0zM-379 -273q-69 0 -104 28.5t-35 77.5q0 32 16.5 61t48.5 49l97 57h105l-110 -66q-24 -14 -24 -35q0 -32 42 -32h101v-140h-137z" />
    <glyph glyph-name="uni032D" unicode="&#x32d;" horiz-adv-x="0" 
d="M-134 -40zM-273 -277l-67 146l-66 -146h-143l114 237h187l114 -237h-139z" />
    <glyph glyph-name="tonos" unicode="&#x384;" horiz-adv-x="178" 
d="M158 776v-237h-138v237h138z" />
    <glyph glyph-name="dieresistonos" unicode="&#x385;" horiz-adv-x="567" 
d="M0 539zM76 548q-33 0 -54.5 19.5t-21.5 53.5q0 32 21.5 51.5t54.5 19.5h23q33 0 54 -19.5t21 -51.5q0 -34 -21 -53.5t-54 -19.5h-23zM352 776v-237h-138v237h138zM468 548q-33 0 -54.5 19.5t-21.5 53.5q0 32 21.5 51.5t54.5 19.5h23q33 0 54 -19.5t21 -51.5
q0 -34 -21 -53.5t-54 -19.5h-23z" />
    <glyph glyph-name="Alphatonos" unicode="&#x386;" horiz-adv-x="905" 
d="M20 0zM158 776v-237h-138v237h138zM705 0l-54 100h-305l74 139h157l-111 209l-238 -448h-193l332 602q27 48 78 48h40q51 0 78 -48l332 -602h-190z" />
    <glyph glyph-name="anoteleia" unicode="&#x387;" horiz-adv-x="260" 
d="M37 346zM119 346q-36 0 -59 21t-23 56t23 55.5t59 20.5h23q35 0 58.5 -20.5t23.5 -55.5t-23.5 -56t-58.5 -21h-23z" />
    <glyph glyph-name="Epsilontonos" unicode="&#x388;" horiz-adv-x="906" 
d="M20 0zM158 776v-237h-138v237h138zM467 257v139h384v-139h-384zM234 0v650h624v-167h-449v-315h450v-168h-625z" />
    <glyph glyph-name="Etatonos" unicode="&#x389;" horiz-adv-x="951" 
d="M20 0zM158 776v-237h-138v237h138zM721 0v252h-254v159h254v239h175v-650h-175zM234 0v650h175v-650h-175z" />
    <glyph glyph-name="Iotatonos" unicode="&#x38a;" horiz-adv-x="464" 
d="M20 0zM158 776v-237h-138v237h138zM234 0v650h175v-650h-175z" />
    <glyph glyph-name="Omicrontonos" unicode="&#x38c;" horiz-adv-x="963" 
d="M20 0zM158 776v-237h-138v237h138zM598 168q34 0 63 11.5t50 32t32.5 49.5t11.5 64t-11.5 64t-32.5 50t-50 32.5t-63 11.5h-118q-34 0 -63 -11.5t-50 -32.5t-33 -50t-12 -64t11.5 -64t32.5 -49.5t50 -32t64 -11.5h118zM492 0q-75 0 -138 23.5t-108.5 66t-71.5 102.5
t-26 133t26 132.5t71.5 102.5t108.5 66.5t138 23.5h94q74 0 137 -23.5t108.5 -66.5t71.5 -102.5t26 -132.5t-26 -133t-71.5 -102.5t-108.5 -66t-137 -23.5h-94z" />
    <glyph glyph-name="Upsilontonos" unicode="&#x38e;" horiz-adv-x="951" 
d="M20 0zM158 776v-237h-138v237h138zM477 0v229l-298 421h205l184 -259l185 259h196l-297 -421v-229h-175z" />
    <glyph glyph-name="Omegatonos" unicode="&#x38f;" horiz-adv-x="948" 
d="M20 0zM158 776v-237h-138v237h138zM670 0q-59 0 -59 71v39q0 18 5 30t17 24l64 64q45 42 45 115q0 72 -38.5 106t-105.5 34h-134q-67 0 -105.5 -34t-38.5 -106q0 -73 45 -115l65 -64q11 -12 16 -24t5 -30v-39q0 -71 -59 -71h-235v164h104l-37 32q-43 43 -59 84.5
t-16 94.5q0 66 22 117.5t62.5 86.5t97 53t125.5 18h150q69 0 125.5 -18t97 -53t63 -86.5t22.5 -117.5q0 -53 -17 -94t-59 -85l-36 -32h103v-164h-235z" />
    <glyph glyph-name="iotadieresistonos" unicode="&#x390;" horiz-adv-x="544" 
d="M0 0zM359 0q-88 0 -133.5 47t-45.5 134v318h166v-305q0 -57 56 -57h39v-137h-82zM54 548q-33 0 -54.5 19.5t-21.5 53.5q0 32 21.5 51.5t54.5 19.5h23q33 0 54 -19.5t21 -51.5q0 -34 -21 -53.5t-54 -19.5h-23zM331 776v-237h-138v237h138zM447 548q-33 0 -54.5 19.5
t-21.5 53.5q0 32 21.5 51.5t54.5 19.5h23q33 0 54 -19.5t21 -51.5q0 -34 -21 -53.5t-54 -19.5h-23z" />
    <glyph glyph-name="uni0413" unicode="&#x393;" horiz-adv-x="647" 
d="M627 650v-168h-396v-482h-176v650h572z" />
    <glyph glyph-name="uni0413" unicode="&#x413;" horiz-adv-x="647" 
d="M627 650v-168h-396v-482h-176v650h572z" />
    <glyph glyph-name="Delta" unicode="&#x394;" horiz-adv-x="881" 
d="M11 0l332 602q27 48 78 48h40q51 0 78 -48l332 -602h-860zM441 446l-152 -278h303z" />
    <glyph glyph-name="Theta" unicode="&#x398;" horiz-adv-x="849" 
d="M484 168q34 0 63 11.5t50 32t32.5 49.5t11.5 64t-11.5 64t-32.5 50t-50 32.5t-63 11.5h-118q-34 0 -63 -11.5t-50 -32.5t-33 -50t-12 -64t11.5 -64t32.5 -49.5t50 -32t64 -11.5h118zM378 0q-75 0 -138 23.5t-108.5 66t-71.5 102.5t-26 133t26 132.5t71.5 102.5
t108.5 66.5t138 23.5h94q74 0 137 -23.5t108.5 -66.5t71.5 -102.5t26 -132.5t-26 -133t-71.5 -102.5t-108.5 -66t-137 -23.5h-94zM288 264v125h277v-125h-277z" />
    <glyph glyph-name="Lambda" unicode="&#x39b;" horiz-adv-x="881" 
d="M460 650q52 0 79 -48l332 -602h-197l-233 440l-234 -440h-196l332 602q27 48 78 48h39z" />
    <glyph glyph-name="Xi" unicode="&#x39e;" horiz-adv-x="724" 
d="M46 0v168h631v-168h-631zM47 483v167h629v-167h-629zM54 257v139h615v-139h-615z" />
    <glyph glyph-name="uni041F" unicode="&#x3a0;" horiz-adv-x="772" 
d="M55 0v650h662v-650h-175v483h-312v-483h-175z" />
    <glyph glyph-name="uni041F" unicode="&#x41f;" horiz-adv-x="772" 
d="M55 0v650h662v-650h-175v483h-312v-483h-175z" />
    <glyph glyph-name="Sigma" unicode="&#x3a3;" horiz-adv-x="727" 
d="M283 168h397v-168h-565q-75 0 -75 71v40q0 15 2.5 26.5t8 22.5t15 21.5t23.5 23.5l153 139l-157 138q-23 20 -34 36t-11 42v33q0 57 68 57h571v-167h-357l105 -99q15 -13 15 -30v-22q0 -23 -15 -35z" />
    <glyph glyph-name="uni0424" unicode="&#x3a6;" horiz-adv-x="986" 
d="M294 73q-57 0 -105.5 18t-83.5 51t-54.5 79t-19.5 102q0 55 19.5 100.5t54.5 78.5t83.5 51t105.5 18h113v79h171v-79h114q57 0 105.5 -18t83.5 -51t54.5 -78.5t19.5 -100.5q0 -56 -19.5 -102t-54.5 -79t-83.5 -51t-105.5 -18h-51v156h54q37 0 61.5 24.5t24.5 63.5
t-24.5 63t-61.5 24h-117v-404h-171v404h-116q-37 0 -61.5 -24t-24.5 -63t24.5 -63.5t61.5 -24.5h53v-156h-50z" />
    <glyph glyph-name="uni0424" unicode="&#x424;" horiz-adv-x="986" 
d="M294 73q-57 0 -105.5 18t-83.5 51t-54.5 79t-19.5 102q0 55 19.5 100.5t54.5 78.5t83.5 51t105.5 18h113v79h171v-79h114q57 0 105.5 -18t83.5 -51t54.5 -78.5t19.5 -100.5q0 -56 -19.5 -102t-54.5 -79t-83.5 -51t-105.5 -18h-51v156h54q37 0 61.5 24.5t24.5 63.5
t-24.5 63t-61.5 24h-117v-404h-171v404h-116q-37 0 -61.5 -24t-24.5 -63t24.5 -63.5t61.5 -24.5h53v-156h-50z" />
    <glyph glyph-name="Psi" unicode="&#x3a8;" horiz-adv-x="1012" 
d="M420 0v103h-74q-65 0 -119 20.5t-94 57.5t-62 88.5t-22 113.5v267h176v-254q0 -57 35 -91t89 -34h71v379h171v-379h72q54 0 89 34t35 91v254h175v-267q0 -62 -22 -113.5t-61.5 -88.5t-94 -57.5t-118.5 -20.5h-75v-103h-171z" />
    <glyph glyph-name="Omega" unicode="&#x3a9;" horiz-adv-x="834" 
d="M556 0q-59 0 -59 71v39q0 18 5 30t17 24l64 64q45 42 45 115q0 72 -38.5 106t-105.5 34h-134q-67 0 -105.5 -34t-38.5 -106q0 -73 45 -115l65 -64q11 -12 16 -24t5 -30v-39q0 -71 -59 -71h-235v164h104l-37 32q-43 43 -59 84.5t-16 94.5q0 66 22 117.5t62.5 86.5t97 53
t125.5 18h150q69 0 125.5 -18t97 -53t63 -86.5t22.5 -117.5q0 -53 -17 -94t-59 -85l-36 -32h103v-164h-235z" />
    <glyph glyph-name="alphatonos" unicode="&#x3ac;" horiz-adv-x="679" 
d="M29 0zM468 0v261q0 85 -87 85h-84q-45 0 -73 -24t-28 -78q0 -56 31.5 -77t88.5 -21q28 0 51.5 3.5t44.5 10.5v-151q-25 -7 -55 -10.5t-59 -3.5q-134 0 -201.5 66t-67.5 177q0 63 20 111.5t56 81.5t85 50.5t107 17.5h89q123 0 186 -62t63 -176v-261h-167zM401 776v-237
h-138v237h138z" />
    <glyph glyph-name="epsilontonos" unicode="&#x3ad;" horiz-adv-x="565" 
d="M24 0zM226 200q-40 0 -40 -37q0 -36 40 -36h302v-127h-318q-91 0 -138.5 39.5t-47.5 106.5q0 48 21.5 78t53.5 39q-29 11 -45 38.5t-16 65.5q0 28 9 52t29.5 42t52 28t76.5 10h323v-126h-293q-38 0 -38 -33q0 -36 38 -36h290v-104h-299zM371 776v-237h-138v237h138z" />
    <glyph glyph-name="etatonos" unicode="&#x3ae;" horiz-adv-x="681" 
d="M49 0zM471 -174v436q0 85 -87 85h-167v-347h-168v499h339q124 0 187 -62t63 -176v-435h-167zM407 776v-237h-138v237h138z" />
    <glyph glyph-name="iotatonos" unicode="&#x3af;" horiz-adv-x="319" 
d="M44 0zM223 0q-88 0 -133.5 47t-45.5 134v318h166v-305q0 -57 56 -57h39v-137h-82zM197 776v-237h-138v237h138z" />
    <glyph glyph-name="upsilondieresistonos" unicode="&#x3b0;" horiz-adv-x="684" 
d="M44 0zM294 0q-125 0 -187.5 61.5t-62.5 176.5v261h167v-261q0 -86 87 -86h88q87 0 87 86v261h167v-261q0 -115 -62.5 -176.5t-187.5 -61.5h-96zM132 548q-33 0 -54.5 19.5t-21.5 53.5q0 32 21.5 51.5t54.5 19.5h23q33 0 54 -19.5t21 -51.5q0 -34 -21 -53.5t-54 -19.5h-23
zM410 776v-237h-138v237h138zM526 548q-33 0 -54.5 19.5t-21.5 53.5q0 32 21.5 51.5t54.5 19.5h23q33 0 54 -19.5t21 -51.5q0 -34 -21 -53.5t-54 -19.5h-23z" />
    <glyph glyph-name="alpha" unicode="&#x3b1;" horiz-adv-x="679" 
d="M468 0v261q0 85 -87 85h-84q-45 0 -73 -24t-28 -78q0 -56 31.5 -77t88.5 -21q28 0 51.5 3.5t44.5 10.5v-151q-25 -7 -55 -10.5t-59 -3.5q-134 0 -201.5 66t-67.5 177q0 63 20 111.5t56 81.5t85 50.5t107 17.5h89q123 0 186 -62t63 -176v-261h-167z" />
    <glyph glyph-name="beta" unicode="&#x3b2;" horiz-adv-x="675" 
d="M257 562q-47 0 -47 -52v-684h-166v701q0 174 182 174h164q49 0 85 -12t60 -33.5t36 -51t12 -63.5q0 -38 -14.5 -68.5t-43.5 -45.5q66 -25 94 -75t28 -121q0 -51 -12.5 -93.5t-40.5 -73t-72.5 -47.5t-107.5 -17h-151v163h139q70 0 70 88q0 45 -17.5 69t-54.5 24h-117v128
h86q49 0 49 44q0 21 -12.5 33.5t-38.5 12.5h-110z" />
    <glyph glyph-name="gamma" unicode="&#x3b3;" horiz-adv-x="658" 
d="M248 29l-239 470h170l150 -309l149 309h171l-238 -466v-207h-163v203z" />
    <glyph glyph-name="gamma" unicode="&#x4af;" horiz-adv-x="658" 
d="M248 29l-239 470h170l150 -309l149 309h171l-238 -466v-207h-163v203z" />
    <glyph glyph-name="delta" unicode="&#x3b4;" horiz-adv-x="664" 
d="M131 563q-19 14 -25 28t-6 32v33q0 45 55 45h445v-144h-232l156 -108q60 -42 85.5 -88.5t25.5 -109.5q0 -57 -20 -103.5t-56 -79.5t-85 -50.5t-107 -17.5h-70q-58 0 -107 18t-85 51t-56 79.5t-20 103.5q0 78 38 133.5t110 81.5l139 -109q-60 0 -90.5 -30.5t-30.5 -75.5
q0 -48 29.5 -74t71.5 -26h71q43 0 72 26t29 74q0 23 -9 43.5t-30 36.5z" />
    <glyph glyph-name="epsilon" unicode="&#x3b5;" horiz-adv-x="565" 
d="M226 200q-40 0 -40 -37q0 -36 40 -36h302v-127h-318q-91 0 -138.5 39.5t-47.5 106.5q0 48 21.5 78t53.5 39q-29 11 -45 38.5t-16 65.5q0 28 9 52t29.5 42t52 28t76.5 10h323v-126h-293q-38 0 -38 -33q0 -36 38 -36h290v-104h-299z" />
    <glyph glyph-name="zeta" unicode="&#x3b6;" horiz-adv-x="559" 
d="M257 360q-27 -21 -44.5 -50.5t-17.5 -63.5q0 -32 17 -53.5t46 -31.5l134 -45q70 -24 100 -71t30 -134v-85h-167v98q0 27 -8 39.5t-33 20.5l-128 42q-85 28 -121 86t-36 132q0 61 24 102t73 79l165 132h-276v144h475q55 0 55 -45v-32q0 -19 -6 -32.5t-24 -27.5z" />
    <glyph glyph-name="eta" unicode="&#x3b7;" horiz-adv-x="681" 
d="M471 -174v436q0 85 -87 85h-167v-347h-168v499h339q124 0 187 -62t63 -176v-435h-167z" />
    <glyph glyph-name="theta" unicode="&#x3b8;" horiz-adv-x="695" 
d="M44 452q0 55 20 101t56 79t85 51t107 18h70q58 0 107.5 -18t85.5 -51t56 -79t20 -101v-202q0 -56 -20 -102t-56 -79t-85.5 -51t-107.5 -18h-70q-58 0 -107 18t-85 51t-56 79t-20 102v202zM385 152q45 0 73 27t28 71v35h-278v-35q0 -44 28.5 -71t72.5 -27h76zM208 421h278
v31q0 44 -28 70.5t-73 26.5h-76q-44 0 -72.5 -26.5t-28.5 -70.5v-31z" />
    <glyph glyph-name="iota" unicode="&#x3b9;" horiz-adv-x="319" 
d="M223 0q-88 0 -133.5 47t-45.5 134v318h166v-305q0 -57 56 -57h39v-137h-82z" />
    <glyph glyph-name="uni043A" unicode="&#x3ba;" horiz-adv-x="633" 
d="M435 0l-171 209q-8 11 -12 20.5t-4 20.5v12q0 10 3.5 21.5t11.5 20.5l166 195h188l-200 -242l210 -257h-192zM49 0v499h167v-499h-167z" />
    <glyph glyph-name="uni043A" unicode="&#x43a;" horiz-adv-x="633" 
d="M435 0l-171 209q-8 11 -12 20.5t-4 20.5v12q0 10 3.5 21.5t11.5 20.5l166 195h188l-200 -242l210 -257h-192zM49 0v499h167v-499h-167z" />
    <glyph glyph-name="lambda" unicode="&#x3bb;" horiz-adv-x="657" 
d="M191 701q73 0 115.5 -30t74.5 -99l267 -572h-173l-144 332l-151 -332h-171l245 508q-11 22 -28 35.5t-50 13.5h-60v144h75z" />
    <glyph glyph-name="mu" unicode="&#x3bc;" horiz-adv-x="724" 
d="M628 0q-41 0 -65.5 11t-40.5 29q-26 -18 -60.5 -29t-85.5 -11h-164v-174h-168v673h168v-347h160q40 0 61 18.5t21 59.5v269h167v-303q0 -32 12 -45.5t38 -13.5h38v-137h-81z" />
    <glyph glyph-name="xi" unicode="&#x3be;" horiz-adv-x="559" 
d="M190 267q0 -38 14 -65.5t55 -41.5l133 -44q71 -24 100.5 -71.5t29.5 -133.5v-85h-167v98q0 27 -8 39.5t-33 20.5l-127 42q-85 28 -121.5 89t-36.5 141q0 58 18.5 95t56.5 58q-29 11 -45.5 38.5t-16.5 68.5q0 29 9.5 53.5t29.5 42.5t52 28t77 10h321v-126h-292
q-38 0 -38 -35q0 -38 38 -38h290v-105h-284q-30 0 -42.5 -20t-12.5 -59z" />
    <glyph glyph-name="pi" unicode="&#x3c0;" horiz-adv-x="738" 
d="M617 0q-91 0 -135 47t-44 134v180h-164v-361h-168v361h-91v138h687v-138h-99v-167q0 -57 57 -57h37v-137h-80z" />
    <glyph glyph-name="sigma1" unicode="&#x3c2;" horiz-adv-x="559" 
d="M195 251q0 -31 17 -55.5t49 -35.5l131 -44q35 -12 60 -29t40.5 -41.5t22.5 -57.5t7 -77v-85h-167v98q0 27 -8 39.5t-33 20.5l-125 42q-43 15 -73.5 38t-49.5 51.5t-28 62t-9 69.5q0 57 20 103.5t56 79.5t85 51t107 18h225v-152h-226q-44 0 -72.5 -27t-28.5 -69z" />
    <glyph glyph-name="sigma" unicode="&#x3c3;" horiz-adv-x="724" 
d="M297 0q-58 0 -107 18t-85 51t-56 79t-20 102q0 55 20 101t56 79t85 51t107 18h412v-152h-131q36 -36 36 -110q0 -110 -68.5 -173.5t-193.5 -63.5h-55zM356 152q45 0 73 26t28 71t-27.5 71.5t-72.5 26.5h-61q-45 0 -73 -26.5t-28 -70.5t28 -71t73 -27h60z" />
    <glyph glyph-name="tau" unicode="&#x3c4;" horiz-adv-x="625" 
d="M406 0q-89 0 -134 47t-45 133v172h-212v147h595v-147h-217v-159q0 -56 56 -56h38v-137h-81z" />
    <glyph glyph-name="uni0444" unicode="&#x3c6;" horiz-adv-x="931" 
d="M331 152v-152h-34q-58 0 -107 18t-85 51t-56 79t-20 102q0 55 20 101t56 79t85 51t107 18h87v202h163v-202h87q58 0 107 -18t85 -51t56 -79t20 -101q0 -56 -20 -102t-56 -79t-85 -51t-107 -18h-34v152h35q44 0 72.5 27t28.5 71t-28.5 70.5t-72.5 26.5h-88v-521h-163v521
h-88q-45 0 -73 -26.5t-28 -70.5t28 -71t73 -27h35z" />
    <glyph glyph-name="uni0444" unicode="&#x444;" horiz-adv-x="931" 
d="M331 152v-152h-34q-58 0 -107 18t-85 51t-56 79t-20 102q0 55 20 101t56 79t85 51t107 18h87v202h163v-202h87q58 0 107 -18t85 -51t56 -79t20 -101q0 -56 -20 -102t-56 -79t-85 -51t-107 -18h-34v152h35q44 0 72.5 27t28.5 71t-28.5 70.5t-72.5 26.5h-88v-521h-163v521
h-88q-45 0 -73 -26.5t-28 -70.5t28 -71t73 -27h35z" />
    <glyph glyph-name="chi" unicode="&#x3c7;" horiz-adv-x="659" 
d="M462 -174l-139 221l-134 -221h-183l222 351l-205 322h191l119 -193l119 193h182l-207 -322l227 -351h-192z" />
    <glyph glyph-name="psi" unicode="&#x3c8;" horiz-adv-x="904" 
d="M860 499v-261q0 -114 -63 -176t-186 -62h-78v-174h-163v174h-77q-123 0 -186 62t-63 176v261h167v-262q0 -85 86 -85h73v468h163v-468h74q87 0 87 85v262h166z" />
    <glyph glyph-name="omega" unicode="&#x3c9;" horiz-adv-x="958" 
d="M634 0q-52 0 -90.5 18t-64.5 47q-26 -29 -64.5 -47t-90.5 -18h-36q-123 0 -183.5 61.5t-60.5 176.5v261h167v-261q0 -86 82 -86h27q81 0 81 86v261h156v-261q0 -42 21 -64t60 -22h28q81 0 81 86v261h167v-261q0 -115 -60.5 -176.5t-183.5 -61.5h-36z" />
    <glyph glyph-name="iotadieresis" unicode="&#x3ca;" horiz-adv-x="319" 
d="M0 0zM223 0q-88 0 -133.5 47t-45.5 134v318h166v-305q0 -57 56 -57h39v-137h-82zM37 548q-34 0 -55 20t-21 53q0 32 21 51.5t55 19.5h15q33 0 54.5 -19.5t21.5 -51.5q0 -33 -21.5 -53t-54.5 -20h-15zM253 548q-34 0 -55.5 20t-21.5 53q0 32 21.5 51.5t55.5 19.5h14
q34 0 55.5 -19.5t21.5 -51.5q0 -33 -21.5 -53t-55.5 -20h-14z" />
    <glyph glyph-name="upsilondieresis" unicode="&#x3cb;" horiz-adv-x="684" 
d="M44 0zM294 0q-125 0 -187.5 61.5t-62.5 176.5v261h167v-261q0 -86 87 -86h88q87 0 87 86v261h167v-261q0 -115 -62.5 -176.5t-187.5 -61.5h-96zM225 548q-34 0 -55 20t-21 53q0 32 21 51.5t55 19.5h15q33 0 54.5 -19.5t21.5 -51.5q0 -33 -21.5 -53t-54.5 -20h-15z
M441 548q-34 0 -55.5 20t-21.5 53q0 32 21.5 51.5t55.5 19.5h14q34 0 55.5 -19.5t21.5 -51.5q0 -33 -21.5 -53t-55.5 -20h-14z" />
    <glyph glyph-name="omicrontonos" unicode="&#x3cc;" horiz-adv-x="664" 
d="M29 0zM367 152q44 0 72.5 27t28.5 71t-28.5 70.5t-72.5 26.5h-71q-45 0 -73 -26.5t-28 -70.5t28 -71t73 -27h71zM297 0q-58 0 -107 18t-85 51t-56 79t-20 102q0 55 20 101t56 79t85 51t107 18h70q58 0 107 -18t85 -51t56 -79t20 -101q0 -56 -20 -102t-56 -79t-85 -51
t-107 -18h-70zM400 776v-237h-138v237h138z" />
    <glyph glyph-name="upsilontonos" unicode="&#x3cd;" horiz-adv-x="684" 
d="M44 0zM294 0q-125 0 -187.5 61.5t-62.5 176.5v261h167v-261q0 -86 87 -86h88q87 0 87 86v261h167v-261q0 -115 -62.5 -176.5t-187.5 -61.5h-96zM411 776v-237h-138v237h138z" />
    <glyph glyph-name="omegatonos" unicode="&#x3ce;" horiz-adv-x="958" 
d="M44 0zM634 0q-52 0 -90.5 18t-64.5 47q-26 -29 -64.5 -47t-90.5 -18h-36q-123 0 -183.5 61.5t-60.5 176.5v261h167v-261q0 -86 82 -86h27q81 0 81 86v261h156v-261q0 -42 21 -64t60 -22h28q81 0 81 86v261h167v-261q0 -115 -60.5 -176.5t-183.5 -61.5h-36zM548 776v-237
h-138v237h138z" />
    <glyph glyph-name="uni0402" unicode="&#x402;" horiz-adv-x="937" 
d="M20 650h621v-168h-256v-482h-177v482h-188v168zM721 112q0 27 -9.5 48.5t-26.5 37t-39.5 24t-48.5 8.5h-149v168h151q65 0 119.5 -20.5t94 -58.5t61.5 -91t22 -117q0 -65 -22.5 -117.5t-62 -90t-94 -57.5t-118.5 -20h-143v167h141q26 0 48.5 8.5t39.5 24t26.5 37.5
t9.5 49z" />
    <glyph glyph-name="uni0403" unicode="&#x403;" horiz-adv-x="647" 
d="M55 0zM627 650v-168h-396v-482h-176v650h572zM243 690l103 237h154l-114 -237h-143z" />
    <glyph glyph-name="uni0404" unicode="&#x404;" horiz-adv-x="739" 
d="M378 0q-75 0 -138 23.5t-108.5 66t-71.5 102.5t-26 133t26 132.5t71.5 102.5t108.5 66.5t138 23.5h318v-167h-330q-34 0 -63 -11.5t-50 -32.5t-33 -50t-12 -64t12 -64t33 -49.5t50 -32t63 -11.5h330v-168h-318zM298 257v139h261v-139h-261z" />
    <glyph glyph-name="uni0409" unicode="&#x409;" horiz-adv-x="1184" 
d="M894 492q57 0 104.5 -18t82 -50.5t54 -77.5t19.5 -100t-19.5 -100t-54 -77.5t-82 -50.5t-104.5 -18h-392v491h-176l-40 -283q-16 -109 -59.5 -158.5t-125.5 -49.5h-81v168h58q21 0 33.5 13.5t17.5 48.5l55 420h493v-483h219q36 0 59.5 23.5t23.5 61.5t-23.5 61t-59.5 23
h-163v156h161z" />
    <glyph glyph-name="uni040A" unicode="&#x40a;" horiz-adv-x="1184" 
d="M893 481q57 0 104.5 -17t82 -48.5t54 -75.5t19.5 -99t-19.5 -99.5t-54 -76t-82 -48.5t-104.5 -17h-391v322h-214v159h214v169h174v-483h219q36 0 59.5 21t23.5 59t-23.5 58t-59.5 20h-163v156h161zM55 0v650h175v-650h-175z" />
    <glyph glyph-name="uni040B" unicode="&#x40b;" horiz-adv-x="937" 
d="M20 650h621v-168h-256v-482h-178v482h-187v168zM599 398q64 0 118.5 -20.5t94.5 -57.5t62 -88.5t22 -113.5v-118h-175v105q0 57 -35 91t-89 34h-149v168h151z" />
    <glyph glyph-name="uni040C" unicode="&#x40c;" horiz-adv-x="794" 
d="M55 0zM559 0l-266 273q-12 14 -18 25.5t-6 27.5v16q0 28 23 53l257 255h224l-313 -314l329 -336h-230zM55 0v650h175v-650h-175zM298 690l103 237h154l-114 -237h-143z" />
    <glyph glyph-name="uni040D" unicode="&#x40d;" horiz-adv-x="772" 
d="M55 0zM230 271l258 331q21 27 43 37.5t63 10.5h42q81 0 81 -74v-576h-175v417l-287 -362q-23 -29 -44 -42t-55 -13h-35q-66 0 -66 67v583h175v-379zM342 690l-114 237h154l103 -237h-143z" />
    <glyph glyph-name="uni040E" unicode="&#x40e;" horiz-adv-x="754" 
d="M2 0zM119 0v168h77q53 0 79 23l-273 459h195l173 -310l185 310h197l-313 -525q-20 -33 -41 -56.5t-47.5 -39t-60 -22.5t-77.5 -7h-94zM311 690q-31 0 -58.5 12t-48.5 34t-33 53t-12 69v69h129v-71q0 -31 12.5 -47.5t33.5 -16.5h73q21 0 33.5 16.5t12.5 47.5v71h129v-69
q0 -38 -12 -69t-33 -53t-48.5 -34t-58.5 -12h-119z" />
    <glyph glyph-name="uni040F" unicode="&#x40f;" horiz-adv-x="772" 
d="M316 -174v174h-261v650h175v-482h312v482h175v-650h-261v-174h-140z" />
    <glyph glyph-name="uni0411" unicode="&#x411;" horiz-adv-x="777" 
d="M529 412q47 0 87 -15t69 -42t45 -65t16 -84t-16 -84t-45 -65t-69 -42t-87 -15h-474v650h631v-168h-455v-315h289q24 0 38 13.5t14 39.5q0 25 -14 38.5t-38 13.5h-227v140h236z" />
    <glyph glyph-name="uni0414" unicode="&#x414;" horiz-adv-x="815" 
d="M20 -174v342h59q20 0 32.5 13.5t17.5 48.5l55 420h533v-482h79v-342h-140v174h-497v-174h-139zM293 261q-6 -45 -12.5 -64.5t-15.5 -28.5h277v323h-216z" />
    <glyph glyph-name="uni0416" unicode="&#x416;" horiz-adv-x="1136" 
d="M5 0l255 336l-242 314h207l198 -255q19 -23 19 -53v-16q0 -16 -5 -27.5t-15 -25.5l-205 -273h-212zM481 0v650h174v-650h-174zM919 0l-206 273q-9 14 -14 25.5t-5 27.5v16q0 30 19 53l198 255h207l-242 -314l255 -336h-212z" />
    <glyph glyph-name="uni0418" unicode="&#x418;" horiz-adv-x="772" 
d="M230 271l258 331q21 27 43 37.5t63 10.5h42q81 0 81 -74v-576h-175v417l-287 -362q-23 -29 -44 -42t-55 -13h-35q-66 0 -66 67v583h175v-379z" />
    <glyph glyph-name="uni0419" unicode="&#x419;" horiz-adv-x="772" 
d="M55 0zM230 271l258 331q21 27 43 37.5t63 10.5h42q81 0 81 -74v-576h-175v417l-287 -362q-23 -29 -44 -42t-55 -13h-35q-66 0 -66 67v583h175v-379zM326 690q-31 0 -58.5 12t-48.5 34t-33 53t-12 69v69h129v-71q0 -31 12.5 -47.5t33.5 -16.5h73q21 0 33.5 16.5t12.5 47.5
v71h129v-69q0 -38 -12 -69t-33 -53t-48.5 -34t-58.5 -12h-119z" />
    <glyph glyph-name="uni041B" unicode="&#x41b;" horiz-adv-x="772" 
d="M20 0v168h58q21 0 33.5 13.5t17.5 48.5l55 420h533v-650h-175v491h-216l-40 -283q-16 -109 -59.5 -158.5t-125.5 -49.5h-81z" />
    <glyph glyph-name="uni0423" unicode="&#x423;" horiz-adv-x="754" 
d="M119 0v168h77q53 0 79 23l-273 459h195l173 -310l185 310h197l-313 -525q-20 -33 -41 -56.5t-47.5 -39t-60 -22.5t-77.5 -7h-94z" />
    <glyph glyph-name="uni0426" unicode="&#x426;" horiz-adv-x="816" 
d="M657 -174v174h-602v650h175v-482h312v482h175v-482h80v-342h-140z" />
    <glyph glyph-name="uni0427" unicode="&#x427;" horiz-adv-x="760" 
d="M530 0v650h175v-650h-175zM337 210q-64 0 -118.5 20.5t-94 57.5t-62 88.5t-22.5 113.5v160h176v-147q0 -57 35 -91t89 -34h127v-168h-130z" />
    <glyph glyph-name="uni0428" unicode="&#x428;" horiz-adv-x="985" 
d="M55 0v650h175v-482h179v482h166v-482h180v482h175v-650h-875z" />
    <glyph glyph-name="uni0429" unicode="&#x429;" horiz-adv-x="1028" 
d="M869 -174v174h-814v650h175v-482h179v482h166v-482h180v482h175v-482h79v-342h-140z" />
    <glyph glyph-name="uni042A" unicode="&#x42a;" horiz-adv-x="922" 
d="M631 492q57 0 104.5 -18t82 -50.5t54 -77.5t19.5 -100t-19.5 -100t-54 -77.5t-82 -50.5t-104.5 -18h-411v482h-200v168h374v-483h240q36 0 59 23.5t23 61.5t-23 61t-59 23h-184v156h181z" />
    <glyph glyph-name="uni042B" unicode="&#x42b;" horiz-adv-x="1062" 
d="M55 0zM486 492q57 0 104.5 -18t82 -50.5t54 -77.5t19.5 -100t-19.5 -100t-54 -77.5t-82 -50.5t-104.5 -18h-431v650h174v-483h260q36 0 59.5 23.5t23.5 61.5t-23.5 61t-59.5 23h-203v156h200zM832 0v650h175v-650h-175z" />
    <glyph glyph-name="uni042C" unicode="&#x42c;" horiz-adv-x="777" 
d="M486 492q57 0 104.5 -18t82 -50.5t54 -77.5t19.5 -100t-19.5 -100t-54 -77.5t-82 -50.5t-104.5 -18h-431v650h174v-483h260q36 0 59.5 23.5t23.5 61.5t-23.5 61t-59.5 23h-203v156h200z" />
    <glyph glyph-name="uni042D" unicode="&#x42d;" horiz-adv-x="739" 
d="M43 0v168h331q34 0 63 11.5t50 32t32.5 49.5t11.5 64t-11.5 64t-32.5 50t-50 32.5t-63 11.5h-331v167h319q74 0 137 -23.5t109 -66.5t72 -102.5t26 -132.5t-26 -133t-72 -102.5t-109 -66t-137 -23.5h-319zM180 257v139h262v-139h-262z" />
    <glyph glyph-name="uni042E" unicode="&#x42e;" horiz-adv-x="1103" 
d="M55 0v650h171v-254h98q12 58 41.5 105t74 80t101 51t121.5 18h65q74 0 137 -23.5t108.5 -66.5t71.5 -102.5t26 -132.5t-26 -133t-71.5 -102.5t-108.5 -66t-137 -23.5h-65q-66 0 -123 18t-101 52t-74 81t-41 106h-97v-257h-171zM739 168q34 0 62.5 11.5t49.5 32t32.5 49.5
t11.5 64t-11.5 64t-32.5 50t-49.5 32.5t-62.5 11.5h-94q-34 0 -63 -11.5t-50 -32.5t-32.5 -50t-11.5 -64t11.5 -64t32.5 -49.5t50 -32t63 -11.5h94z" />
    <glyph glyph-name="uni042F" unicode="&#x42f;" horiz-adv-x="797" 
d="M6 0l163 191q-61 29 -96.5 85t-35.5 131q0 54 19 99t53.5 77t81.5 49.5t103 17.5h447v-650h-173v483h-274q-36 0 -59.5 -22.5t-23.5 -60.5t23.5 -60.5t59.5 -22.5h224v-152h-155l-130 -165h-227z" />
    <glyph glyph-name="uni0431" unicode="&#x431;" horiz-adv-x="679" 
d="M279 0q-112 0 -173.5 61.5t-61.5 176.5v216q0 125 63 186t203 61h134v-152h-135q-55 0 -76.5 -24t-21.5 -72v-229q0 -72 85 -72h85q45 0 74 19.5t29 63.5t-31.5 60.5t-88.5 16.5q-24 0 -50.5 -2t-52.5 -7v137q27 7 58 11t65 4q66 0 115.5 -15.5t83.5 -44.5t51 -70t17 -92
q0 -56 -20.5 -99.5t-57.5 -73t-88.5 -45t-113.5 -15.5h-92z" />
    <glyph glyph-name="uni0432" unicode="&#x432;" horiz-adv-x="666" 
d="M49 0v499h411q45 0 76.5 -10t52 -28t29.5 -42t9 -52q0 -38 -16 -65.5t-45 -38.5q33 -9 54.5 -39t21.5 -78q0 -67 -47.5 -106.5t-138.5 -39.5h-407zM271 200v104h160q38 0 38 36q0 33 -38 33h-215v-246h223q40 0 40 36q0 37 -40 37h-168z" />
    <glyph glyph-name="uni0433" unicode="&#x433;" horiz-adv-x="466" 
d="M49 0v499h403v-147h-236v-352h-167z" />
    <glyph glyph-name="uni0434" unicode="&#x434;" horiz-adv-x="720" 
d="M20 -174v320h55q31 0 39 46l46 307h467v-353h73v-320h-131v174h-418v-174h-131zM263 242q-8 -43 -14.5 -63t-15.5 -33h227v206h-178z" />
    <glyph glyph-name="uni0436" unicode="&#x436;" horiz-adv-x="911" 
d="M6 0l169 257l-161 242h183l134 -195q7 -10 9.5 -21t2.5 -21v-12q0 -11 -3.5 -20.5t-9.5 -20.5l-137 -209h-187zM537 499v-499h-163v499h163zM718 0l-137 209q-13 20 -13 41v12q0 22 12 42l133 195h184l-161 -242l169 -257h-187z" />
    <glyph glyph-name="uni0437" unicode="&#x437;" horiz-adv-x="565" 
d="M117 200v104h213q38 0 38 36q0 33 -38 33h-293v126h322q45 0 77 -10t52 -28t29.5 -42t9.5 -52q0 -38 -16 -65.5t-45 -38.5q32 -9 53.5 -39t21.5 -78q0 -67 -47.5 -106.5t-138.5 -39.5h-318v127h302q39 0 39 36q0 37 -39 37h-222z" />
    <glyph glyph-name="uni0438" unicode="&#x438;" horiz-adv-x="687" 
d="M216 211l222 250q19 21 37 29.5t53 8.5h37q73 0 73 -58v-441h-167v317l-246 -274q-21 -23 -38.5 -33t-47.5 -10h-31q-59 0 -59 53v446h167v-288z" />
    <glyph glyph-name="uni0439" unicode="&#x439;" horiz-adv-x="687" 
d="M49 0zM216 211l222 250q19 21 37 29.5t53 8.5h37q73 0 73 -58v-441h-167v317l-246 -274q-21 -23 -38.5 -33t-47.5 -10h-31q-59 0 -59 53v446h167v-288zM284 539q-31 0 -58.5 12t-48.5 34t-33 53t-12 69v69h129v-71q0 -31 12.5 -47.5t33.5 -16.5h73q21 0 33.5 16.5
t12.5 47.5v71h129v-69q0 -38 -12 -69t-33 -53t-48.5 -34t-58.5 -12h-119z" />
    <glyph glyph-name="uni043B" unicode="&#x43b;" horiz-adv-x="676" 
d="M20 0v146h51q17 0 28 10.5t15 35.5l46 307h467v-499h-167v352h-178l-32 -192q-14 -82 -52.5 -121t-109.5 -39h-68z" />
    <glyph glyph-name="uni043C" unicode="&#x43c;" horiz-adv-x="887" 
d="M270 499q58 0 74 -49l99 -292l100 292q16 49 74 49h67q29 0 48.5 -13t27.5 -45l116 -441h-159l-78 320l-95 -271q-18 -49 -73 -49h-55q-56 0 -72 49l-95 277l-78 -326h-160l117 441q8 32 27 45t48 13h67z" />
    <glyph glyph-name="uni043D" unicode="&#x43d;" horiz-adv-x="687" 
d="M471 0v175h-202v138h202v186h167v-499h-167zM49 0v499h167v-499h-167z" />
    <glyph glyph-name="uni043F" unicode="&#x43f;" horiz-adv-x="687" 
d="M49 0v499h589v-499h-167v352h-255v-352h-167z" />
    <glyph glyph-name="uni0442" unicode="&#x442;" horiz-adv-x="625" 
d="M229 0v352h-214v147h595v-147h-213v-352h-168z" />
    <glyph glyph-name="uni0446" unicode="&#x446;" horiz-adv-x="732" 
d="M581 -174v174h-532v499h167v-353h255v353h167v-353h74v-320h-131z" />
    <glyph glyph-name="uni0447" unicode="&#x447;" horiz-adv-x="664" 
d="M447 0v499h167v-499h-167zM266 161q-52 0 -96 15.5t-75.5 44t-49.5 68t-18 87.5v123h167v-113q0 -42 27.5 -67.5t71.5 -25.5h101v-132h-128z" />
    <glyph glyph-name="uni0448" unicode="&#x448;" horiz-adv-x="924" 
d="M49 0v499h167v-353h164v353h163v-353h164v353h167v-499h-825z" />
    <glyph glyph-name="uni0449" unicode="&#x449;" horiz-adv-x="968" 
d="M818 -174v174h-769v499h167v-353h164v353h163v-353h164v353h167v-353h75v-320h-131z" />
    <glyph glyph-name="uni044A" unicode="&#x44a;" horiz-adv-x="782" 
d="M324 499v-367h201q63 0 63 56q0 57 -63 57h-148v130h171q48 0 86.5 -13.5t65.5 -38t41.5 -59t14.5 -77.5q0 -86 -55.5 -136.5t-152.5 -50.5h-391v352h-142v147h309z" />
    <glyph glyph-name="uni044B" unicode="&#x44b;" horiz-adv-x="942" 
d="M49 0zM216 499v-367h204q63 0 63 56q0 57 -63 57h-151v130h174q48 0 86.5 -13.5t65.5 -38t41.5 -59t14.5 -77.5q0 -86 -55.5 -136.5t-152.5 -50.5h-394v499h167zM726 0v499h167v-499h-167z" />
    <glyph glyph-name="uni044C" unicode="&#x44c;" horiz-adv-x="676" 
d="M216 499v-367h204q63 0 63 56q0 57 -63 57h-151v130h174q48 0 86.5 -13.5t65.5 -38t41.5 -59t14.5 -77.5q0 -86 -55.5 -136.5t-152.5 -50.5h-394v499h167z" />
    <glyph glyph-name="uni044D" unicode="&#x44d;" horiz-adv-x="559" 
d="M38 0v137h216q54 0 82 32t28 86q0 52 -28 83.5t-82 31.5h-216v129h224q58 0 107.5 -18t85.5 -51t56 -79t20 -101q0 -56 -20 -102t-56 -79t-85.5 -51t-107.5 -18h-224zM117 209v90h188v-90h-188z" />
    <glyph glyph-name="uni044E" unicode="&#x44e;" horiz-adv-x="898" 
d="M49 0v499h163v-177h84q12 40 35.5 73t57 56t76 35.5t90.5 12.5h46q58 0 107.5 -18t85.5 -51t56 -79t20 -101q0 -56 -20 -102t-56 -79t-85.5 -51t-107.5 -18h-46q-48 0 -90 12.5t-75.5 35.5t-57 55.5t-35.5 72.5h-85v-176h-163zM601 152q45 0 73.5 27t28.5 71t-28.5 70.5
t-73.5 26.5h-51q-45 0 -73 -26.5t-28 -70.5t28 -71t73 -27h51z" />
    <glyph glyph-name="uni044F" unicode="&#x44f;" horiz-adv-x="679" 
d="M6 0l134 152q-51 20 -79.5 62.5t-28.5 102.5q0 85 53 133.5t147 48.5h398v-499h-167v367h-201q-62 0 -62 -56t62 -56h148v-119h-106l-110 -136h-188z" />
    <glyph glyph-name="uni0452" unicode="&#x452;" horiz-adv-x="681" 
d="M217 560v-70h171q124 0 187 -61.5t63 -175.5v-244q0 -87 -46 -135t-137 -48h-100v144h55q61 0 61 60v223q0 86 -87 86h-167v-339h-168v560h-47v103h47v38h168v-38h211v-103h-211z" />
    <glyph glyph-name="uni0453" unicode="&#x453;" horiz-adv-x="466" 
d="M49 0zM49 0v499h403v-147h-236v-352h-167zM153 539l103 237h154l-114 -237h-143z" />
    <glyph glyph-name="uni0454" unicode="&#x454;" horiz-adv-x="559" 
d="M297 0q-58 0 -107 18t-85 51t-56 79t-20 102q0 55 20 101t56 79t85 51t107 18h225v-129h-217q-54 0 -82 -31.5t-28 -83.5q0 -54 28 -86t82 -32h217v-137h-225zM254 209v90h188v-90h-188z" />
    <glyph glyph-name="uni0459" unicode="&#x459;" horiz-adv-x="1007" 
d="M282 352l-32 -192q-14 -82 -52.5 -121t-109.5 -39h-68v146h51q17 0 28 10.5t15 35.5l46 307h427v-367h164q63 0 63 56q0 57 -63 57h-111v130h134q48 0 86.5 -13.5t65.5 -38t41.5 -59t14.5 -77.5q0 -86 -55.5 -136.5t-152.5 -50.5h-354v352h-138z" />
    <glyph glyph-name="uni045A" unicode="&#x45a;" horiz-adv-x="1018" 
d="M598 132h163q32 0 47.5 12t15.5 39q0 28 -16 40t-47 12h-110v130h134q96 0 151.5 -48.5t55.5 -134.5t-55 -134t-152 -48h-354v227h-162v138h162v134h167v-367zM49 0v499h167v-499h-167z" />
    <glyph glyph-name="uni045C" unicode="&#x45c;" horiz-adv-x="633" 
d="M49 0zM435 0l-171 209q-8 11 -12 20.5t-4 20.5v12q0 10 3.5 21.5t11.5 20.5l166 195h188l-200 -242l210 -257h-192zM49 0v499h167v-499h-167zM219 539l103 237h154l-114 -237h-143z" />
    <glyph glyph-name="uni045D" unicode="&#x45d;" horiz-adv-x="687" 
d="M49 0zM216 211l222 250q19 21 37 29.5t53 8.5h37q73 0 73 -58v-441h-167v317l-246 -274q-21 -23 -38.5 -33t-47.5 -10h-31q-59 0 -59 53v446h167v-288zM299 539l-114 237h154l103 -237h-143z" />
    <glyph glyph-name="uni045E" unicode="&#x45e;" horiz-adv-x="657" 
d="M9 0zM117 -174v144h53q32 0 50 13t29 32l-240 484h169l148 -320l152 320h170l-277 -548q-16 -32 -33.5 -55.5t-39.5 -39t-49.5 -23t-63.5 -7.5h-68zM269 539q-31 0 -58.5 12t-48.5 34t-33 53t-12 69v69h129v-71q0 -31 12.5 -47.5t33.5 -16.5h73q21 0 33.5 16.5t12.5 47.5
v71h129v-69q0 -38 -12 -69t-33 -53t-48.5 -34t-58.5 -12h-119z" />
    <glyph glyph-name="uni045F" unicode="&#x45f;" horiz-adv-x="687" 
d="M278 -172v172h-229v499h167v-353h255v353h167v-499h-229v-172h-131z" />
    <glyph glyph-name="uni0490" unicode="&#x490;" horiz-adv-x="647" 
d="M488 650v174h139v-342h-396v-482h-176v650h433z" />
    <glyph glyph-name="uni0491" unicode="&#x491;" horiz-adv-x="466" 
d="M216 352v-352h-167v499h272v174h131v-321h-236z" />
    <glyph glyph-name="uni0492" unicode="&#x492;" horiz-adv-x="668" 
d="M252 220v-220h-176v220h-74v120h74v310h572v-168h-396v-142h176v-120h-176z" />
    <glyph glyph-name="uni0493" unicode="&#x493;" horiz-adv-x="493" 
d="M76 0v137h-74v120h74v242h402v-147h-235v-95h185v-120h-185v-137h-167z" />
    <glyph glyph-name="uni0496" unicode="&#x496;" horiz-adv-x="1232" 
d="M1073 -174v174h-154l-206 273q-9 14 -14 25.5t-5 27.5v16q0 30 19 53l198 255h207l-242 -314l127 -168h209v-342h-139zM5 0l255 336l-242 314h207l198 -255q19 -23 19 -53v-16q0 -16 -5 -27.5t-15 -25.5l-205 -273h-212zM481 0v650h174v-650h-174z" />
    <glyph glyph-name="uni0497" unicode="&#x497;" horiz-adv-x="1003" 
d="M853 -174v174h-135l-137 209q-13 20 -13 41v12q0 22 12 42l133 195h184l-161 -242l73 -111h175v-320h-131zM6 0l169 257l-161 242h183l134 -195q12 -20 12 -42v-12q0 -11 -3.5 -20.5t-9.5 -20.5l-137 -209h-187zM537 499v-499h-163v499h163z" />
    <glyph glyph-name="uni0498" unicode="&#x498;" 
d="M458 0v-81q0 -87 -45.5 -135t-135.5 -48h-100v144h55q60 0 60 60v60h-263v163h462q24 0 37.5 12t13.5 35q0 24 -13.5 37.5t-37.5 13.5h-455v134h445q47 0 47 47q0 46 -47 46h-452v162h475q52 0 89 -13t60 -36t34 -54.5t11 -67.5q0 -51 -18.5 -86.5t-53.5 -49.5
q39 -12 64.5 -51t25.5 -101q0 -88 -56 -139.5t-161 -51.5h-41z" />
    <glyph glyph-name="uni0499" unicode="&#x499;" horiz-adv-x="565" 
d="M117 200v104h213q38 0 38 36q0 33 -38 33h-293v126h322q45 0 77 -10t52 -28t29.5 -42t9.5 -52q0 -38 -16 -65.5t-45 -38.5q32 -9 53.5 -39t21.5 -78q0 -63 -42.5 -102t-124.5 -44v-102q0 -77 -40 -119.5t-119 -42.5h-87v126h48q53 0 53 54v84h-192v127h302q39 0 39 36
q0 37 -39 37h-222z" />
    <glyph glyph-name="uni049A" unicode="&#x49a;" horiz-adv-x="887" 
d="M728 -174v174h-169l-266 273q-13 13 -18 25t-6 28v16q0 28 23 53l257 255h224l-313 -314l164 -168h243v-342h-139zM55 0v650h175v-650h-175z" />
    <glyph glyph-name="uni049B" unicode="&#x49b;" horiz-adv-x="722" 
d="M571 -174v174h-136l-171 209q-8 11 -12 20.5t-4 20.5v12q0 10 3.5 21.5t11.5 20.5l166 195h188l-200 -242l90 -111h195v-320h-131zM49 0v499h167v-499h-167z" />
    <glyph glyph-name="uni04A0" unicode="&#x4a0;" horiz-adv-x="939" 
d="M704 0l-266 273q-12 14 -18 25.5t-6 27.5v16q0 28 23 53l257 255h224l-313 -314l329 -336h-230zM200 0v482h-180v168h355v-650h-175z" />
    <glyph glyph-name="uni04A1" unicode="&#x4a1;" horiz-adv-x="738" 
d="M155 0v352h-140v147h307v-499h-167zM540 0l-171 209q-15 21 -15 41v12q0 10 3 21t11 21l166 195h188l-200 -242l210 -257h-192z" />
    <glyph glyph-name="uni04A2" unicode="&#x4a2;" horiz-adv-x="816" 
d="M657 -174v174h-115v252h-254v159h254v239h175v-482h80v-342h-140zM55 0v650h175v-650h-175z" />
    <glyph glyph-name="uni04A3" unicode="&#x4a3;" horiz-adv-x="732" 
d="M581 -174v174h-110v175h-202v138h202v186h167v-353h74v-320h-131zM49 0v499h167v-499h-167z" />
    <glyph glyph-name="uni04AA" unicode="&#x4aa;" horiz-adv-x="739" 
d="M586 0v-81q0 -87 -45.5 -135t-135.5 -48h-99v144h54q60 0 60 60v60h-42q-75 0 -138 23.5t-108.5 66t-71.5 102.5t-26 133t26 132.5t71.5 102.5t108.5 66.5t138 23.5h318v-167h-330q-34 0 -63 -11.5t-50 -32.5t-33 -50t-12 -64t12 -64t33 -49.5t50 -32t63 -11.5h330v-168
h-110z" />
    <glyph glyph-name="uni04AB" unicode="&#x4ab;" horiz-adv-x="559" 
d="M433 0v-102q0 -77 -40 -119.5t-119 -42.5h-87v126h48q53 0 53 54v84q-57 1 -104.5 20t-82 52t-53.5 78.5t-19 99.5q0 55 20 101t56 79t85 51t107 18h225v-152h-226q-45 0 -73 -26.5t-28 -70.5t28 -71t73 -27h226v-152h-89z" />
    <glyph glyph-name="uni04B0" unicode="&#x4b0;" horiz-adv-x="774" 
d="M300 0v210h-263v120h191l-226 320h205l184 -259l185 259h196l-226 -320h193v-120h-264v-210h-175z" />
    <glyph glyph-name="uni04B1" unicode="&#x4b1;" horiz-adv-x="658" 
d="M248 0h-227v120h180l-192 379h170l150 -309l149 309h171l-194 -379h176v-120h-220v-174h-163v174z" />
    <glyph glyph-name="uni04B2" unicode="&#x4b2;" horiz-adv-x="913" 
d="M754 -174v174h-161l-192 224l-187 -224h-208l285 339l-262 311h221l165 -197l166 197h208l-263 -312l145 -170h222v-342h-139z" />
    <glyph glyph-name="uni04B3" unicode="&#x4b3;" horiz-adv-x="749" 
d="M598 -174v174h-144l-131 151l-126 -151h-191l222 260l-205 239h198l112 -130l112 130h189l-206 -239l99 -114h202v-320h-131z" />
    <glyph glyph-name="uni04B6" unicode="&#x4b6;" horiz-adv-x="866" 
d="M706 -174v174h-176v650h175v-482h141v-342h-140zM337 210q-64 0 -118.5 20.5t-94 57.5t-62 88.5t-22.5 113.5v160h176v-147q0 -57 35 -91t89 -34h127v-168h-130z" />
    <glyph glyph-name="uni04B7" unicode="&#x4b7;" horiz-adv-x="708" 
d="M557 -174v174h-110v499h167v-353h74v-320h-131zM266 161q-52 0 -96 15.5t-75.5 44t-49.5 68t-18 87.5v123h167v-113q0 -42 27.5 -67.5t71.5 -25.5h101v-132h-128z" />
    <glyph glyph-name="uni04BA" unicode="&#x4ba;" horiz-adv-x="760" 
d="M230 650v-650h-175v650h175zM423 440q64 0 118.5 -20.5t94.5 -57.5t62 -88.5t22 -113.5v-160h-176v147q0 57 -35 91t-89 34h-127v168h130z" />
    <glyph glyph-name="uni04C3" unicode="&#x4c3;" horiz-adv-x="794" 
d="M789 -81q0 -87 -45.5 -135t-135.5 -48h-100v144h55q30 0 45 12t15 45l-330 336q-24 24 -24 53v16q0 31 23 53l257 255h224l-313 -314l329 -336v-81zM55 0v650h175v-650h-175z" />
    <glyph glyph-name="uni04C4" unicode="&#x4c4;" horiz-adv-x="633" 
d="M627 -102q0 -77 -40 -119.5t-119 -42.5h-87v126h48q26 0 39.5 15t13.5 53l-218 279q-16 20 -16 41v12q0 10 3.5 21.5t11.5 20.5l166 195h188l-200 -242l210 -257v-102zM49 0v499h167v-499h-167z" />
    <glyph glyph-name="uni04C7" unicode="&#x4c7;" horiz-adv-x="772" 
d="M423 -174v144h57q62 0 62 60v222h-254v159h254v239h175v-641q0 -87 -47.5 -135t-141.5 -48h-105zM55 0v650h175v-650h-175z" />
    <glyph glyph-name="uni04C8" unicode="&#x4c8;" horiz-adv-x="687" 
d="M356 -174v144h55q60 0 60 60v145h-202v138h202v186h167v-497q0 -84 -47 -130t-136 -46h-99zM49 0v499h167v-499h-167z" />
    <glyph glyph-name="uni04E2" unicode="&#x4e2;" horiz-adv-x="772" 
d="M55 0zM230 271l258 331q21 27 43 37.5t63 10.5h42q81 0 81 -74v-576h-175v417l-287 -362q-23 -29 -44 -42t-55 -13h-35q-66 0 -66 67v583h175v-379zM172 720v120h426v-120h-426z" />
    <glyph glyph-name="uni04E3" unicode="&#x4e3;" horiz-adv-x="687" 
d="M49 0zM216 211l222 250q19 21 37 29.5t53 8.5h37q73 0 73 -58v-441h-167v317l-246 -274q-21 -23 -38.5 -33t-47.5 -10h-31q-59 0 -59 53v446h167v-288zM130 569v120h426v-120h-426z" />
    <glyph glyph-name="uni04E8" unicode="&#x4e8;" horiz-adv-x="849" 
d="M378 0q-75 0 -138 23.5t-108.5 66t-71.5 102.5t-26 133t26 132.5t71.5 102.5t108.5 66.5t138 23.5h94q74 0 137 -23.5t108.5 -66.5t71.5 -102.5t26 -132.5t-26 -133t-71.5 -102.5t-108.5 -66t-137 -23.5h-94zM364 489q-56 0 -96.5 -28.5t-57.5 -76.5h428
q-17 48 -56.5 76.5t-94.5 28.5h-123zM487 162q54 0 94 27.5t56 75.5h-426q17 -48 57 -75.5t96 -27.5h123z" />
    <glyph glyph-name="uni04E9" unicode="&#x4e9;" horiz-adv-x="664" 
d="M297 0q-58 0 -107 18t-85 51t-56 79t-20 102q0 55 20 101t56 79t85 51t107 18h70q58 0 107 -18t85 -51t56 -79t20 -101q0 -56 -20 -102t-56 -79t-85 -51t-107 -18h-70zM372 140q42 0 71.5 23.5t37.5 63.5h-300q7 -40 37 -63.5t73 -23.5h81zM291 359q-42 0 -71.5 -22
t-37.5 -60h298q-8 38 -37.5 60t-70.5 22h-81z" />
    <glyph glyph-name="uni04EE" unicode="&#x4ee;" horiz-adv-x="754" 
d="M2 0zM119 0v168h77q53 0 79 23l-273 459h195l173 -310l185 310h197l-313 -525q-20 -33 -41 -56.5t-47.5 -39t-60 -22.5t-77.5 -7h-94zM157 720v120h426v-120h-426z" />
    <glyph glyph-name="uni04EF" unicode="&#x4ef;" horiz-adv-x="657" 
d="M9 0zM117 -174v144h53q32 0 50 13t29 32l-240 484h169l148 -320l152 320h170l-277 -548q-16 -32 -33.5 -55.5t-39.5 -39t-49.5 -23t-63.5 -7.5h-68zM115 569v120h426v-120h-426z" />
    <glyph glyph-name="uni0512" unicode="&#x512;" horiz-adv-x="772" 
d="M422 -174v144h57q30 0 46.5 14.5t16.5 41.5v465h-216l-40 -283q-16 -109 -59.5 -158.5t-125.5 -49.5h-81v168h58q21 0 33.5 13.5t17.5 48.5l55 420h533v-641q0 -86 -48 -134.5t-142 -48.5h-105z" />
    <glyph glyph-name="uni0513" unicode="&#x513;" horiz-adv-x="676" 
d="M345 -174v144h55q29 0 44.5 14.5t15.5 41.5v326h-178l-32 -192q-14 -82 -52.5 -121t-109.5 -39h-68v146h51q14 0 26 8t15 28l48 317h467v-490q0 -86 -45.5 -134.5t-136.5 -48.5h-100z" />
    <glyph glyph-name="uni058F" unicode="&#x58f;" horiz-adv-x="687" 
d="M609 84v-84h-167v84h-209v82h209v53h-209v82h209v109q0 88 -86 88h-87q-87 0 -87 -88v-68h-159v68q0 116 62 178t187 62h88q125 0 187 -62t62 -178v-109h61v-82h-61v-53h61v-82h-61z" />
    <glyph glyph-name="uni1E0C" unicode="&#x1e0c;" horiz-adv-x="807" 
d="M55 0zM55 0v650h374q74 0 137 -23.5t108.5 -66.5t71.5 -102.5t26 -132.5t-26 -133t-71.5 -102.5t-108.5 -66t-137 -23.5h-374zM441 168q34 0 62.5 11.5t49.5 32t32.5 49.5t11.5 64t-11.5 64t-32.5 50t-49.5 32.5t-62.5 11.5h-211v-315h211zM371 -194q-33 0 -54.5 19.5
t-21.5 53.5q0 32 21.5 51.5t54.5 19.5h23q33 0 54 -19.5t21 -51.5q0 -34 -21 -53.5t-54 -19.5h-23z" />
    <glyph glyph-name="uni1E0D" unicode="&#x1e0d;" horiz-adv-x="679" 
d="M29 0zM297 0q-58 0 -107 17.5t-85 50.5t-56 81.5t-20 110.5q0 112 67.5 178t201.5 66q32 0 63.5 -3.5t57.5 -10.5v-151q-26 6 -53 10t-50 4q-57 0 -88.5 -21.5t-31.5 -76.5q0 -52 28 -77.5t73 -25.5h84q87 0 87 86v463h167v-463q0 -115 -62.5 -176.5t-187.5 -61.5h-88z
M328 -194q-33 0 -54.5 19.5t-21.5 53.5q0 32 21.5 51.5t54.5 19.5h23q33 0 54 -19.5t21 -51.5q0 -34 -21 -53.5t-54 -19.5h-23z" />
    <glyph glyph-name="uni1E12" unicode="&#x1e12;" horiz-adv-x="807" 
d="M55 0zM55 0v650h374q74 0 137 -23.5t108.5 -66.5t71.5 -102.5t26 -132.5t-26 -133t-71.5 -102.5t-108.5 -66t-137 -23.5h-374zM441 168q34 0 62.5 11.5t49.5 32t32.5 49.5t11.5 64t-11.5 64t-32.5 50t-49.5 32.5t-62.5 11.5h-211v-315h211zM452 -277l-67 146l-66 -146
h-143l114 237h187l114 -237h-139z" />
    <glyph glyph-name="uni1E13" unicode="&#x1e13;" horiz-adv-x="679" 
d="M29 0zM297 0q-58 0 -107 17.5t-85 50.5t-56 81.5t-20 110.5q0 112 67.5 178t201.5 66q32 0 63.5 -3.5t57.5 -10.5v-151q-26 6 -53 10t-50 4q-57 0 -88.5 -21.5t-31.5 -76.5q0 -52 28 -77.5t73 -25.5h84q87 0 87 86v463h167v-463q0 -115 -62.5 -176.5t-187.5 -61.5h-88z
M408 -277l-67 146l-66 -146h-143l114 237h187l114 -237h-139z" />
    <glyph glyph-name="uni1E24" unicode="&#x1e24;" horiz-adv-x="772" 
d="M55 0zM542 0v252h-254v159h254v239h175v-650h-175zM55 0v650h175v-650h-175zM374 -194q-33 0 -54.5 19.5t-21.5 53.5q0 32 21.5 51.5t54.5 19.5h23q33 0 54 -19.5t21 -51.5q0 -34 -21 -53.5t-54 -19.5h-23z" />
    <glyph glyph-name="uni1E25" unicode="&#x1e25;" horiz-adv-x="681" 
d="M49 0zM471 0v262q0 85 -87 85h-167v-347h-168v701h168v-202h171q124 0 187 -62t63 -176v-261h-167zM328 -194q-33 0 -54.5 19.5t-21.5 53.5q0 32 21.5 51.5t54.5 19.5h23q33 0 54 -19.5t21 -51.5q0 -34 -21 -53.5t-54 -19.5h-23z" />
    <glyph glyph-name="uni1E3C" unicode="&#x1e3c;" horiz-adv-x="647" 
d="M55 0zM55 0v650h176v-482h396v-168h-572zM402 -277l-67 146l-66 -146h-143l114 237h187l114 -237h-139z" />
    <glyph glyph-name="uni1E3D" unicode="&#x1e3d;" horiz-adv-x="311" 
d="M0 0zM73 0v701h167v-701h-167zM224 -277l-67 146l-66 -146h-143l114 237h187l114 -237h-139z" />
    <glyph glyph-name="uni1E44" unicode="&#x1e44;" horiz-adv-x="814" 
d="M55 0zM660 0q-35 0 -55 13t-45 42l-335 362v-417h-170v576q0 74 81 74h42q20 0 35 -3t27 -9t22.5 -15t21.5 -21l307 -331v379h169v-583q0 -67 -65 -67h-35zM396 699q-33 0 -54.5 19.5t-21.5 53.5q0 32 21.5 51.5t54.5 19.5h23q33 0 54 -19.5t21 -51.5q0 -34 -21 -53.5
t-54 -19.5h-23z" />
    <glyph glyph-name="uni1E45" unicode="&#x1e45;" horiz-adv-x="681" 
d="M49 0zM471 0v262q0 85 -87 85h-167v-347h-168v499h339q124 0 187 -62t63 -176v-261h-167zM328 548q-33 0 -54.5 19.5t-21.5 53.5q0 32 21.5 51.5t54.5 19.5h23q33 0 54 -19.5t21 -51.5q0 -34 -21 -53.5t-54 -19.5h-23z" />
    <glyph glyph-name="uni1E4A" unicode="&#x1e4a;" horiz-adv-x="814" 
d="M55 0zM660 0q-35 0 -55 13t-45 42l-335 362v-417h-170v576q0 74 81 74h42q20 0 35 -3t27 -9t22.5 -15t21.5 -21l307 -331v379h169v-583q0 -67 -65 -67h-35zM474 -277l-67 146l-66 -146h-143l114 237h187l114 -237h-139z" />
    <glyph glyph-name="uni1E4B" unicode="&#x1e4b;" horiz-adv-x="681" 
d="M49 0zM471 0v262q0 85 -87 85h-167v-347h-168v499h339q124 0 187 -62t63 -176v-261h-167zM409 -277l-67 146l-66 -146h-143l114 237h187l114 -237h-139z" />
    <glyph glyph-name="uni1E5A" unicode="&#x1e5a;" horiz-adv-x="797" 
d="M55 0zM563 0l-130 165h-154v152h224q36 0 59 22.5t23 60.5t-23 60.5t-59 22.5h-274v-483h-174v650h448q56 0 103 -17.5t81.5 -49.5t53.5 -77t19 -99q0 -75 -36 -131t-97 -85l164 -191h-228zM384 -194q-33 0 -54.5 19.5t-21.5 53.5q0 32 21.5 51.5t54.5 19.5h23
q33 0 54 -19.5t21 -51.5q0 -34 -21 -53.5t-54 -19.5h-23z" />
    <glyph glyph-name="uni1E5B" unicode="&#x1e5b;" horiz-adv-x="448" 
d="M38 0zM44 0v261q0 114 63 176t186 62h140v-152h-136q-86 0 -86 -85v-262h-167zM114 -194q-33 0 -54.5 19.5t-21.5 53.5q0 32 21.5 51.5t54.5 19.5h23q33 0 54 -19.5t21 -51.5q0 -34 -21 -53.5t-54 -19.5h-23z" />
    <glyph glyph-name="uni1E62" unicode="&#x1e62;" horiz-adv-x="773" 
d="M31 0zM39 0v168h486q19 0 31 11.5t12 32.5t-12 33t-31 12h-286q-45 0 -83.5 14.5t-66 40t-43 61.5t-15.5 80t15.5 80.5t43 62.5t66 40t83.5 14h494v-167h-486q-19 0 -30.5 -11t-11.5 -32q0 -20 11.5 -32t30.5 -12h286q46 0 84 -14.5t66 -40.5t43.5 -62.5t15.5 -79.5
q0 -45 -15.5 -81.5t-43.5 -63t-66 -40.5t-84 -14h-494zM374 -194q-33 0 -54.5 19.5t-21.5 53.5q0 32 21.5 51.5t54.5 19.5h23q33 0 54 -19.5t21 -51.5q0 -34 -21 -53.5t-54 -19.5h-23z" />
    <glyph glyph-name="uni1E63" unicode="&#x1e63;" horiz-adv-x="599" 
d="M23 0zM29 0v137h352q35 0 35 32q0 31 -35 31h-196q-38 0 -68 11.5t-51 31.5t-32 47.5t-11 59.5q0 34 12 61.5t34 47t51 30t64 10.5h367v-137h-336q-34 0 -34 -31t34 -31h200q77 0 119 -42t42 -107q0 -35 -12 -62.5t-33.5 -47.5t-51 -30.5t-64.5 -10.5h-386zM287 -194
q-33 0 -54.5 19.5t-21.5 53.5q0 32 21.5 51.5t54.5 19.5h23q33 0 54 -19.5t21 -51.5q0 -34 -21 -53.5t-54 -19.5h-23z" />
    <glyph glyph-name="uni1E6C" unicode="&#x1e6c;" horiz-adv-x="693" 
d="M20 0zM259 0v483h-239v167h653v-167h-239v-483h-175zM335 -194q-33 0 -54.5 19.5t-21.5 53.5q0 32 21.5 51.5t54.5 19.5h23q33 0 54 -19.5t21 -51.5q0 -34 -21 -53.5t-54 -19.5h-23z" />
    <glyph glyph-name="uni1E6D" unicode="&#x1e6d;" horiz-adv-x="447" 
d="M44 0zM226 0q-91 0 -136.5 47.5t-45.5 135.5v458h166v-142h200v-138h-200v-165q0 -59 59 -59h136v-137h-179zM214 -194q-33 0 -54.5 19.5t-21.5 53.5q0 32 21.5 51.5t54.5 19.5h23q33 0 54 -19.5t21 -51.5q0 -34 -21 -53.5t-54 -19.5h-23z" />
    <glyph glyph-name="Wgrave" unicode="&#x1e80;" horiz-adv-x="1007" 
d="M13 0zM703 0q-30 0 -51 15.5t-31 47.5l-117 389l-118 -389q-19 -63 -83 -63h-73q-32 0 -54.5 16.5t-30.5 57.5l-132 576h173l96 -418l113 356q19 62 82 62h53q64 0 82 -62l113 -363l96 425h174l-133 -576q-9 -41 -30.5 -57.5t-55.5 -16.5h-73zM459 690l-114 237h154
l103 -237h-143z" />
    <glyph glyph-name="wgrave" unicode="&#x1e81;" horiz-adv-x="887" 
d="M11 0zM617 0q-28 0 -47 12t-27 37l-98 292l-101 -292q-16 -49 -74 -49h-67q-29 0 -48.5 13t-27.5 45l-116 441h159l79 -320l94 271q16 49 74 49h54q57 0 72 -49l96 -277l77 326h160l-117 -441q-8 -32 -27 -45t-48 -13h-67zM399 539l-114 237h154l103 -237h-143z" />
    <glyph glyph-name="Wacute" unicode="&#x1e82;" horiz-adv-x="1007" 
d="M13 0zM703 0q-30 0 -51 15.5t-31 47.5l-117 389l-118 -389q-19 -63 -83 -63h-73q-32 0 -54.5 16.5t-30.5 57.5l-132 576h173l96 -418l113 356q19 62 82 62h53q64 0 82 -62l113 -363l96 425h174l-133 -576q-9 -41 -30.5 -57.5t-55.5 -16.5h-73zM404 690l103 237h154
l-114 -237h-143z" />
    <glyph glyph-name="wacute" unicode="&#x1e83;" horiz-adv-x="887" 
d="M11 0zM617 0q-28 0 -47 12t-27 37l-98 292l-101 -292q-16 -49 -74 -49h-67q-29 0 -48.5 13t-27.5 45l-116 441h159l79 -320l94 271q16 49 74 49h54q57 0 72 -49l96 -277l77 326h160l-117 -441q-8 -32 -27 -45t-48 -13h-67zM344 539l103 237h154l-114 -237h-143z" />
    <glyph glyph-name="Wdieresis" unicode="&#x1e84;" horiz-adv-x="1007" 
d="M13 0zM703 0q-30 0 -51 15.5t-31 47.5l-117 389l-118 -389q-19 -63 -83 -63h-73q-32 0 -54.5 16.5t-30.5 57.5l-132 576h173l96 -418l113 356q19 62 82 62h53q64 0 82 -62l113 -363l96 425h174l-133 -576q-9 -41 -30.5 -57.5t-55.5 -16.5h-73zM388 699q-34 0 -55 20
t-21 53q0 32 21 51.5t55 19.5h15q33 0 54.5 -19.5t21.5 -51.5q0 -33 -21.5 -53t-54.5 -20h-15zM604 699q-34 0 -55.5 20t-21.5 53q0 32 21.5 51.5t55.5 19.5h14q34 0 55.5 -19.5t21.5 -51.5q0 -33 -21.5 -53t-55.5 -20h-14z" />
    <glyph glyph-name="wdieresis" unicode="&#x1e85;" horiz-adv-x="887" 
d="M11 0zM617 0q-28 0 -47 12t-27 37l-98 292l-101 -292q-16 -49 -74 -49h-67q-29 0 -48.5 13t-27.5 45l-116 441h159l79 -320l94 271q16 49 74 49h54q57 0 72 -49l96 -277l77 326h160l-117 -441q-8 -32 -27 -45t-48 -13h-67zM328 548q-34 0 -55 20t-21 53q0 32 21 51.5
t55 19.5h15q33 0 54.5 -19.5t21.5 -51.5q0 -33 -21.5 -53t-54.5 -20h-15zM544 548q-34 0 -55.5 20t-21.5 53q0 32 21.5 51.5t55.5 19.5h14q34 0 55.5 -19.5t21.5 -51.5q0 -33 -21.5 -53t-55.5 -20h-14z" />
    <glyph glyph-name="uni1E92" unicode="&#x1e92;" horiz-adv-x="731" 
d="M42 0zM117 0q-75 0 -75 71v40q0 30 9.5 50t39.5 44l321 282h-370v163h579q67 0 67 -57v-33q0 -26 -11 -43t-34 -36l-363 -317h408v-164h-571zM354 -194q-33 0 -54.5 19.5t-21.5 53.5q0 32 21.5 51.5t54.5 19.5h23q33 0 54 -19.5t21 -51.5q0 -34 -21 -53.5t-54 -19.5h-23z
" />
    <glyph glyph-name="uni1E93" unicode="&#x1e93;" horiz-adv-x="599" 
d="M34 0zM95 0q-61 0 -61 55v37q0 24 7 40t33 35l236 188h-276v144h475q55 0 55 -45v-32q0 -19 -6 -32.5t-25 -27.5l-269 -216h300v-146h-469zM288 -194q-33 0 -54.5 19.5t-21.5 53.5q0 32 21.5 51.5t54.5 19.5h23q33 0 54 -19.5t21 -51.5q0 -34 -21 -53.5t-54 -19.5h-23z
" />
    <glyph glyph-name="uni1E9E" unicode="&#x1e9e;" horiz-adv-x="821" 
d="M430 266q-56 0 -56 53v31q0 23 6.5 38.5t30.5 32.5l78 67h-140q-54 0 -89 -34t-35 -91v-363h-176v370q0 62 22 113.5t62 88.5t94 57.5t119 20.5h276q67 0 67 -57v-33q0 -20 -11.5 -39.5t-33.5 -39.5l-81 -76q51 0 93 -14.5t72 -40.5t46.5 -64t16.5 -84q0 -45 -16 -82.5
t-45 -64t-69 -41t-89 -14.5h-274v168h266q24 0 38 12.5t14 36.5q0 23 -14 36t-46 13h-126z" />
    <glyph glyph-name="uni1EA0" unicode="&#x1ea0;" horiz-adv-x="881" 
d="M11 0zM681 0l-54 100h-305l74 139h157l-111 209l-238 -448h-193l332 602q27 48 78 48h40q51 0 78 -48l332 -602h-190zM430 -194q-33 0 -54.5 19.5t-21.5 53.5q0 32 21.5 51.5t54.5 19.5h23q33 0 54 -19.5t21 -51.5q0 -34 -21 -53.5t-54 -19.5h-23z" />
    <glyph glyph-name="uni1EA1" unicode="&#x1ea1;" horiz-adv-x="642" 
d="M37 0zM194 0q-79 0 -118 41t-39 106q0 66 39 107t118 41h186v-97h-148q-37 0 -37 -35t35 -35h199v144q0 85 -87 85h-278v142h280q125 0 187 -61.5t62 -176.5v-261h-399zM309 -194q-33 0 -54.5 19.5t-21.5 53.5q0 32 21.5 51.5t54.5 19.5h23q33 0 54 -19.5t21 -51.5
q0 -34 -21 -53.5t-54 -19.5h-23z" />
    <glyph glyph-name="uni1EA2" unicode="&#x1ea2;" horiz-adv-x="881" 
d="M11 0zM681 0l-54 100h-305l74 139h157l-111 209l-238 -448h-193l332 602q27 48 78 48h40q51 0 78 -48l332 -602h-190zM495 692q-16 0 -16 -18v-11h-105v15q0 44 29 70.5t75 26.5h24q24 0 24 26t-23 26h-172v100h176q27 0 50 -8.5t39.5 -24t26 -37.5t9.5 -48
q0 -53 -35.5 -85t-89.5 -32h-12z" />
    <glyph glyph-name="uni1EA3" unicode="&#x1ea3;" horiz-adv-x="642" 
d="M37 0zM194 0q-79 0 -118 41t-39 106q0 66 39 107t118 41h186v-97h-148q-37 0 -37 -35t35 -35h199v144q0 85 -87 85h-278v142h280q125 0 187 -61.5t62 -176.5v-261h-399zM373 541q-16 0 -16 -18v-11h-105v15q0 44 29 70.5t75 26.5h24q24 0 24 26t-23 26h-172v100h176
q27 0 50 -8.5t39.5 -24t26 -37.5t9.5 -48q0 -53 -35.5 -85t-89.5 -32h-12z" />
    <glyph glyph-name="uni1EA4" unicode="&#x1ea4;" horiz-adv-x="881" 
d="M11 0zM681 0l-54 100h-305l74 139h157l-111 209l-238 -448h-193l332 602q27 48 78 48h40q51 0 78 -48l332 -602h-190zM617 790l103 237h154l-114 -237h-143zM509 666l-67 146l-66 -146h-143l114 237h187l114 -237h-139z" />
    <glyph glyph-name="uni1EA5" unicode="&#x1ea5;" horiz-adv-x="642" 
d="M37 0zM194 0q-79 0 -118 41t-39 106q0 66 39 107t118 41h186v-97h-148q-37 0 -37 -35t35 -35h199v144q0 85 -87 85h-278v142h280q125 0 187 -61.5t62 -176.5v-261h-399zM389 517l-67 146l-66 -146h-143l114 237h187l114 -237h-139zM232 775l103 237h154l-114 -237h-143z
" />
    <glyph glyph-name="uni1EA6" unicode="&#x1ea6;" horiz-adv-x="881" 
d="M11 0zM681 0l-54 100h-305l74 139h157l-111 209l-238 -448h-193l332 602q27 48 78 48h40q51 0 78 -48l332 -602h-190zM509 666l-67 146l-66 -146h-143l114 237h187l114 -237h-139zM661 790l-114 237h154l103 -237h-143z" />
    <glyph glyph-name="uni1EA7" unicode="&#x1ea7;" horiz-adv-x="642" 
d="M37 0zM194 0q-79 0 -118 41t-39 106q0 66 39 107t118 41h186v-97h-148q-37 0 -37 -35t35 -35h199v144q0 85 -87 85h-278v142h280q125 0 187 -61.5t62 -176.5v-261h-399zM278 775l-114 237h154l103 -237h-143zM389 517l-67 146l-66 -146h-143l114 237h187l114 -237h-139z
" />
    <glyph glyph-name="uni1EA8" unicode="&#x1ea8;" horiz-adv-x="881" 
d="M11 0zM681 0l-54 100h-305l74 139h157l-111 209l-238 -448h-193l332 602q27 48 78 48h40q51 0 78 -48l332 -602h-190zM752 792q-16 0 -16 -18v-11h-105v15q0 44 29 70.5t75 26.5h24q24 0 24 26t-23 26h-172v100h176q27 0 50 -8.5t39.5 -24t26 -37.5t9.5 -48
q0 -53 -35.5 -85t-89.5 -32h-12zM509 666l-67 146l-66 -146h-143l114 237h187l114 -237h-139z" />
    <glyph glyph-name="uni1EA9" unicode="&#x1ea9;" horiz-adv-x="642" 
d="M37 0zM194 0q-79 0 -118 41t-39 106q0 66 39 107t118 41h186v-97h-148q-37 0 -37 -35t35 -35h199v144q0 85 -87 85h-278v142h280q125 0 187 -61.5t62 -176.5v-261h-399zM389 517l-67 146l-66 -146h-143l114 237h187l114 -237h-139zM378 799q-16 0 -16 -18v-11h-105v15
q0 44 29 70.5t75 26.5h24q24 0 24 26t-23 26h-172v100h176q27 0 50 -8.5t39.5 -24t26 -37.5t9.5 -48q0 -53 -35.5 -85t-89.5 -32h-12z" />
    <glyph glyph-name="uni1EAA" unicode="&#x1eaa;" horiz-adv-x="881" 
d="M11 0zM681 0l-54 100h-305l74 139h157l-111 209l-238 -448h-193l332 602q27 48 78 48h40q51 0 78 -48l332 -602h-190zM509 666l-67 146l-66 -146h-143l114 237h187l114 -237h-139zM653 970q-20 -27 -50 -37t-55 -10q-29 0 -55.5 10t-51.5 21.5t-50.5 21.5t-52.5 10
q-35 0 -64 -18t-47 -38v123q20 24 48.5 35.5t57.5 11.5t55.5 -10t51.5 -21.5t50.5 -21.5t52.5 -10q34 0 62 16.5t48 39.5v-123z" />
    <glyph glyph-name="uni1EAB" unicode="&#x1eab;" horiz-adv-x="642" 
d="M37 0zM194 0q-79 0 -118 41t-39 106q0 66 39 107t118 41h186v-97h-148q-37 0 -37 -35t35 -35h199v144q0 85 -87 85h-278v142h280q125 0 187 -61.5t62 -176.5v-261h-399zM389 520l-67 146l-66 -146h-143l114 237h187l114 -237h-139zM533 822q-20 -27 -50 -37t-55 -10
q-29 0 -55.5 10t-51.5 21.5t-50.5 21.5t-52.5 10q-35 0 -64 -18t-47 -38v123q20 24 48.5 35.5t57.5 11.5t55.5 -10t51.5 -21.5t50.5 -21.5t52.5 -10q34 0 62 16.5t48 39.5v-123z" />
    <glyph glyph-name="uni1EAC" unicode="&#x1eac;" horiz-adv-x="881" 
d="M11 0zM681 0l-54 100h-305l74 139h157l-111 209l-238 -448h-193l332 602q27 48 78 48h40q51 0 78 -48l332 -602h-190zM509 690l-67 146l-66 -146h-143l114 237h187l114 -237h-139zM430 -194q-33 0 -54.5 19.5t-21.5 53.5q0 32 21.5 51.5t54.5 19.5h23q33 0 54 -19.5
t21 -51.5q0 -34 -21 -53.5t-54 -19.5h-23z" />
    <glyph glyph-name="uni1EAD" unicode="&#x1ead;" horiz-adv-x="642" 
d="M37 0zM194 0q-79 0 -118 41t-39 106q0 66 39 107t118 41h186v-97h-148q-37 0 -37 -35t35 -35h199v144q0 85 -87 85h-278v142h280q125 0 187 -61.5t62 -176.5v-261h-399zM389 539l-67 146l-66 -146h-143l114 237h187l114 -237h-139zM309 -194q-33 0 -54.5 19.5t-21.5 53.5
q0 32 21.5 51.5t54.5 19.5h23q33 0 54 -19.5t21 -51.5q0 -34 -21 -53.5t-54 -19.5h-23z" />
    <glyph glyph-name="uni1EAE" unicode="&#x1eae;" horiz-adv-x="881" 
d="M11 0zM681 0l-54 100h-305l74 139h157l-111 209l-238 -448h-193l332 602q27 48 78 48h40q51 0 78 -48l332 -602h-190zM381 670q-31 0 -58.5 12t-48.5 34t-33 53t-12 69v69h129v-71q0 -31 12.5 -47.5t33.5 -16.5h73q21 0 33.5 16.5t12.5 47.5v71h129v-69q0 -38 -12 -69
t-33 -53t-48.5 -34t-58.5 -12h-119zM351 920l103 237h154l-114 -237h-143z" />
    <glyph glyph-name="uni1EAF" unicode="&#x1eaf;" horiz-adv-x="642" 
d="M37 0zM194 0q-79 0 -118 41t-39 106q0 66 39 107t118 41h186v-97h-148q-37 0 -37 -35t35 -35h199v144q0 85 -87 85h-278v142h280q125 0 187 -61.5t62 -176.5v-261h-399zM261 517q-31 0 -58.5 12t-48.5 34t-33 53t-12 69v69h129v-71q0 -31 12.5 -47.5t33.5 -16.5h73
q21 0 33.5 16.5t12.5 47.5v71h129v-69q0 -38 -12 -69t-33 -53t-48.5 -34t-58.5 -12h-119zM224 775l103 237h154l-114 -237h-143z" />
    <glyph glyph-name="uni1EB0" unicode="&#x1eb0;" horiz-adv-x="881" 
d="M11 0zM681 0l-54 100h-305l74 139h157l-111 209l-238 -448h-193l332 602q27 48 78 48h40q51 0 78 -48l332 -602h-190zM381 670q-31 0 -58.5 12t-48.5 34t-33 53t-12 69v69h129v-71q0 -31 12.5 -47.5t33.5 -16.5h73q21 0 33.5 16.5t12.5 47.5v71h129v-69q0 -38 -12 -69
t-33 -53t-48.5 -34t-58.5 -12h-119zM396 920l-114 237h154l103 -237h-143z" />
    <glyph glyph-name="uni1EB1" unicode="&#x1eb1;" horiz-adv-x="642" 
d="M37 0zM194 0q-79 0 -118 41t-39 106q0 66 39 107t118 41h186v-97h-148q-37 0 -37 -35t35 -35h199v144q0 85 -87 85h-278v142h280q125 0 187 -61.5t62 -176.5v-261h-399zM306 775l-114 237h154l103 -237h-143zM261 517q-31 0 -58.5 12t-48.5 34t-33 53t-12 69v69h129v-71
q0 -31 12.5 -47.5t33.5 -16.5h73q21 0 33.5 16.5t12.5 47.5v71h129v-69q0 -38 -12 -69t-33 -53t-48.5 -34t-58.5 -12h-119z" />
    <glyph glyph-name="uni1EB2" unicode="&#x1eb2;" horiz-adv-x="881" 
d="M11 0zM681 0l-54 100h-305l74 139h157l-111 209l-238 -448h-193l332 602q27 48 78 48h40q51 0 78 -48l332 -602h-190zM381 670q-31 0 -58.5 12t-48.5 34t-33 53t-12 69v69h129v-71q0 -31 12.5 -47.5t33.5 -16.5h73q21 0 33.5 16.5t12.5 47.5v71h129v-69q0 -38 -12 -69
t-33 -53t-48.5 -34t-58.5 -12h-119zM504 935q-16 0 -16 -18v-11h-105v15q0 44 29 70.5t75 26.5h24q24 0 24 26t-23 26h-172v100h176q27 0 50 -8.5t39.5 -24t26 -37.5t9.5 -48q0 -53 -35.5 -85t-89.5 -32h-12z" />
    <glyph glyph-name="uni1EB3" unicode="&#x1eb3;" horiz-adv-x="642" 
d="M37 0zM194 0q-79 0 -118 41t-39 106q0 66 39 107t118 41h186v-97h-148q-37 0 -37 -35t35 -35h199v144q0 85 -87 85h-278v142h280q125 0 187 -61.5t62 -176.5v-261h-399zM388 777q-16 0 -16 -18v-11h-105v15q0 44 29 70.5t75 26.5h24q24 0 24 26t-23 26h-172v100h176
q27 0 50 -8.5t39.5 -24t26 -37.5t9.5 -48q0 -53 -35.5 -85t-89.5 -32h-12zM261 517q-31 0 -58.5 12t-48.5 34t-33 53t-12 69v69h129v-71q0 -31 12.5 -47.5t33.5 -16.5h73q21 0 33.5 16.5t12.5 47.5v71h129v-69q0 -38 -12 -69t-33 -53t-48.5 -34t-58.5 -12h-119z" />
    <glyph glyph-name="uni1EB4" unicode="&#x1eb4;" horiz-adv-x="881" 
d="M11 0zM681 0l-54 100h-305l74 139h157l-111 209l-238 -448h-193l332 602q27 48 78 48h40q51 0 78 -48l332 -602h-190zM381 670q-31 0 -58.5 12t-48.5 34t-33 53t-12 69v69h129v-71q0 -31 12.5 -47.5t33.5 -16.5h73q21 0 33.5 16.5t12.5 47.5v71h129v-69q0 -38 -12 -69
t-33 -53t-48.5 -34t-58.5 -12h-119zM653 979q-20 -27 -50 -37t-55 -10q-29 0 -55.5 10t-51.5 21.5t-50.5 21.5t-52.5 10q-35 0 -64 -18t-47 -38v123q20 24 48.5 35.5t57.5 11.5t55.5 -10t51.5 -21.5t50.5 -21.5t52.5 -10q34 0 62 16.5t48 39.5v-123z" />
    <glyph glyph-name="uni1EB5" unicode="&#x1eb5;" horiz-adv-x="642" 
d="M37 0zM194 0q-79 0 -118 41t-39 106q0 66 39 107t118 41h186v-97h-148q-37 0 -37 -35t35 -35h199v144q0 85 -87 85h-278v142h280q125 0 187 -61.5t62 -176.5v-261h-399zM533 822q-20 -27 -50 -37t-55 -10q-29 0 -55.5 10t-51.5 21.5t-50.5 21.5t-52.5 10q-35 0 -64 -18
t-47 -38v123q20 24 48.5 35.5t57.5 11.5t55.5 -10t51.5 -21.5t50.5 -21.5t52.5 -10q34 0 62 16.5t48 39.5v-123zM261 520q-31 0 -58.5 12t-48.5 34t-33 53t-12 69v69h129v-71q0 -31 12.5 -47.5t33.5 -16.5h73q21 0 33.5 16.5t12.5 47.5v71h129v-69q0 -38 -12 -69t-33 -53
t-48.5 -34t-58.5 -12h-119z" />
    <glyph glyph-name="uni1EB6" unicode="&#x1eb6;" horiz-adv-x="881" 
d="M11 0zM681 0l-54 100h-305l74 139h157l-111 209l-238 -448h-193l332 602q27 48 78 48h40q51 0 78 -48l332 -602h-190zM381 690q-31 0 -58.5 12t-48.5 34t-33 53t-12 69v69h129v-71q0 -31 12.5 -47.5t33.5 -16.5h73q21 0 33.5 16.5t12.5 47.5v71h129v-69q0 -38 -12 -69
t-33 -53t-48.5 -34t-58.5 -12h-119zM430 -194q-33 0 -54.5 19.5t-21.5 53.5q0 32 21.5 51.5t54.5 19.5h23q33 0 54 -19.5t21 -51.5q0 -34 -21 -53.5t-54 -19.5h-23z" />
    <glyph glyph-name="uni1EB7" unicode="&#x1eb7;" horiz-adv-x="642" 
d="M37 0zM194 0q-79 0 -118 41t-39 106q0 66 39 107t118 41h186v-97h-148q-37 0 -37 -35t35 -35h199v144q0 85 -87 85h-278v142h280q125 0 187 -61.5t62 -176.5v-261h-399zM261 539q-31 0 -58.5 12t-48.5 34t-33 53t-12 69v69h129v-71q0 -31 12.5 -47.5t33.5 -16.5h73
q21 0 33.5 16.5t12.5 47.5v71h129v-69q0 -38 -12 -69t-33 -53t-48.5 -34t-58.5 -12h-119zM309 -194q-33 0 -54.5 19.5t-21.5 53.5q0 32 21.5 51.5t54.5 19.5h23q33 0 54 -19.5t21 -51.5q0 -34 -21 -53.5t-54 -19.5h-23z" />
    <glyph glyph-name="uni1EB8" unicode="&#x1eb8;" horiz-adv-x="727" 
d="M55 0zM288 257v139h384v-139h-384zM55 0v650h624v-167h-449v-315h450v-168h-625zM362 -194q-33 0 -54.5 19.5t-21.5 53.5q0 32 21.5 51.5t54.5 19.5h23q33 0 54 -19.5t21 -51.5q0 -34 -21 -53.5t-54 -19.5h-23z" />
    <glyph glyph-name="uni1EB9" unicode="&#x1eb9;" horiz-adv-x="624" 
d="M29 0zM297 0q-58 0 -107 18t-85 51t-56 79t-20 102q0 55 20 101t56 79t85 51t107 18h127q43 0 75 -12t53.5 -33t32 -50.5t10.5 -64.5q0 -66 -38 -99t-125 -33h-178v91h143q39 0 39 35q0 37 -38 37h-102q-45 0 -73 -31t-28 -88t28 -85.5t73 -28.5h272v-137h-271zM313 -194
q-33 0 -54.5 19.5t-21.5 53.5q0 32 21.5 51.5t54.5 19.5h23q33 0 54 -19.5t21 -51.5q0 -34 -21 -53.5t-54 -19.5h-23z" />
    <glyph glyph-name="uni1EBA" unicode="&#x1eba;" horiz-adv-x="727" 
d="M55 0zM288 257v139h384v-139h-384zM55 0v650h624v-167h-449v-315h450v-168h-625zM425 692q-16 0 -16 -18v-11h-105v15q0 44 29 70.5t75 26.5h24q24 0 24 26t-23 26h-172v100h176q27 0 50 -8.5t39.5 -24t26 -37.5t9.5 -48q0 -53 -35.5 -85t-89.5 -32h-12z" />
    <glyph glyph-name="uni1EBB" unicode="&#x1ebb;" horiz-adv-x="624" 
d="M29 0zM297 0q-58 0 -107 18t-85 51t-56 79t-20 102q0 55 20 101t56 79t85 51t107 18h127q43 0 75 -12t53.5 -33t32 -50.5t10.5 -64.5q0 -66 -38 -99t-125 -33h-178v91h143q39 0 39 35q0 37 -38 37h-102q-45 0 -73 -31t-28 -88t28 -85.5t73 -28.5h272v-137h-271zM375 541
q-16 0 -16 -18v-11h-105v15q0 44 29 70.5t75 26.5h24q24 0 24 26t-23 26h-172v100h176q27 0 50 -8.5t39.5 -24t26 -37.5t9.5 -48q0 -53 -35.5 -85t-89.5 -32h-12z" />
    <glyph glyph-name="uni1EBC" unicode="&#x1ebc;" horiz-adv-x="727" 
d="M55 0zM288 257v139h384v-139h-384zM55 0v650h624v-167h-449v-315h450v-168h-625zM585 746q-20 -27 -50 -37t-55 -10q-29 0 -55.5 10t-51.5 21.5t-50.5 21.5t-52.5 10q-35 0 -64 -18t-47 -38v123q20 24 48.5 35.5t57.5 11.5t55.5 -10t51.5 -21.5t50.5 -21.5t52.5 -10
q34 0 62 16.5t48 39.5v-123z" />
    <glyph glyph-name="uni1EBD" unicode="&#x1ebd;" horiz-adv-x="624" 
d="M29 0zM297 0q-58 0 -107 18t-85 51t-56 79t-20 102q0 55 20 101t56 79t85 51t107 18h127q43 0 75 -12t53.5 -33t32 -50.5t10.5 -64.5q0 -66 -38 -99t-125 -33h-178v91h143q39 0 39 35q0 37 -38 37h-102q-45 0 -73 -31t-28 -88t28 -85.5t73 -28.5h272v-137h-271zM534 595
q-20 -27 -50 -37t-55 -10q-29 0 -55.5 10t-51.5 21.5t-50.5 21.5t-52.5 10q-35 0 -64 -18t-47 -38v123q20 24 48.5 35.5t57.5 11.5t55.5 -10t51.5 -21.5t50.5 -21.5t52.5 -10q34 0 62 16.5t48 39.5v-123z" />
    <glyph glyph-name="uni1EBE" unicode="&#x1ebe;" horiz-adv-x="727" 
d="M55 0zM288 257v139h384v-139h-384zM55 0v650h624v-167h-449v-315h450v-168h-625zM546 790l103 237h154l-114 -237h-143zM438 666l-67 146l-66 -146h-143l114 237h187l114 -237h-139z" />
    <glyph glyph-name="uni1EBF" unicode="&#x1ebf;" horiz-adv-x="624" 
d="M29 0zM297 0q-58 0 -107 18t-85 51t-56 79t-20 102q0 55 20 101t56 79t85 51t107 18h127q43 0 75 -12t53.5 -33t32 -50.5t10.5 -64.5q0 -66 -38 -99t-125 -33h-178v91h143q39 0 39 35q0 37 -38 37h-102q-45 0 -73 -31t-28 -88t28 -85.5t73 -28.5h272v-137h-271zM398 517
l-67 146l-66 -146h-143l114 237h187l114 -237h-139zM241 775l103 237h154l-114 -237h-143z" />
    <glyph glyph-name="uni1EC0" unicode="&#x1ec0;" horiz-adv-x="727" 
d="M55 0zM288 257v139h384v-139h-384zM55 0v650h624v-167h-449v-315h450v-168h-625zM433 666l-67 146l-66 -146h-143l114 237h187l114 -237h-139zM585 790l-114 237h154l103 -237h-143z" />
    <glyph glyph-name="uni1EC1" unicode="&#x1ec1;" horiz-adv-x="624" 
d="M29 0zM297 0q-58 0 -107 18t-85 51t-56 79t-20 102q0 55 20 101t56 79t85 51t107 18h127q43 0 75 -12t53.5 -33t32 -50.5t10.5 -64.5q0 -66 -38 -99t-125 -33h-178v91h143q39 0 39 35q0 37 -38 37h-102q-45 0 -73 -31t-28 -88t28 -85.5t73 -28.5h272v-137h-271zM289 775
l-114 237h154l103 -237h-143zM400 517l-67 146l-66 -146h-143l114 237h187l114 -237h-139z" />
    <glyph glyph-name="uni1EC2" unicode="&#x1ec2;" horiz-adv-x="727" 
d="M55 0zM288 257v139h384v-139h-384zM55 0v650h624v-167h-449v-315h450v-168h-625zM681 792q-16 0 -16 -18v-11h-105v15q0 44 29 70.5t75 26.5h24q24 0 24 26t-23 26h-172v100h176q27 0 50 -8.5t39.5 -24t26 -37.5t9.5 -48q0 -53 -35.5 -85t-89.5 -32h-12zM438 666l-67 146
l-66 -146h-143l114 237h187l114 -237h-139z" />
    <glyph glyph-name="uni1EC3" unicode="&#x1ec3;" horiz-adv-x="624" 
d="M29 0zM297 0q-58 0 -107 18t-85 51t-56 79t-20 102q0 55 20 101t56 79t85 51t107 18h127q43 0 75 -12t53.5 -33t32 -50.5t10.5 -64.5q0 -66 -38 -99t-125 -33h-178v91h143q39 0 39 35q0 37 -38 37h-102q-45 0 -73 -31t-28 -88t28 -85.5t73 -28.5h272v-137h-271zM396 517
l-67 146l-66 -146h-143l114 237h187l114 -237h-139zM385 799q-16 0 -16 -18v-11h-105v15q0 44 29 70.5t75 26.5h24q24 0 24 26t-23 26h-172v100h176q27 0 50 -8.5t39.5 -24t26 -37.5t9.5 -48q0 -53 -35.5 -85t-89.5 -32h-12z" />
    <glyph glyph-name="uni1EC4" unicode="&#x1ec4;" horiz-adv-x="727" 
d="M55 0zM288 257v139h384v-139h-384zM55 0v650h624v-167h-449v-315h450v-168h-625zM441 666l-67 146l-66 -146h-143l114 237h187l114 -237h-139zM585 970q-20 -27 -50 -37t-55 -10q-29 0 -55.5 10t-51.5 21.5t-50.5 21.5t-52.5 10q-35 0 -64 -18t-47 -38v123
q20 24 48.5 35.5t57.5 11.5t55.5 -10t51.5 -21.5t50.5 -21.5t52.5 -10q34 0 62 16.5t48 39.5v-123z" />
    <glyph glyph-name="uni1EC5" unicode="&#x1ec5;" horiz-adv-x="624" 
d="M29 0zM297 0q-58 0 -107 18t-85 51t-56 79t-20 102q0 55 20 101t56 79t85 51t107 18h127q43 0 75 -12t53.5 -33t32 -50.5t10.5 -64.5q0 -66 -38 -99t-125 -33h-178v91h143q39 0 39 35q0 37 -38 37h-102q-45 0 -73 -31t-28 -88t28 -85.5t73 -28.5h272v-137h-271zM400 520
l-67 146l-66 -146h-143l114 237h187l114 -237h-139zM544 822q-20 -27 -50 -37t-55 -10q-29 0 -55.5 10t-51.5 21.5t-50.5 21.5t-52.5 10q-35 0 -64 -18t-47 -38v123q20 24 48.5 35.5t57.5 11.5t55.5 -10t51.5 -21.5t50.5 -21.5t52.5 -10q34 0 62 16.5t48 39.5v-123z" />
    <glyph glyph-name="uni1EC6" unicode="&#x1ec6;" horiz-adv-x="727" 
d="M55 0zM288 257v139h384v-139h-384zM55 0v650h624v-167h-449v-315h450v-168h-625zM441 690l-67 146l-66 -146h-143l114 237h187l114 -237h-139zM361 -194q-33 0 -54.5 19.5t-21.5 53.5q0 32 21.5 51.5t54.5 19.5h23q33 0 54 -19.5t21 -51.5q0 -34 -21 -53.5t-54 -19.5h-23
z" />
    <glyph glyph-name="uni1EC7" unicode="&#x1ec7;" horiz-adv-x="624" 
d="M29 0zM297 0q-58 0 -107 18t-85 51t-56 79t-20 102q0 55 20 101t56 79t85 51t107 18h127q43 0 75 -12t53.5 -33t32 -50.5t10.5 -64.5q0 -66 -38 -99t-125 -33h-178v91h143q39 0 39 35q0 37 -38 37h-102q-45 0 -73 -31t-28 -88t28 -85.5t73 -28.5h272v-137h-271zM390 539
l-67 146l-66 -146h-143l114 237h187l114 -237h-139zM310 -194q-33 0 -54.5 19.5t-21.5 53.5q0 32 21.5 51.5t54.5 19.5h23q33 0 54 -19.5t21 -51.5q0 -34 -21 -53.5t-54 -19.5h-23z" />
    <glyph glyph-name="uni1EC8" unicode="&#x1ec8;" horiz-adv-x="300" 
d="M33 0zM55 0v650h175v-650h-175zM197 692q-16 0 -16 -18v-11h-105v15q0 44 29 70.5t75 26.5h24q24 0 24 26t-23 26h-172v100h176q27 0 50 -8.5t39.5 -24t26 -37.5t9.5 -48q0 -53 -35.5 -85t-89.5 -32h-12z" />
    <glyph glyph-name="uni1EC9" unicode="&#x1ec9;" horiz-adv-x="299" 
d="M24 0zM49 0v499h167v-499h-167zM188 541q-16 0 -16 -18v-11h-105v15q0 44 29 70.5t75 26.5h24q24 0 24 26t-23 26h-172v100h176q27 0 50 -8.5t39.5 -24t26 -37.5t9.5 -48q0 -53 -35.5 -85t-89.5 -32h-12z" />
    <glyph glyph-name="uni1ECA" unicode="&#x1eca;" horiz-adv-x="285" 
d="M55 0zM55 0v650h175v-650h-175zM131 -194q-33 0 -54.5 19.5t-21.5 53.5q0 32 21.5 51.5t54.5 19.5h23q33 0 54 -19.5t21 -51.5q0 -34 -21 -53.5t-54 -19.5h-23z" />
    <glyph glyph-name="uni1ECB" unicode="&#x1ecb;" horiz-adv-x="266" 
d="M45 0zM49 0v499h167v-499h-167zM122 548q-33 0 -54.5 19.5t-21.5 53.5q0 32 21.5 51.5t54.5 19.5h23q33 0 54 -19.5t21 -51.5q0 -34 -21 -53.5t-54 -19.5h-23zM121 -194q-33 0 -54.5 19.5t-21.5 53.5q0 32 21.5 51.5t54.5 19.5h23q33 0 54 -19.5t21 -51.5
q0 -34 -21 -53.5t-54 -19.5h-23z" />
    <glyph glyph-name="uni1ECC" unicode="&#x1ecc;" horiz-adv-x="849" 
d="M34 0zM484 168q34 0 63 11.5t50 32t32.5 49.5t11.5 64t-11.5 64t-32.5 50t-50 32.5t-63 11.5h-118q-34 0 -63 -11.5t-50 -32.5t-33 -50t-12 -64t11.5 -64t32.5 -49.5t50 -32t64 -11.5h118zM378 0q-75 0 -138 23.5t-108.5 66t-71.5 102.5t-26 133t26 132.5t71.5 102.5
t108.5 66.5t138 23.5h94q74 0 137 -23.5t108.5 -66.5t71.5 -102.5t26 -132.5t-26 -133t-71.5 -102.5t-108.5 -66t-137 -23.5h-94zM413 -194q-33 0 -54.5 19.5t-21.5 53.5q0 32 21.5 51.5t54.5 19.5h23q33 0 54 -19.5t21 -51.5q0 -34 -21 -53.5t-54 -19.5h-23z" />
    <glyph glyph-name="uni1ECD" unicode="&#x1ecd;" horiz-adv-x="664" 
d="M29 0zM367 152q44 0 72.5 27t28.5 71t-28.5 70.5t-72.5 26.5h-71q-45 0 -73 -26.5t-28 -70.5t28 -71t73 -27h71zM297 0q-58 0 -107 18t-85 51t-56 79t-20 102q0 55 20 101t56 79t85 51t107 18h70q58 0 107 -18t85 -51t56 -79t20 -101q0 -56 -20 -102t-56 -79t-85 -51
t-107 -18h-70zM320 -194q-33 0 -54.5 19.5t-21.5 53.5q0 32 21.5 51.5t54.5 19.5h23q33 0 54 -19.5t21 -51.5q0 -34 -21 -53.5t-54 -19.5h-23z" />
    <glyph glyph-name="uni1ECE" unicode="&#x1ece;" horiz-adv-x="849" 
d="M34 0zM484 168q34 0 63 11.5t50 32t32.5 49.5t11.5 64t-11.5 64t-32.5 50t-50 32.5t-63 11.5h-118q-34 0 -63 -11.5t-50 -32.5t-33 -50t-12 -64t11.5 -64t32.5 -49.5t50 -32t64 -11.5h118zM378 0q-75 0 -138 23.5t-108.5 66t-71.5 102.5t-26 133t26 132.5t71.5 102.5
t108.5 66.5t138 23.5h94q74 0 137 -23.5t108.5 -66.5t71.5 -102.5t26 -132.5t-26 -133t-71.5 -102.5t-108.5 -66t-137 -23.5h-94zM478 692q-16 0 -16 -18v-11h-105v15q0 44 29 70.5t75 26.5h24q24 0 24 26t-23 26h-172v100h176q27 0 50 -8.5t39.5 -24t26 -37.5t9.5 -48
q0 -53 -35.5 -85t-89.5 -32h-12z" />
    <glyph glyph-name="uni1ECF" unicode="&#x1ecf;" horiz-adv-x="664" 
d="M29 0zM367 152q44 0 72.5 27t28.5 71t-28.5 70.5t-72.5 26.5h-71q-45 0 -73 -26.5t-28 -70.5t28 -71t73 -27h71zM297 0q-58 0 -107 18t-85 51t-56 79t-20 102q0 55 20 101t56 79t85 51t107 18h70q58 0 107 -18t85 -51t56 -79t20 -101q0 -56 -20 -102t-56 -79t-85 -51
t-107 -18h-70zM385 541q-16 0 -16 -18v-11h-105v15q0 44 29 70.5t75 26.5h24q24 0 24 26t-23 26h-172v100h176q27 0 50 -8.5t39.5 -24t26 -37.5t9.5 -48q0 -53 -35.5 -85t-89.5 -32h-12z" />
    <glyph glyph-name="uni1ED0" unicode="&#x1ed0;" horiz-adv-x="849" 
d="M34 0zM484 168q34 0 63 11.5t50 32t32.5 49.5t11.5 64t-11.5 64t-32.5 50t-50 32.5t-63 11.5h-118q-34 0 -63 -11.5t-50 -32.5t-33 -50t-12 -64t11.5 -64t32.5 -49.5t50 -32t64 -11.5h118zM378 0q-75 0 -138 23.5t-108.5 66t-71.5 102.5t-26 133t26 132.5t71.5 102.5
t108.5 66.5t138 23.5h94q74 0 137 -23.5t108.5 -66.5t71.5 -102.5t26 -132.5t-26 -133t-71.5 -102.5t-108.5 -66t-137 -23.5h-94zM595 790l103 237h154l-114 -237h-143zM488 666l-67 146l-66 -146h-143l114 237h187l114 -237h-139z" />
    <glyph glyph-name="uni1ED1" unicode="&#x1ed1;" horiz-adv-x="664" 
d="M29 0zM367 152q44 0 72.5 27t28.5 71t-28.5 70.5t-72.5 26.5h-71q-45 0 -73 -26.5t-28 -70.5t28 -71t73 -27h71zM297 0q-58 0 -107 18t-85 51t-56 79t-20 102q0 55 20 101t56 79t85 51t107 18h70q58 0 107 -18t85 -51t56 -79t20 -101q0 -56 -20 -102t-56 -79t-85 -51
t-107 -18h-70zM402 517l-67 146l-66 -146h-143l114 237h187l114 -237h-139zM245 775l103 237h154l-114 -237h-143z" />
    <glyph glyph-name="uni1ED2" unicode="&#x1ed2;" horiz-adv-x="849" 
d="M34 0zM484 168q34 0 63 11.5t50 32t32.5 49.5t11.5 64t-11.5 64t-32.5 50t-50 32.5t-63 11.5h-118q-34 0 -63 -11.5t-50 -32.5t-33 -50t-12 -64t11.5 -64t32.5 -49.5t50 -32t64 -11.5h118zM378 0q-75 0 -138 23.5t-108.5 66t-71.5 102.5t-26 133t26 132.5t71.5 102.5
t108.5 66.5t138 23.5h94q74 0 137 -23.5t108.5 -66.5t71.5 -102.5t26 -132.5t-26 -133t-71.5 -102.5t-108.5 -66t-137 -23.5h-94zM490 666l-67 146l-66 -146h-143l114 237h187l114 -237h-139zM641 790l-114 237h154l103 -237h-143z" />
    <glyph glyph-name="uni1ED3" unicode="&#x1ed3;" horiz-adv-x="664" 
d="M29 0zM367 152q44 0 72.5 27t28.5 71t-28.5 70.5t-72.5 26.5h-71q-45 0 -73 -26.5t-28 -70.5t28 -71t73 -27h71zM297 0q-58 0 -107 18t-85 51t-56 79t-20 102q0 55 20 101t56 79t85 51t107 18h70q58 0 107 -18t85 -51t56 -79t20 -101q0 -56 -20 -102t-56 -79t-85 -51
t-107 -18h-70zM291 775l-114 237h154l103 -237h-143zM402 517l-67 146l-66 -146h-143l114 237h187l114 -237h-139z" />
    <glyph glyph-name="uni1ED4" unicode="&#x1ed4;" horiz-adv-x="849" 
d="M34 0zM484 168q34 0 63 11.5t50 32t32.5 49.5t11.5 64t-11.5 64t-32.5 50t-50 32.5t-63 11.5h-118q-34 0 -63 -11.5t-50 -32.5t-33 -50t-12 -64t11.5 -64t32.5 -49.5t50 -32t64 -11.5h118zM378 0q-75 0 -138 23.5t-108.5 66t-71.5 102.5t-26 133t26 132.5t71.5 102.5
t108.5 66.5t138 23.5h94q74 0 137 -23.5t108.5 -66.5t71.5 -102.5t26 -132.5t-26 -133t-71.5 -102.5t-108.5 -66t-137 -23.5h-94zM736 792q-16 0 -16 -18v-11h-105v15q0 44 29 70.5t75 26.5h24q24 0 24 26t-23 26h-172v100h176q27 0 50 -8.5t39.5 -24t26 -37.5t9.5 -48
q0 -53 -35.5 -85t-89.5 -32h-12zM492 666l-67 146l-66 -146h-143l114 237h187l114 -237h-139z" />
    <glyph glyph-name="uni1ED5" unicode="&#x1ed5;" horiz-adv-x="664" 
d="M29 0zM367 152q44 0 72.5 27t28.5 71t-28.5 70.5t-72.5 26.5h-71q-45 0 -73 -26.5t-28 -70.5t28 -71t73 -27h71zM297 0q-58 0 -107 18t-85 51t-56 79t-20 102q0 55 20 101t56 79t85 51t107 18h70q58 0 107 -18t85 -51t56 -79t20 -101q0 -56 -20 -102t-56 -79t-85 -51
t-107 -18h-70zM403 517l-67 146l-66 -146h-143l114 237h187l114 -237h-139zM391 799q-16 0 -16 -18v-11h-105v15q0 44 29 70.5t75 26.5h24q24 0 24 26t-23 26h-172v100h176q27 0 50 -8.5t39.5 -24t26 -37.5t9.5 -48q0 -53 -35.5 -85t-89.5 -32h-12z" />
    <glyph glyph-name="uni1ED6" unicode="&#x1ed6;" horiz-adv-x="849" 
d="M34 0zM484 168q34 0 63 11.5t50 32t32.5 49.5t11.5 64t-11.5 64t-32.5 50t-50 32.5t-63 11.5h-118q-34 0 -63 -11.5t-50 -32.5t-33 -50t-12 -64t11.5 -64t32.5 -49.5t50 -32t64 -11.5h118zM378 0q-75 0 -138 23.5t-108.5 66t-71.5 102.5t-26 133t26 132.5t71.5 102.5
t108.5 66.5t138 23.5h94q74 0 137 -23.5t108.5 -66.5t71.5 -102.5t26 -132.5t-26 -133t-71.5 -102.5t-108.5 -66t-137 -23.5h-94zM496 666l-67 146l-66 -146h-143l114 237h187l114 -237h-139zM640 970q-20 -27 -50 -37t-55 -10q-29 0 -55.5 10t-51.5 21.5t-50.5 21.5
t-52.5 10q-35 0 -64 -18t-47 -38v123q20 24 48.5 35.5t57.5 11.5t55.5 -10t51.5 -21.5t50.5 -21.5t52.5 -10q34 0 62 16.5t48 39.5v-123z" />
    <glyph glyph-name="uni1ED7" unicode="&#x1ed7;" horiz-adv-x="664" 
d="M29 0zM367 152q44 0 72.5 27t28.5 71t-28.5 70.5t-72.5 26.5h-71q-45 0 -73 -26.5t-28 -70.5t28 -71t73 -27h71zM297 0q-58 0 -107 18t-85 51t-56 79t-20 102q0 55 20 101t56 79t85 51t107 18h70q58 0 107 -18t85 -51t56 -79t20 -101q0 -56 -20 -102t-56 -79t-85 -51
t-107 -18h-70zM399 520l-67 146l-66 -146h-143l114 237h187l114 -237h-139zM543 822q-20 -27 -50 -37t-55 -10q-29 0 -55.5 10t-51.5 21.5t-50.5 21.5t-52.5 10q-35 0 -64 -18t-47 -38v123q20 24 48.5 35.5t57.5 11.5t55.5 -10t51.5 -21.5t50.5 -21.5t52.5 -10q34 0 62 16.5
t48 39.5v-123z" />
    <glyph glyph-name="uni1ED8" unicode="&#x1ed8;" horiz-adv-x="849" 
d="M34 0zM484 168q34 0 63 11.5t50 32t32.5 49.5t11.5 64t-11.5 64t-32.5 50t-50 32.5t-63 11.5h-118q-34 0 -63 -11.5t-50 -32.5t-33 -50t-12 -64t11.5 -64t32.5 -49.5t50 -32t64 -11.5h118zM378 0q-75 0 -138 23.5t-108.5 66t-71.5 102.5t-26 133t26 132.5t71.5 102.5
t108.5 66.5t138 23.5h94q74 0 137 -23.5t108.5 -66.5t71.5 -102.5t26 -132.5t-26 -133t-71.5 -102.5t-108.5 -66t-137 -23.5h-94zM492 690l-67 146l-66 -146h-143l114 237h187l114 -237h-139zM413 -194q-33 0 -54.5 19.5t-21.5 53.5q0 32 21.5 51.5t54.5 19.5h23
q33 0 54 -19.5t21 -51.5q0 -34 -21 -53.5t-54 -19.5h-23z" />
    <glyph glyph-name="uni1ED9" unicode="&#x1ed9;" horiz-adv-x="664" 
d="M29 0zM367 152q44 0 72.5 27t28.5 71t-28.5 70.5t-72.5 26.5h-71q-45 0 -73 -26.5t-28 -70.5t28 -71t73 -27h71zM297 0q-58 0 -107 18t-85 51t-56 79t-20 102q0 55 20 101t56 79t85 51t107 18h70q58 0 107 -18t85 -51t56 -79t20 -101q0 -56 -20 -102t-56 -79t-85 -51
t-107 -18h-70zM400 539l-67 146l-66 -146h-143l114 237h187l114 -237h-139zM320 -194q-33 0 -54.5 19.5t-21.5 53.5q0 32 21.5 51.5t54.5 19.5h23q33 0 54 -19.5t21 -51.5q0 -34 -21 -53.5t-54 -19.5h-23z" />
    <glyph glyph-name="uni1EDA" unicode="&#x1eda;" horiz-adv-x="866" 
d="M34 0zM378 0q-75 0 -138 23.5t-108.5 66t-71.5 102.5t-26 133t26 132.5t71.5 102.5t108.5 66.5t138 23.5h307q50 0 50 53v91h153v-93q0 -75 -37 -118t-110 -48q35 -42 54.5 -94.5t19.5 -115.5q0 -73 -26 -133t-71.5 -102.5t-108.5 -66t-137 -23.5h-94zM484 168
q34 0 63 11.5t50 32t32.5 49.5t11.5 64t-11.5 64t-32.5 50t-50 32.5t-63 11.5h-118q-34 0 -63 -11.5t-50 -32.5t-33 -50t-12 -64t12 -64t33 -49.5t50 -32t63 -11.5h118zM322 690l103 237h154l-114 -237h-143z" />
    <glyph glyph-name="uni1EDB" unicode="&#x1edb;" horiz-adv-x="678" 
d="M29 0zM297 0q-58 0 -107 18t-85 51t-56 79t-20 102q0 55 20 101t56 79t85 51t107 18h201q50 0 50 53v98h153v-101q0 -64 -26.5 -105t-80.5 -55q20 -29 30.5 -64t10.5 -75q0 -56 -20 -102t-56 -79t-85 -51t-107 -18h-70zM367 152q44 0 72.5 27t28.5 71t-28.5 70.5
t-72.5 26.5h-71q-45 0 -73 -26.5t-28 -70.5t28 -71t73 -27h71zM239 539l103 237h154l-114 -237h-143z" />
    <glyph glyph-name="uni1EDC" unicode="&#x1edc;" horiz-adv-x="866" 
d="M34 0zM378 0q-75 0 -138 23.5t-108.5 66t-71.5 102.5t-26 133t26 132.5t71.5 102.5t108.5 66.5t138 23.5h307q50 0 50 53v91h153v-93q0 -75 -37 -118t-110 -48q35 -42 54.5 -94.5t19.5 -115.5q0 -73 -26 -133t-71.5 -102.5t-108.5 -66t-137 -23.5h-94zM484 168
q34 0 63 11.5t50 32t32.5 49.5t11.5 64t-11.5 64t-32.5 50t-50 32.5t-63 11.5h-118q-34 0 -63 -11.5t-50 -32.5t-33 -50t-12 -64t12 -64t33 -49.5t50 -32t63 -11.5h118zM384 690l-114 237h154l103 -237h-143z" />
    <glyph glyph-name="uni1EDD" unicode="&#x1edd;" horiz-adv-x="678" 
d="M29 0zM297 0q-58 0 -107 18t-85 51t-56 79t-20 102q0 55 20 101t56 79t85 51t107 18h201q50 0 50 53v98h153v-101q0 -64 -26.5 -105t-80.5 -55q20 -29 30.5 -64t10.5 -75q0 -56 -20 -102t-56 -79t-85 -51t-107 -18h-70zM367 152q44 0 72.5 27t28.5 71t-28.5 70.5
t-72.5 26.5h-71q-45 0 -73 -26.5t-28 -70.5t28 -71t73 -27h71zM288 539l-114 237h154l103 -237h-143z" />
    <glyph glyph-name="uni1EDE" unicode="&#x1ede;" horiz-adv-x="866" 
d="M34 0zM378 0q-75 0 -138 23.5t-108.5 66t-71.5 102.5t-26 133t26 132.5t71.5 102.5t108.5 66.5t138 23.5h307q50 0 50 53v91h153v-93q0 -75 -37 -118t-110 -48q35 -42 54.5 -94.5t19.5 -115.5q0 -73 -26 -133t-71.5 -102.5t-108.5 -66t-137 -23.5h-94zM484 168
q34 0 63 11.5t50 32t32.5 49.5t11.5 64t-11.5 64t-32.5 50t-50 32.5t-63 11.5h-118q-34 0 -63 -11.5t-50 -32.5t-33 -50t-12 -64t12 -64t33 -49.5t50 -32t63 -11.5h118zM477 692q-16 0 -16 -18v-11h-105v15q0 44 29 70.5t75 26.5h24q24 0 24 26t-23 26h-172v100h176
q27 0 50 -8.5t39.5 -24t26 -37.5t9.5 -48q0 -53 -35.5 -85t-89.5 -32h-12z" />
    <glyph glyph-name="uni1EDF" unicode="&#x1edf;" horiz-adv-x="678" 
d="M29 0zM297 0q-58 0 -107 18t-85 51t-56 79t-20 102q0 55 20 101t56 79t85 51t107 18h201q50 0 50 53v98h153v-101q0 -64 -26.5 -105t-80.5 -55q20 -29 30.5 -64t10.5 -75q0 -56 -20 -102t-56 -79t-85 -51t-107 -18h-70zM367 152q44 0 72.5 27t28.5 71t-28.5 70.5
t-72.5 26.5h-71q-45 0 -73 -26.5t-28 -70.5t28 -71t73 -27h71zM369 541q-16 0 -16 -18v-11h-105v15q0 44 29 70.5t75 26.5h24q24 0 24 26t-23 26h-172v100h176q27 0 50 -8.5t39.5 -24t26 -37.5t9.5 -48q0 -53 -35.5 -85t-89.5 -32h-12z" />
    <glyph glyph-name="uni1EE0" unicode="&#x1ee0;" horiz-adv-x="866" 
d="M34 0zM378 0q-75 0 -138 23.5t-108.5 66t-71.5 102.5t-26 133t26 132.5t71.5 102.5t108.5 66.5t138 23.5h307q50 0 50 53v91h153v-93q0 -75 -37 -118t-110 -48q35 -42 54.5 -94.5t19.5 -115.5q0 -73 -26 -133t-71.5 -102.5t-108.5 -66t-137 -23.5h-94zM484 168
q34 0 63 11.5t50 32t32.5 49.5t11.5 64t-11.5 64t-32.5 50t-50 32.5t-63 11.5h-118q-34 0 -63 -11.5t-50 -32.5t-33 -50t-12 -64t12 -64t33 -49.5t50 -32t63 -11.5h118zM639 746q-20 -27 -50 -37t-55 -10q-29 0 -55.5 10t-51.5 21.5t-50.5 21.5t-52.5 10q-35 0 -64 -18
t-47 -38v123q20 24 48.5 35.5t57.5 11.5t55.5 -10t51.5 -21.5t50.5 -21.5t52.5 -10q34 0 62 16.5t48 39.5v-123z" />
    <glyph glyph-name="uni1EE1" unicode="&#x1ee1;" horiz-adv-x="678" 
d="M29 0zM297 0q-58 0 -107 18t-85 51t-56 79t-20 102q0 55 20 101t56 79t85 51t107 18h201q50 0 50 53v98h153v-101q0 -64 -26.5 -105t-80.5 -55q20 -29 30.5 -64t10.5 -75q0 -56 -20 -102t-56 -79t-85 -51t-107 -18h-70zM367 152q44 0 72.5 27t28.5 71t-28.5 70.5
t-72.5 26.5h-71q-45 0 -73 -26.5t-28 -70.5t28 -71t73 -27h71zM496 595q-20 -27 -50 -37t-55 -10q-29 0 -55.5 10t-51.5 21.5t-50.5 21.5t-52.5 10q-35 0 -64 -18t-47 -38v123q20 24 48.5 35.5t57.5 11.5t55.5 -10t51.5 -21.5t50.5 -21.5t52.5 -10q34 0 62 16.5t48 39.5
v-123z" />
    <glyph glyph-name="uni1EE2" unicode="&#x1ee2;" horiz-adv-x="866" 
d="M34 0zM378 0q-75 0 -138 23.5t-108.5 66t-71.5 102.5t-26 133t26 132.5t71.5 102.5t108.5 66.5t138 23.5h307q50 0 50 53v91h153v-93q0 -75 -37 -118t-110 -48q35 -42 54.5 -94.5t19.5 -115.5q0 -73 -26 -133t-71.5 -102.5t-108.5 -66t-137 -23.5h-94zM484 168
q34 0 63 11.5t50 32t32.5 49.5t11.5 64t-11.5 64t-32.5 50t-50 32.5t-63 11.5h-118q-34 0 -63 -11.5t-50 -32.5t-33 -50t-12 -64t12 -64t33 -49.5t50 -32t63 -11.5h118zM412 -194q-33 0 -54.5 19.5t-21.5 53.5q0 32 21.5 51.5t54.5 19.5h23q33 0 54 -19.5t21 -51.5
q0 -34 -21 -53.5t-54 -19.5h-23z" />
    <glyph glyph-name="uni1EE3" unicode="&#x1ee3;" horiz-adv-x="678" 
d="M29 0zM297 0q-58 0 -107 18t-85 51t-56 79t-20 102q0 55 20 101t56 79t85 51t107 18h201q50 0 50 53v98h153v-101q0 -64 -26.5 -105t-80.5 -55q20 -29 30.5 -64t10.5 -75q0 -56 -20 -102t-56 -79t-85 -51t-107 -18h-70zM367 152q44 0 72.5 27t28.5 71t-28.5 70.5
t-72.5 26.5h-71q-45 0 -73 -26.5t-28 -70.5t28 -71t73 -27h71zM324 -194q-33 0 -54.5 19.5t-21.5 53.5q0 32 21.5 51.5t54.5 19.5h23q33 0 54 -19.5t21 -51.5q0 -34 -21 -53.5t-54 -19.5h-23z" />
    <glyph glyph-name="uni1EE4" unicode="&#x1ee4;" horiz-adv-x="836" 
d="M49 0zM346 0q-65 0 -119 20.5t-94 57.5t-62 88.5t-22 113.5v370h176v-357q0 -57 35 -91t89 -34h138q54 0 89 34t35 91v357h176v-370q0 -62 -22 -113.5t-62 -88.5t-94.5 -57.5t-118.5 -20.5h-144zM407 -194q-33 0 -54.5 19.5t-21.5 53.5q0 32 21.5 51.5t54.5 19.5h23
q33 0 54 -19.5t21 -51.5q0 -34 -21 -53.5t-54 -19.5h-23z" />
    <glyph glyph-name="uni1EE5" unicode="&#x1ee5;" horiz-adv-x="684" 
d="M44 0zM294 0q-125 0 -187.5 61.5t-62.5 176.5v261h167v-261q0 -86 87 -86h88q87 0 87 86v261h167v-261q0 -115 -62.5 -176.5t-187.5 -61.5h-96zM331 -194q-33 0 -54.5 19.5t-21.5 53.5q0 32 21.5 51.5t54.5 19.5h23q33 0 54 -19.5t21 -51.5q0 -34 -21 -53.5t-54 -19.5
h-23z" />
    <glyph glyph-name="uni1EE6" unicode="&#x1ee6;" horiz-adv-x="836" 
d="M49 0zM346 0q-65 0 -119 20.5t-94 57.5t-62 88.5t-22 113.5v370h176v-357q0 -57 35 -91t89 -34h138q54 0 89 34t35 91v357h176v-370q0 -62 -22 -113.5t-62 -88.5t-94.5 -57.5t-118.5 -20.5h-144zM470 692q-16 0 -16 -18v-11h-105v15q0 44 29 70.5t75 26.5h24q24 0 24 26
t-23 26h-172v100h176q27 0 50 -8.5t39.5 -24t26 -37.5t9.5 -48q0 -53 -35.5 -85t-89.5 -32h-12z" />
    <glyph glyph-name="uni1EE7" unicode="&#x1ee7;" horiz-adv-x="684" 
d="M44 0zM294 0q-125 0 -187.5 61.5t-62.5 176.5v261h167v-261q0 -86 87 -86h88q87 0 87 86v261h167v-261q0 -115 -62.5 -176.5t-187.5 -61.5h-96zM394 541q-16 0 -16 -18v-11h-105v15q0 44 29 70.5t75 26.5h24q24 0 24 26t-23 26h-172v100h176q27 0 50 -8.5t39.5 -24
t26 -37.5t9.5 -48q0 -53 -35.5 -85t-89.5 -32h-12z" />
    <glyph glyph-name="uni1EE8" unicode="&#x1ee8;" horiz-adv-x="940" 
d="M49 0zM787 535v-255q0 -62 -22 -113.5t-62 -88.5t-94.5 -57.5t-118.5 -20.5h-144q-65 0 -119 20.5t-94 57.5t-62 88.5t-22 113.5v370h176v-357q0 -57 35 -91t89 -34h138q54 0 89 34t35 91v357h149q49 0 49 53v91h153v-93q0 -79 -40.5 -122.5t-120.5 -43.5h-14zM319 690
l103 237h154l-114 -237h-143z" />
    <glyph glyph-name="uni1EE9" unicode="&#x1ee9;" horiz-adv-x="795" 
d="M44 0zM640 383v-145q0 -115 -62.5 -176.5t-187.5 -61.5h-96q-125 0 -187.5 61.5t-62.5 176.5v261h167v-261q0 -86 87 -86h88q87 0 87 86v261h141q50 0 50 53v98h153v-101q0 -78 -40.5 -122t-120.5 -44h-16zM240 539l103 237h154l-114 -237h-143z" />
    <glyph glyph-name="uni1EEA" unicode="&#x1eea;" horiz-adv-x="940" 
d="M49 0zM787 535v-255q0 -62 -22 -113.5t-62 -88.5t-94.5 -57.5t-118.5 -20.5h-144q-65 0 -119 20.5t-94 57.5t-62 88.5t-22 113.5v370h176v-357q0 -57 35 -91t89 -34h138q54 0 89 34t35 91v357h149q49 0 49 53v91h153v-93q0 -79 -40.5 -122.5t-120.5 -43.5h-14zM379 690
l-114 237h154l103 -237h-143z" />
    <glyph glyph-name="uni1EEB" unicode="&#x1eeb;" horiz-adv-x="795" 
d="M44 0zM640 383v-145q0 -115 -62.5 -176.5t-187.5 -61.5h-96q-125 0 -187.5 61.5t-62.5 176.5v261h167v-261q0 -86 87 -86h88q87 0 87 86v261h141q50 0 50 53v98h153v-101q0 -78 -40.5 -122t-120.5 -44h-16zM305 539l-114 237h154l103 -237h-143z" />
    <glyph glyph-name="uni1EEC" unicode="&#x1eec;" horiz-adv-x="940" 
d="M49 0zM787 535v-255q0 -62 -22 -113.5t-62 -88.5t-94.5 -57.5t-118.5 -20.5h-144q-65 0 -119 20.5t-94 57.5t-62 88.5t-22 113.5v370h176v-357q0 -57 35 -91t89 -34h138q54 0 89 34t35 91v357h149q49 0 49 53v91h153v-93q0 -79 -40.5 -122.5t-120.5 -43.5h-14zM469 692
q-16 0 -16 -18v-11h-105v15q0 44 29 70.5t75 26.5h24q24 0 24 26t-23 26h-172v100h176q27 0 50 -8.5t39.5 -24t26 -37.5t9.5 -48q0 -53 -35.5 -85t-89.5 -32h-12z" />
    <glyph glyph-name="uni1EED" unicode="&#x1eed;" horiz-adv-x="795" 
d="M44 0zM640 383v-145q0 -115 -62.5 -176.5t-187.5 -61.5h-96q-125 0 -187.5 61.5t-62.5 176.5v261h167v-261q0 -86 87 -86h88q87 0 87 86v261h141q50 0 50 53v98h153v-101q0 -78 -40.5 -122t-120.5 -44h-16zM400 541q-16 0 -16 -18v-11h-105v15q0 44 29 70.5t75 26.5h24
q24 0 24 26t-23 26h-172v100h176q27 0 50 -8.5t39.5 -24t26 -37.5t9.5 -48q0 -53 -35.5 -85t-89.5 -32h-12z" />
    <glyph glyph-name="uni1EEE" unicode="&#x1eee;" horiz-adv-x="940" 
d="M49 0zM787 535v-255q0 -62 -22 -113.5t-62 -88.5t-94.5 -57.5t-118.5 -20.5h-144q-65 0 -119 20.5t-94 57.5t-62 88.5t-22 113.5v370h176v-357q0 -57 35 -91t89 -34h138q54 0 89 34t35 91v357h149q49 0 49 53v91h153v-93q0 -79 -40.5 -122.5t-120.5 -43.5h-14zM632 746
q-20 -27 -50 -37t-55 -10q-29 0 -55.5 10t-51.5 21.5t-50.5 21.5t-52.5 10q-35 0 -64 -18t-47 -38v123q20 24 48.5 35.5t57.5 11.5t55.5 -10t51.5 -21.5t50.5 -21.5t52.5 -10q34 0 62 16.5t48 39.5v-123z" />
    <glyph glyph-name="uni1EEF" unicode="&#x1eef;" horiz-adv-x="795" 
d="M44 0zM640 383v-145q0 -115 -62.5 -176.5t-187.5 -61.5h-96q-125 0 -187.5 61.5t-62.5 176.5v261h167v-261q0 -86 87 -86h88q87 0 87 86v261h141q50 0 50 53v98h153v-101q0 -78 -40.5 -122t-120.5 -44h-16zM554 595q-20 -27 -50 -37t-55 -10q-29 0 -55.5 10t-51.5 21.5
t-50.5 21.5t-52.5 10q-35 0 -64 -18t-47 -38v123q20 24 48.5 35.5t57.5 11.5t55.5 -10t51.5 -21.5t50.5 -21.5t52.5 -10q34 0 62 16.5t48 39.5v-123z" />
    <glyph glyph-name="uni1EF0" unicode="&#x1ef0;" horiz-adv-x="940" 
d="M49 0zM787 535v-255q0 -62 -22 -113.5t-62 -88.5t-94.5 -57.5t-118.5 -20.5h-144q-65 0 -119 20.5t-94 57.5t-62 88.5t-22 113.5v370h176v-357q0 -57 35 -91t89 -34h138q54 0 89 34t35 91v357h149q49 0 49 53v91h153v-93q0 -79 -40.5 -122.5t-120.5 -43.5h-14zM407 -194
q-33 0 -54.5 19.5t-21.5 53.5q0 32 21.5 51.5t54.5 19.5h23q33 0 54 -19.5t21 -51.5q0 -34 -21 -53.5t-54 -19.5h-23z" />
    <glyph glyph-name="uni1EF1" unicode="&#x1ef1;" horiz-adv-x="795" 
d="M44 0zM640 383v-145q0 -115 -62.5 -176.5t-187.5 -61.5h-96q-125 0 -187.5 61.5t-62.5 176.5v261h167v-261q0 -86 87 -86h88q87 0 87 86v261h141q50 0 50 53v98h153v-101q0 -78 -40.5 -122t-120.5 -44h-16zM331 -194q-33 0 -54.5 19.5t-21.5 53.5q0 32 21.5 51.5
t54.5 19.5h23q33 0 54 -19.5t21 -51.5q0 -34 -21 -53.5t-54 -19.5h-23z" />
    <glyph glyph-name="Ygrave" unicode="&#x1ef2;" horiz-adv-x="774" 
d="M2 0zM300 0v229l-298 421h205l184 -259l185 259h196l-297 -421v-229h-175zM342 690l-114 237h154l103 -237h-143z" />
    <glyph glyph-name="ygrave" unicode="&#x1ef3;" horiz-adv-x="657" 
d="M9 0zM117 -174v144h53q32 0 50 13t29 32l-240 484h169l148 -320l152 320h170l-277 -548q-16 -32 -33.5 -55.5t-39.5 -39t-49.5 -23t-63.5 -7.5h-68zM283 539l-114 237h154l103 -237h-143z" />
    <glyph glyph-name="uni1EF6" unicode="&#x1ef6;" horiz-adv-x="774" 
d="M2 0zM300 0v229l-298 421h205l184 -259l185 259h196l-297 -421v-229h-175zM439 692q-16 0 -16 -18v-11h-105v15q0 44 29 70.5t75 26.5h24q24 0 24 26t-23 26h-172v100h176q27 0 50 -8.5t39.5 -24t26 -37.5t9.5 -48q0 -53 -35.5 -85t-89.5 -32h-12z" />
    <glyph glyph-name="uni1EF7" unicode="&#x1ef7;" horiz-adv-x="657" 
d="M9 0zM117 -174v144h53q32 0 50 13t29 32l-240 484h169l148 -320l152 320h170l-277 -548q-16 -32 -33.5 -55.5t-39.5 -39t-49.5 -23t-63.5 -7.5h-68zM380 541q-16 0 -16 -18v-11h-105v15q0 44 29 70.5t75 26.5h24q24 0 24 26t-23 26h-172v100h176q27 0 50 -8.5t39.5 -24
t26 -37.5t9.5 -48q0 -53 -35.5 -85t-89.5 -32h-12z" />
    <glyph glyph-name="endash" unicode="&#x2013;" horiz-adv-x="548" 
d="M29 255v126h491v-126h-491z" />
    <glyph glyph-name="emdash" unicode="&#x2014;" horiz-adv-x="795" 
d="M29 255v126h737v-126h-737z" />
    <glyph glyph-name="quoteleft" unicode="&#x2018;" horiz-adv-x="260" 
d="M207 718l-40 -138q28 -3 42 -22t14 -45q0 -36 -23.5 -56.5t-58.5 -20.5h-24q-35 0 -57.5 20.5t-22.5 52.5q0 25 14 54l60 155h96z" />
    <glyph glyph-name="quoteright" unicode="&#x2019;" horiz-adv-x="260" 
d="M53 436l41 138q-29 3 -43 22t-14 45q0 36 23.5 56.5t59.5 20.5h23q35 0 58 -20.5t23 -52.5q0 -12 -4 -25t-10 -29l-61 -155h-96z" />
    <glyph glyph-name="quotesinglbase" unicode="&#x201a;" horiz-adv-x="260" 
d="M53 -129l41 138q-29 3 -43 22t-14 45q0 36 23.5 56.5t59.5 20.5h23q35 0 58 -20.5t23 -52.5q0 -12 -3.5 -25t-10.5 -29l-61 -155h-96z" />
    <glyph glyph-name="quotedblleft" unicode="&#x201c;" horiz-adv-x="481" 
d="M37 436zM207 718l-40 -138q28 -3 42 -22t14 -45q0 -36 -23.5 -56.5t-58.5 -20.5h-24q-35 0 -57.5 20.5t-22.5 52.5q0 25 14 54l60 155h96zM427 718l-40 -138q28 -3 42 -22t14 -45q0 -36 -23.5 -56.5t-58.5 -20.5h-24q-35 0 -57.5 20.5t-22.5 52.5q0 25 14 54l60 155h96z
" />
    <glyph glyph-name="quotedblright" unicode="&#x201d;" horiz-adv-x="481" 
d="M37 436zM53 436l41 138q-29 3 -43 22t-14 45q0 36 23.5 56.5t59.5 20.5h23q35 0 58 -20.5t23 -52.5q0 -12 -4 -25t-10 -29l-61 -155h-96zM273 436l41 138q-29 3 -43 22t-14 45q0 36 23.5 56.5t59.5 20.5h23q35 0 58 -20.5t23 -52.5q0 -12 -4 -25t-10 -29l-61 -155h-96z
" />
    <glyph glyph-name="quotedblbase" unicode="&#x201e;" horiz-adv-x="481" 
d="M37 0zM53 -129l41 138q-29 3 -43 22t-14 45q0 36 23.5 56.5t59.5 20.5h23q35 0 58 -20.5t23 -52.5q0 -12 -3.5 -25t-10.5 -29l-61 -155h-96zM273 -129l41 138q-29 3 -43 22t-14 45q0 36 23.5 56.5t59.5 20.5h23q35 0 58 -20.5t23 -52.5q0 -12 -3.5 -25t-10.5 -29
l-61 -155h-96z" />
    <glyph glyph-name="dagger" unicode="&#x2020;" horiz-adv-x="483" 
d="M190 0v459h-135v103h135v139h104v-139h135v-103h-135v-459h-104z" />
    <glyph glyph-name="daggerdbl" unicode="&#x2021;" horiz-adv-x="483" 
d="M294 138v-138h-104v138h-135v103h135v218h-135v103h135v139h104v-139h135v-103h-135v-218h135v-103h-135z" />
    <glyph glyph-name="bullet" unicode="&#x2022;" horiz-adv-x="390" 
d="M335 332q0 -29 -11 -54.5t-30 -44.5t-45 -30t-55 -11t-54.5 11t-44 30t-29.5 44.5t-11 54.5t11 54.5t29.5 45t44 30.5t54.5 11t55 -11t45 -30.5t30 -45t11 -54.5z" />
    </font>
</defs>
</svg>
